G04 EAGLE Gerber RS-274X export*
G75*
%MOMM*%
%FSLAX34Y34*%
%LPD*%
%INSolderpaste Top*%
%IPPOS*%
%AMOC8*
5,1,8,0,0,1.08239X$1,22.5*%
G01*
%ADD10R,1.500000X1.300000*%
%ADD11R,1.000000X1.100000*%
%ADD12R,1.300000X1.500000*%
%ADD13R,0.920000X1.520000*%
%ADD14R,1.200000X1.200000*%
%ADD15R,1.219200X2.235200*%
%ADD16R,3.600000X2.200000*%
%ADD17R,1.599800X0.547100*%
%ADD18R,0.547100X1.599800*%
%ADD19R,1.571900X0.406800*%
%ADD20R,1.400000X0.620000*%
%ADD21R,2.400000X1.100000*%
%ADD22R,2.100000X1.400000*%
%ADD23R,1.186800X1.386800*%


D10*
X314960Y732130D03*
X314960Y713130D03*
X266700Y732130D03*
X266700Y713130D03*
D11*
X290830Y731130D03*
X290830Y714130D03*
D12*
X173380Y618490D03*
X192380Y618490D03*
X173380Y594360D03*
X192380Y594360D03*
X76860Y828040D03*
X95860Y828040D03*
X76860Y777240D03*
X95860Y777240D03*
X76860Y802640D03*
X95860Y802640D03*
D13*
X16620Y792480D03*
X36720Y792480D03*
D14*
X17780Y729320D03*
X17780Y708320D03*
D15*
X261366Y766572D03*
X284480Y766572D03*
X307594Y766572D03*
D16*
X284480Y828550D03*
D17*
X120987Y751200D03*
X120987Y743200D03*
X120987Y735200D03*
X120987Y727200D03*
X120987Y719200D03*
X120987Y711200D03*
X120987Y703200D03*
X120987Y695200D03*
X120987Y687200D03*
X120987Y679200D03*
X120987Y671200D03*
D18*
X137800Y654387D03*
X145800Y654387D03*
X153800Y654387D03*
X161800Y654387D03*
X169800Y654387D03*
X177800Y654387D03*
X185800Y654387D03*
X193800Y654387D03*
X201800Y654387D03*
X209800Y654387D03*
X217800Y654387D03*
D17*
X234613Y671200D03*
X234613Y679200D03*
X234613Y687200D03*
X234613Y695200D03*
X234613Y703200D03*
X234613Y711200D03*
X234613Y719200D03*
X234613Y727200D03*
X234613Y735200D03*
X234613Y743200D03*
X234613Y751200D03*
D18*
X217800Y768013D03*
X209800Y768013D03*
X201800Y768013D03*
X193800Y768013D03*
X185800Y768013D03*
X177800Y768013D03*
X169800Y768013D03*
X161800Y768013D03*
X153800Y768013D03*
X145800Y768013D03*
X137800Y768013D03*
D19*
X299104Y640553D03*
X299104Y634053D03*
X299104Y627553D03*
X299104Y621053D03*
X299104Y614553D03*
X299104Y608053D03*
X299104Y601553D03*
X356538Y601553D03*
X356538Y608053D03*
X356538Y614553D03*
X356538Y621053D03*
X356538Y627553D03*
X356538Y634053D03*
X356538Y640553D03*
D20*
X359630Y775430D03*
X359630Y764430D03*
X359630Y753430D03*
X359630Y742430D03*
X359630Y731430D03*
X359630Y720430D03*
X359630Y709430D03*
X359630Y698430D03*
X359630Y687430D03*
D21*
X379630Y673630D03*
X469630Y673630D03*
X469630Y835130D03*
X379630Y835130D03*
D12*
X179730Y802640D03*
X198730Y802640D03*
X343721Y575333D03*
X362721Y575333D03*
X198730Y828040D03*
X179730Y828040D03*
X146660Y828040D03*
X127660Y828040D03*
X270011Y575333D03*
X251011Y575333D03*
X29870Y828040D03*
X48870Y828040D03*
X146660Y802640D03*
X127660Y802640D03*
X270011Y623593D03*
X251011Y623593D03*
X270011Y599463D03*
X251011Y599463D03*
X318271Y575333D03*
X299271Y575333D03*
D14*
X17780Y586400D03*
X17780Y607400D03*
D22*
X401540Y580750D03*
X401540Y625750D03*
X492540Y625750D03*
X492540Y580750D03*
D23*
X119395Y620975D03*
X119395Y598225D03*
X137145Y598225D03*
X137145Y620975D03*
M02*
