M48
;GenerationSoftware,Autodesk,EAGLE,9.6.2*%
;CreationDate,2022-12-03T03:28:17Z*%
FMAT,2
ICI,OFF
METRIC,TZ,000.000
T4C0.305
T3C0.950
T2C1.016
T1C1.250
%
G90
M71
T1
X7239Y73660
X7239Y58420
X4699Y58420
X7239Y60960
X4699Y60960
X7239Y63500
X4699Y63500
X7239Y66040
X4699Y66040
X7239Y68580
X4699Y68580
X7239Y71120
X4699Y71120
X4699Y73660
T2
X2540Y53340
X5080Y53340
X7620Y53340
X10160Y53340
X12700Y53340
X15240Y53340
T3
X47383Y71553
X47383Y78353
T4
X2159Y59690
X11684Y83820
X22225Y70104
X39497Y61468
X2667Y74549
X13335Y78994
X9144Y75311
X34798Y74930
X15240Y77978
X37084Y72898
X31115Y60960
X33655Y59817
X34417Y60579
X36322Y58928
X36830Y62611
X37084Y70485
X34925Y58674
X33909Y63881
X33020Y62230
X13335Y72771
X15367Y73787
X16764Y67437
X17653Y67183
X11811Y81407
X19812Y79121
X16764Y68707
X12827Y78359
X13335Y73660
X4953Y80518
X10922Y72898
X20574Y61595
X28702Y62865
X10922Y68580
X18288Y63246
X10922Y67945
X30480Y67310
X10922Y67310
X31623Y59309
X24638Y72517
M30