G04 EAGLE Gerber RS-274X export*
G75*
%MOMM*%
%FSLAX34Y34*%
%LPD*%
%INSilkscreen Top*%
%IPPOS*%
%AMOC8*
5,1,8,0,0,1.08239X$1,22.5*%
G01*
%ADD10C,0.101600*%
%ADD11C,0.203200*%
%ADD12C,0.076200*%
%ADD13R,1.450100X0.750100*%
%ADD14R,0.950000X0.500100*%
%ADD15R,0.750100X1.450100*%
%ADD16C,0.050000*%
%ADD17C,0.100000*%
%ADD18C,0.200000*%
%ADD19C,0.254000*%
%ADD20R,0.325000X0.500000*%
%ADD21R,0.150000X0.250000*%
%ADD22R,0.400000X0.175000*%
%ADD23R,0.300000X0.300000*%
%ADD24R,0.325000X0.075000*%
%ADD25R,3.200400X1.854200*%
%ADD26R,0.863600X1.854200*%
%ADD27C,0.500000*%
%ADD28C,0.120000*%
%ADD29C,0.200000*%
%ADD30C,0.152400*%
%ADD31R,0.508000X0.508000*%
%ADD32R,0.650000X1.400000*%
%ADD33C,0.127000*%


D10*
X423774Y566547D02*
X426370Y554863D01*
X428967Y562652D01*
X431563Y554863D01*
X434159Y566547D01*
X439130Y566547D02*
X439130Y554863D01*
X439130Y566547D02*
X442375Y566547D01*
X442488Y566545D01*
X442601Y566539D01*
X442714Y566529D01*
X442827Y566515D01*
X442939Y566498D01*
X443050Y566476D01*
X443160Y566451D01*
X443270Y566421D01*
X443378Y566388D01*
X443485Y566351D01*
X443591Y566311D01*
X443695Y566266D01*
X443798Y566218D01*
X443899Y566167D01*
X443998Y566112D01*
X444095Y566054D01*
X444190Y565992D01*
X444283Y565927D01*
X444373Y565859D01*
X444461Y565788D01*
X444547Y565713D01*
X444630Y565636D01*
X444710Y565556D01*
X444787Y565473D01*
X444862Y565387D01*
X444933Y565299D01*
X445001Y565209D01*
X445066Y565116D01*
X445128Y565021D01*
X445186Y564924D01*
X445241Y564825D01*
X445292Y564724D01*
X445340Y564621D01*
X445385Y564517D01*
X445425Y564411D01*
X445462Y564304D01*
X445495Y564196D01*
X445525Y564086D01*
X445550Y563976D01*
X445572Y563865D01*
X445589Y563753D01*
X445603Y563640D01*
X445613Y563527D01*
X445619Y563414D01*
X445621Y563301D01*
X445619Y563188D01*
X445613Y563075D01*
X445603Y562962D01*
X445589Y562849D01*
X445572Y562737D01*
X445550Y562626D01*
X445525Y562516D01*
X445495Y562406D01*
X445462Y562298D01*
X445425Y562191D01*
X445385Y562085D01*
X445340Y561981D01*
X445292Y561878D01*
X445241Y561777D01*
X445186Y561678D01*
X445128Y561581D01*
X445066Y561486D01*
X445001Y561393D01*
X444933Y561303D01*
X444862Y561215D01*
X444787Y561129D01*
X444710Y561046D01*
X444630Y560966D01*
X444547Y560889D01*
X444461Y560814D01*
X444373Y560743D01*
X444283Y560675D01*
X444190Y560610D01*
X444095Y560548D01*
X443998Y560490D01*
X443899Y560435D01*
X443798Y560384D01*
X443695Y560336D01*
X443591Y560291D01*
X443485Y560251D01*
X443378Y560214D01*
X443270Y560181D01*
X443160Y560151D01*
X443050Y560126D01*
X442939Y560104D01*
X442827Y560087D01*
X442714Y560073D01*
X442601Y560063D01*
X442488Y560057D01*
X442375Y560055D01*
X442375Y560056D02*
X439130Y560056D01*
X443024Y560056D02*
X445621Y554863D01*
X451446Y554863D02*
X451446Y566547D01*
X450147Y554863D02*
X452744Y554863D01*
X452744Y566547D02*
X450147Y566547D01*
X459827Y566547D02*
X459827Y554863D01*
X456582Y566547D02*
X463073Y566547D01*
X467654Y554863D02*
X472846Y554863D01*
X467654Y554863D02*
X467654Y566547D01*
X472846Y566547D01*
X471548Y561354D02*
X467654Y561354D01*
X422322Y535813D02*
X417129Y535813D01*
X417129Y547497D01*
X422322Y547497D01*
X421023Y542304D02*
X417129Y542304D01*
X427035Y535813D02*
X432228Y535813D01*
X427035Y535813D02*
X427035Y547497D01*
X432228Y547497D01*
X430929Y542304D02*
X427035Y542304D01*
X437088Y547497D02*
X437088Y535813D01*
X437088Y547497D02*
X440333Y547497D01*
X440446Y547495D01*
X440559Y547489D01*
X440672Y547479D01*
X440785Y547465D01*
X440897Y547448D01*
X441008Y547426D01*
X441118Y547401D01*
X441228Y547371D01*
X441336Y547338D01*
X441443Y547301D01*
X441549Y547261D01*
X441653Y547216D01*
X441756Y547168D01*
X441857Y547117D01*
X441956Y547062D01*
X442053Y547004D01*
X442148Y546942D01*
X442241Y546877D01*
X442331Y546809D01*
X442419Y546738D01*
X442505Y546663D01*
X442588Y546586D01*
X442668Y546506D01*
X442745Y546423D01*
X442820Y546337D01*
X442891Y546249D01*
X442959Y546159D01*
X443024Y546066D01*
X443086Y545971D01*
X443144Y545874D01*
X443199Y545775D01*
X443250Y545674D01*
X443298Y545571D01*
X443343Y545467D01*
X443383Y545361D01*
X443420Y545254D01*
X443453Y545146D01*
X443483Y545036D01*
X443508Y544926D01*
X443530Y544815D01*
X443547Y544703D01*
X443561Y544590D01*
X443571Y544477D01*
X443577Y544364D01*
X443579Y544251D01*
X443577Y544138D01*
X443571Y544025D01*
X443561Y543912D01*
X443547Y543799D01*
X443530Y543687D01*
X443508Y543576D01*
X443483Y543466D01*
X443453Y543356D01*
X443420Y543248D01*
X443383Y543141D01*
X443343Y543035D01*
X443298Y542931D01*
X443250Y542828D01*
X443199Y542727D01*
X443144Y542628D01*
X443086Y542531D01*
X443024Y542436D01*
X442959Y542343D01*
X442891Y542253D01*
X442820Y542165D01*
X442745Y542079D01*
X442668Y541996D01*
X442588Y541916D01*
X442505Y541839D01*
X442419Y541764D01*
X442331Y541693D01*
X442241Y541625D01*
X442148Y541560D01*
X442053Y541498D01*
X441956Y541440D01*
X441857Y541385D01*
X441756Y541334D01*
X441653Y541286D01*
X441549Y541241D01*
X441443Y541201D01*
X441336Y541164D01*
X441228Y541131D01*
X441118Y541101D01*
X441008Y541076D01*
X440897Y541054D01*
X440785Y541037D01*
X440672Y541023D01*
X440559Y541013D01*
X440446Y541007D01*
X440333Y541005D01*
X440333Y541006D02*
X437088Y541006D01*
X448422Y535813D02*
X448422Y547497D01*
X451667Y547497D01*
X451780Y547495D01*
X451893Y547489D01*
X452006Y547479D01*
X452119Y547465D01*
X452231Y547448D01*
X452342Y547426D01*
X452452Y547401D01*
X452562Y547371D01*
X452670Y547338D01*
X452777Y547301D01*
X452883Y547261D01*
X452987Y547216D01*
X453090Y547168D01*
X453191Y547117D01*
X453290Y547062D01*
X453387Y547004D01*
X453482Y546942D01*
X453575Y546877D01*
X453665Y546809D01*
X453753Y546738D01*
X453839Y546663D01*
X453922Y546586D01*
X454002Y546506D01*
X454079Y546423D01*
X454154Y546337D01*
X454225Y546249D01*
X454293Y546159D01*
X454358Y546066D01*
X454420Y545971D01*
X454478Y545874D01*
X454533Y545775D01*
X454584Y545674D01*
X454632Y545571D01*
X454677Y545467D01*
X454717Y545361D01*
X454754Y545254D01*
X454787Y545146D01*
X454817Y545036D01*
X454842Y544926D01*
X454864Y544815D01*
X454881Y544703D01*
X454895Y544590D01*
X454905Y544477D01*
X454911Y544364D01*
X454913Y544251D01*
X454911Y544138D01*
X454905Y544025D01*
X454895Y543912D01*
X454881Y543799D01*
X454864Y543687D01*
X454842Y543576D01*
X454817Y543466D01*
X454787Y543356D01*
X454754Y543248D01*
X454717Y543141D01*
X454677Y543035D01*
X454632Y542931D01*
X454584Y542828D01*
X454533Y542727D01*
X454478Y542628D01*
X454420Y542531D01*
X454358Y542436D01*
X454293Y542343D01*
X454225Y542253D01*
X454154Y542165D01*
X454079Y542079D01*
X454002Y541996D01*
X453922Y541916D01*
X453839Y541839D01*
X453753Y541764D01*
X453665Y541693D01*
X453575Y541625D01*
X453482Y541560D01*
X453387Y541498D01*
X453290Y541440D01*
X453191Y541385D01*
X453090Y541334D01*
X452987Y541286D01*
X452883Y541241D01*
X452777Y541201D01*
X452670Y541164D01*
X452562Y541131D01*
X452452Y541101D01*
X452342Y541076D01*
X452231Y541054D01*
X452119Y541037D01*
X452006Y541023D01*
X451893Y541013D01*
X451780Y541007D01*
X451667Y541005D01*
X451667Y541006D02*
X448422Y541006D01*
X452316Y541006D02*
X454913Y535813D01*
X459778Y539059D02*
X459778Y544251D01*
X459780Y544364D01*
X459786Y544477D01*
X459796Y544590D01*
X459810Y544703D01*
X459827Y544815D01*
X459849Y544926D01*
X459874Y545036D01*
X459904Y545146D01*
X459937Y545254D01*
X459974Y545361D01*
X460014Y545467D01*
X460059Y545571D01*
X460107Y545674D01*
X460158Y545775D01*
X460213Y545874D01*
X460271Y545971D01*
X460333Y546066D01*
X460398Y546159D01*
X460466Y546249D01*
X460537Y546337D01*
X460612Y546423D01*
X460689Y546506D01*
X460769Y546586D01*
X460852Y546663D01*
X460938Y546738D01*
X461026Y546809D01*
X461116Y546877D01*
X461209Y546942D01*
X461304Y547004D01*
X461401Y547062D01*
X461500Y547117D01*
X461601Y547168D01*
X461704Y547216D01*
X461808Y547261D01*
X461914Y547301D01*
X462021Y547338D01*
X462129Y547371D01*
X462239Y547401D01*
X462349Y547426D01*
X462460Y547448D01*
X462572Y547465D01*
X462685Y547479D01*
X462798Y547489D01*
X462911Y547495D01*
X463024Y547497D01*
X463137Y547495D01*
X463250Y547489D01*
X463363Y547479D01*
X463476Y547465D01*
X463588Y547448D01*
X463699Y547426D01*
X463809Y547401D01*
X463919Y547371D01*
X464027Y547338D01*
X464134Y547301D01*
X464240Y547261D01*
X464344Y547216D01*
X464447Y547168D01*
X464548Y547117D01*
X464647Y547062D01*
X464744Y547004D01*
X464839Y546942D01*
X464932Y546877D01*
X465022Y546809D01*
X465110Y546738D01*
X465196Y546663D01*
X465279Y546586D01*
X465359Y546506D01*
X465436Y546423D01*
X465511Y546337D01*
X465582Y546249D01*
X465650Y546159D01*
X465715Y546066D01*
X465777Y545971D01*
X465835Y545874D01*
X465890Y545775D01*
X465941Y545674D01*
X465989Y545571D01*
X466034Y545467D01*
X466074Y545361D01*
X466111Y545254D01*
X466144Y545146D01*
X466174Y545036D01*
X466199Y544926D01*
X466221Y544815D01*
X466238Y544703D01*
X466252Y544590D01*
X466262Y544477D01*
X466268Y544364D01*
X466270Y544251D01*
X466269Y544251D02*
X466269Y539059D01*
X466270Y539059D02*
X466268Y538946D01*
X466262Y538833D01*
X466252Y538720D01*
X466238Y538607D01*
X466221Y538495D01*
X466199Y538384D01*
X466174Y538274D01*
X466144Y538164D01*
X466111Y538056D01*
X466074Y537949D01*
X466034Y537843D01*
X465989Y537739D01*
X465941Y537636D01*
X465890Y537535D01*
X465835Y537436D01*
X465777Y537339D01*
X465715Y537244D01*
X465650Y537151D01*
X465582Y537061D01*
X465511Y536973D01*
X465436Y536887D01*
X465359Y536804D01*
X465279Y536724D01*
X465196Y536647D01*
X465110Y536572D01*
X465022Y536501D01*
X464932Y536433D01*
X464839Y536368D01*
X464744Y536306D01*
X464647Y536248D01*
X464548Y536193D01*
X464447Y536142D01*
X464344Y536094D01*
X464240Y536049D01*
X464134Y536009D01*
X464027Y535972D01*
X463919Y535939D01*
X463809Y535909D01*
X463699Y535884D01*
X463588Y535862D01*
X463476Y535845D01*
X463363Y535831D01*
X463250Y535821D01*
X463137Y535815D01*
X463024Y535813D01*
X462911Y535815D01*
X462798Y535821D01*
X462685Y535831D01*
X462572Y535845D01*
X462460Y535862D01*
X462349Y535884D01*
X462239Y535909D01*
X462129Y535939D01*
X462021Y535972D01*
X461914Y536009D01*
X461808Y536049D01*
X461704Y536094D01*
X461601Y536142D01*
X461500Y536193D01*
X461401Y536248D01*
X461304Y536306D01*
X461209Y536368D01*
X461116Y536433D01*
X461026Y536501D01*
X460938Y536572D01*
X460852Y536647D01*
X460769Y536724D01*
X460689Y536804D01*
X460612Y536887D01*
X460537Y536973D01*
X460466Y537061D01*
X460398Y537151D01*
X460333Y537244D01*
X460271Y537339D01*
X460213Y537436D01*
X460158Y537535D01*
X460107Y537636D01*
X460059Y537739D01*
X460014Y537843D01*
X459974Y537949D01*
X459937Y538056D01*
X459904Y538164D01*
X459874Y538274D01*
X459849Y538384D01*
X459827Y538495D01*
X459810Y538607D01*
X459796Y538720D01*
X459786Y538833D01*
X459780Y538946D01*
X459778Y539059D01*
X471702Y535813D02*
X471702Y547497D01*
X475597Y541006D01*
X479491Y547497D01*
X479491Y535813D01*
D11*
X185335Y551434D02*
X177546Y528066D01*
X193125Y528066D02*
X185335Y551434D01*
X191177Y533908D02*
X179493Y533908D01*
X200389Y528066D02*
X200389Y543645D01*
X208178Y543645D01*
X208178Y541048D01*
X224579Y551434D02*
X224579Y528066D01*
X218088Y528066D01*
X217966Y528068D01*
X217843Y528074D01*
X217721Y528083D01*
X217600Y528097D01*
X217479Y528114D01*
X217358Y528135D01*
X217238Y528160D01*
X217119Y528188D01*
X217001Y528221D01*
X216884Y528257D01*
X216769Y528296D01*
X216654Y528340D01*
X216541Y528386D01*
X216430Y528437D01*
X216320Y528491D01*
X216212Y528548D01*
X216105Y528608D01*
X216001Y528672D01*
X215899Y528740D01*
X215799Y528810D01*
X215701Y528883D01*
X215605Y528960D01*
X215512Y529039D01*
X215422Y529122D01*
X215334Y529207D01*
X215249Y529295D01*
X215166Y529385D01*
X215087Y529478D01*
X215010Y529574D01*
X214937Y529672D01*
X214867Y529772D01*
X214799Y529874D01*
X214735Y529978D01*
X214675Y530085D01*
X214618Y530193D01*
X214564Y530303D01*
X214513Y530414D01*
X214467Y530527D01*
X214423Y530642D01*
X214384Y530757D01*
X214348Y530874D01*
X214315Y530992D01*
X214287Y531111D01*
X214262Y531231D01*
X214241Y531352D01*
X214224Y531473D01*
X214210Y531594D01*
X214201Y531716D01*
X214195Y531839D01*
X214193Y531961D01*
X214193Y539750D01*
X214195Y539872D01*
X214201Y539995D01*
X214210Y540117D01*
X214224Y540238D01*
X214241Y540359D01*
X214262Y540480D01*
X214287Y540600D01*
X214315Y540719D01*
X214348Y540837D01*
X214384Y540954D01*
X214423Y541069D01*
X214467Y541184D01*
X214513Y541297D01*
X214564Y541408D01*
X214618Y541518D01*
X214675Y541626D01*
X214735Y541733D01*
X214799Y541837D01*
X214867Y541939D01*
X214937Y542039D01*
X215010Y542137D01*
X215087Y542233D01*
X215166Y542326D01*
X215249Y542416D01*
X215334Y542504D01*
X215422Y542589D01*
X215512Y542672D01*
X215605Y542751D01*
X215701Y542828D01*
X215799Y542901D01*
X215899Y542971D01*
X216001Y543039D01*
X216105Y543103D01*
X216212Y543163D01*
X216320Y543220D01*
X216430Y543274D01*
X216541Y543325D01*
X216654Y543371D01*
X216769Y543415D01*
X216884Y543454D01*
X217001Y543490D01*
X217119Y543523D01*
X217238Y543551D01*
X217358Y543576D01*
X217479Y543597D01*
X217600Y543614D01*
X217721Y543628D01*
X217843Y543637D01*
X217966Y543643D01*
X218088Y543645D01*
X224579Y543645D01*
X233972Y551434D02*
X233972Y528066D01*
X233972Y551434D02*
X240464Y551434D01*
X240623Y551432D01*
X240782Y551426D01*
X240942Y551416D01*
X241100Y551403D01*
X241259Y551385D01*
X241416Y551364D01*
X241574Y551338D01*
X241730Y551309D01*
X241886Y551276D01*
X242041Y551239D01*
X242195Y551199D01*
X242348Y551154D01*
X242500Y551106D01*
X242651Y551055D01*
X242800Y550999D01*
X242948Y550940D01*
X243094Y550877D01*
X243239Y550811D01*
X243382Y550741D01*
X243524Y550668D01*
X243663Y550591D01*
X243801Y550511D01*
X243937Y550427D01*
X244070Y550340D01*
X244202Y550250D01*
X244331Y550157D01*
X244457Y550060D01*
X244582Y549961D01*
X244704Y549858D01*
X244823Y549753D01*
X244940Y549644D01*
X245054Y549533D01*
X245165Y549419D01*
X245274Y549302D01*
X245379Y549183D01*
X245482Y549061D01*
X245581Y548936D01*
X245678Y548810D01*
X245771Y548681D01*
X245861Y548549D01*
X245948Y548416D01*
X246032Y548280D01*
X246112Y548142D01*
X246189Y548003D01*
X246262Y547861D01*
X246332Y547718D01*
X246398Y547573D01*
X246461Y547427D01*
X246520Y547279D01*
X246576Y547130D01*
X246627Y546979D01*
X246675Y546827D01*
X246720Y546674D01*
X246760Y546520D01*
X246797Y546365D01*
X246830Y546209D01*
X246859Y546053D01*
X246885Y545895D01*
X246906Y545738D01*
X246924Y545579D01*
X246937Y545421D01*
X246947Y545261D01*
X246953Y545102D01*
X246955Y544943D01*
X246953Y544784D01*
X246947Y544625D01*
X246937Y544465D01*
X246924Y544307D01*
X246906Y544148D01*
X246885Y543991D01*
X246859Y543833D01*
X246830Y543677D01*
X246797Y543521D01*
X246760Y543366D01*
X246720Y543212D01*
X246675Y543059D01*
X246627Y542907D01*
X246576Y542756D01*
X246520Y542607D01*
X246461Y542459D01*
X246398Y542313D01*
X246332Y542168D01*
X246262Y542025D01*
X246189Y541883D01*
X246112Y541744D01*
X246032Y541606D01*
X245948Y541470D01*
X245861Y541337D01*
X245771Y541205D01*
X245678Y541076D01*
X245581Y540950D01*
X245482Y540825D01*
X245379Y540703D01*
X245274Y540584D01*
X245165Y540467D01*
X245054Y540353D01*
X244940Y540242D01*
X244823Y540133D01*
X244704Y540028D01*
X244582Y539925D01*
X244457Y539826D01*
X244331Y539729D01*
X244202Y539636D01*
X244070Y539546D01*
X243937Y539459D01*
X243801Y539375D01*
X243663Y539295D01*
X243524Y539218D01*
X243382Y539145D01*
X243239Y539075D01*
X243094Y539009D01*
X242948Y538946D01*
X242800Y538887D01*
X242651Y538831D01*
X242500Y538780D01*
X242348Y538732D01*
X242195Y538687D01*
X242041Y538647D01*
X241886Y538610D01*
X241730Y538577D01*
X241574Y538548D01*
X241416Y538522D01*
X241259Y538501D01*
X241100Y538483D01*
X240942Y538470D01*
X240782Y538460D01*
X240623Y538454D01*
X240464Y538452D01*
X233972Y538452D01*
X254674Y543645D02*
X254674Y528066D01*
X254674Y543645D02*
X262463Y543645D01*
X262463Y541048D01*
X268529Y538452D02*
X268529Y533259D01*
X268529Y538452D02*
X268531Y538595D01*
X268537Y538738D01*
X268547Y538881D01*
X268561Y539023D01*
X268578Y539165D01*
X268600Y539307D01*
X268625Y539448D01*
X268655Y539588D01*
X268688Y539727D01*
X268725Y539865D01*
X268766Y540002D01*
X268810Y540138D01*
X268859Y540273D01*
X268911Y540406D01*
X268966Y540538D01*
X269026Y540668D01*
X269089Y540797D01*
X269155Y540924D01*
X269225Y541049D01*
X269298Y541171D01*
X269375Y541292D01*
X269455Y541411D01*
X269538Y541527D01*
X269624Y541642D01*
X269713Y541753D01*
X269806Y541863D01*
X269901Y541969D01*
X270000Y542073D01*
X270101Y542174D01*
X270205Y542273D01*
X270311Y542368D01*
X270421Y542461D01*
X270532Y542550D01*
X270647Y542636D01*
X270763Y542719D01*
X270882Y542799D01*
X271003Y542876D01*
X271126Y542949D01*
X271250Y543019D01*
X271377Y543085D01*
X271506Y543148D01*
X271636Y543208D01*
X271768Y543263D01*
X271901Y543315D01*
X272036Y543364D01*
X272172Y543408D01*
X272309Y543449D01*
X272447Y543486D01*
X272586Y543519D01*
X272726Y543549D01*
X272867Y543574D01*
X273009Y543596D01*
X273151Y543613D01*
X273293Y543627D01*
X273436Y543637D01*
X273579Y543643D01*
X273722Y543645D01*
X273865Y543643D01*
X274008Y543637D01*
X274151Y543627D01*
X274293Y543613D01*
X274435Y543596D01*
X274577Y543574D01*
X274718Y543549D01*
X274858Y543519D01*
X274997Y543486D01*
X275135Y543449D01*
X275272Y543408D01*
X275408Y543364D01*
X275543Y543315D01*
X275676Y543263D01*
X275808Y543208D01*
X275938Y543148D01*
X276067Y543085D01*
X276194Y543019D01*
X276319Y542949D01*
X276441Y542876D01*
X276562Y542799D01*
X276681Y542719D01*
X276797Y542636D01*
X276912Y542550D01*
X277023Y542461D01*
X277133Y542368D01*
X277239Y542273D01*
X277343Y542174D01*
X277444Y542073D01*
X277543Y541969D01*
X277638Y541863D01*
X277731Y541753D01*
X277820Y541642D01*
X277906Y541527D01*
X277989Y541411D01*
X278069Y541292D01*
X278146Y541171D01*
X278219Y541049D01*
X278289Y540924D01*
X278355Y540797D01*
X278418Y540668D01*
X278478Y540538D01*
X278533Y540406D01*
X278585Y540273D01*
X278634Y540138D01*
X278678Y540002D01*
X278719Y539865D01*
X278756Y539727D01*
X278789Y539588D01*
X278819Y539448D01*
X278844Y539307D01*
X278866Y539165D01*
X278883Y539023D01*
X278897Y538881D01*
X278907Y538738D01*
X278913Y538595D01*
X278915Y538452D01*
X278915Y533259D01*
X278913Y533116D01*
X278907Y532973D01*
X278897Y532830D01*
X278883Y532688D01*
X278866Y532546D01*
X278844Y532404D01*
X278819Y532263D01*
X278789Y532123D01*
X278756Y531984D01*
X278719Y531846D01*
X278678Y531709D01*
X278634Y531573D01*
X278585Y531438D01*
X278533Y531305D01*
X278478Y531173D01*
X278418Y531043D01*
X278355Y530914D01*
X278289Y530787D01*
X278219Y530662D01*
X278146Y530540D01*
X278069Y530419D01*
X277989Y530300D01*
X277906Y530184D01*
X277820Y530069D01*
X277731Y529958D01*
X277638Y529848D01*
X277543Y529742D01*
X277444Y529638D01*
X277343Y529537D01*
X277239Y529438D01*
X277133Y529343D01*
X277023Y529250D01*
X276912Y529161D01*
X276797Y529075D01*
X276681Y528992D01*
X276562Y528912D01*
X276441Y528835D01*
X276318Y528762D01*
X276194Y528692D01*
X276067Y528626D01*
X275938Y528563D01*
X275808Y528503D01*
X275676Y528448D01*
X275543Y528396D01*
X275408Y528347D01*
X275272Y528303D01*
X275135Y528262D01*
X274997Y528225D01*
X274858Y528192D01*
X274718Y528162D01*
X274577Y528137D01*
X274435Y528115D01*
X274293Y528098D01*
X274151Y528084D01*
X274008Y528074D01*
X273865Y528068D01*
X273722Y528066D01*
X273579Y528068D01*
X273436Y528074D01*
X273293Y528084D01*
X273151Y528098D01*
X273009Y528115D01*
X272867Y528137D01*
X272726Y528162D01*
X272586Y528192D01*
X272447Y528225D01*
X272309Y528262D01*
X272172Y528303D01*
X272036Y528347D01*
X271901Y528396D01*
X271768Y528448D01*
X271636Y528503D01*
X271506Y528563D01*
X271377Y528626D01*
X271250Y528692D01*
X271125Y528762D01*
X271003Y528835D01*
X270882Y528912D01*
X270763Y528992D01*
X270647Y529075D01*
X270532Y529161D01*
X270421Y529250D01*
X270311Y529343D01*
X270205Y529438D01*
X270101Y529537D01*
X270000Y529638D01*
X269901Y529742D01*
X269806Y529848D01*
X269713Y529958D01*
X269624Y530069D01*
X269538Y530184D01*
X269455Y530300D01*
X269375Y530419D01*
X269298Y530540D01*
X269225Y530663D01*
X269155Y530787D01*
X269089Y530914D01*
X269026Y531043D01*
X268966Y531173D01*
X268911Y531305D01*
X268859Y531438D01*
X268810Y531573D01*
X268766Y531709D01*
X268725Y531846D01*
X268688Y531984D01*
X268655Y532123D01*
X268625Y532263D01*
X268600Y532404D01*
X268578Y532546D01*
X268561Y532688D01*
X268547Y532830D01*
X268537Y532973D01*
X268531Y533116D01*
X268529Y533259D01*
X287507Y528066D02*
X287507Y543645D01*
X299191Y543645D01*
X299313Y543643D01*
X299436Y543637D01*
X299558Y543628D01*
X299679Y543614D01*
X299800Y543597D01*
X299921Y543576D01*
X300041Y543551D01*
X300160Y543523D01*
X300278Y543490D01*
X300395Y543454D01*
X300510Y543415D01*
X300625Y543371D01*
X300738Y543325D01*
X300849Y543274D01*
X300959Y543220D01*
X301067Y543163D01*
X301174Y543103D01*
X301278Y543039D01*
X301380Y542971D01*
X301480Y542901D01*
X301578Y542828D01*
X301674Y542751D01*
X301767Y542672D01*
X301857Y542589D01*
X301945Y542504D01*
X302030Y542416D01*
X302113Y542326D01*
X302192Y542233D01*
X302269Y542137D01*
X302342Y542039D01*
X302412Y541939D01*
X302480Y541837D01*
X302544Y541733D01*
X302604Y541626D01*
X302661Y541518D01*
X302715Y541408D01*
X302766Y541297D01*
X302812Y541184D01*
X302856Y541069D01*
X302895Y540954D01*
X302931Y540837D01*
X302964Y540719D01*
X302992Y540600D01*
X303017Y540480D01*
X303038Y540359D01*
X303055Y540238D01*
X303069Y540117D01*
X303078Y539995D01*
X303084Y539872D01*
X303086Y539750D01*
X303086Y528066D01*
X295297Y528066D02*
X295297Y543645D01*
D10*
X311827Y537295D02*
X311934Y537297D01*
X312041Y537303D01*
X312148Y537313D01*
X312254Y537326D01*
X312360Y537344D01*
X312465Y537365D01*
X312569Y537390D01*
X312673Y537419D01*
X312775Y537452D01*
X312875Y537489D01*
X312975Y537529D01*
X313073Y537573D01*
X313169Y537620D01*
X313263Y537671D01*
X313356Y537725D01*
X313446Y537782D01*
X313535Y537843D01*
X313621Y537907D01*
X313704Y537974D01*
X313786Y538044D01*
X313864Y538117D01*
X313940Y538193D01*
X314013Y538271D01*
X314083Y538353D01*
X314150Y538436D01*
X314214Y538522D01*
X314275Y538611D01*
X314332Y538701D01*
X314386Y538794D01*
X314437Y538888D01*
X314484Y538984D01*
X314528Y539082D01*
X314568Y539182D01*
X314605Y539282D01*
X314638Y539384D01*
X314667Y539488D01*
X314692Y539592D01*
X314713Y539697D01*
X314731Y539803D01*
X314744Y539909D01*
X314754Y540016D01*
X314760Y540123D01*
X314762Y540230D01*
X311827Y537295D02*
X311674Y537297D01*
X311521Y537303D01*
X311369Y537312D01*
X311216Y537325D01*
X311064Y537342D01*
X310913Y537363D01*
X310761Y537387D01*
X310611Y537415D01*
X310461Y537447D01*
X310313Y537483D01*
X310165Y537522D01*
X310018Y537565D01*
X309872Y537611D01*
X309728Y537661D01*
X309584Y537715D01*
X309442Y537772D01*
X309302Y537832D01*
X309163Y537897D01*
X309026Y537964D01*
X308890Y538035D01*
X308756Y538109D01*
X308624Y538186D01*
X308494Y538267D01*
X308366Y538351D01*
X308240Y538438D01*
X308117Y538528D01*
X307995Y538621D01*
X307876Y538717D01*
X307760Y538816D01*
X307645Y538917D01*
X307534Y539022D01*
X307425Y539129D01*
X307792Y547568D02*
X307794Y547675D01*
X307800Y547782D01*
X307810Y547889D01*
X307823Y547995D01*
X307841Y548101D01*
X307862Y548206D01*
X307887Y548310D01*
X307916Y548414D01*
X307949Y548516D01*
X307986Y548616D01*
X308026Y548716D01*
X308070Y548814D01*
X308117Y548910D01*
X308168Y549004D01*
X308222Y549097D01*
X308279Y549187D01*
X308340Y549276D01*
X308404Y549362D01*
X308471Y549445D01*
X308541Y549527D01*
X308614Y549605D01*
X308690Y549681D01*
X308768Y549754D01*
X308850Y549824D01*
X308933Y549891D01*
X309019Y549955D01*
X309108Y550016D01*
X309198Y550073D01*
X309291Y550127D01*
X309385Y550178D01*
X309481Y550225D01*
X309579Y550269D01*
X309679Y550309D01*
X309779Y550346D01*
X309881Y550379D01*
X309985Y550408D01*
X310089Y550433D01*
X310194Y550454D01*
X310300Y550472D01*
X310406Y550485D01*
X310513Y550495D01*
X310620Y550501D01*
X310727Y550503D01*
X310875Y550501D01*
X311022Y550495D01*
X311169Y550485D01*
X311316Y550471D01*
X311463Y550454D01*
X311608Y550432D01*
X311754Y550406D01*
X311898Y550377D01*
X312042Y550344D01*
X312185Y550306D01*
X312327Y550265D01*
X312467Y550221D01*
X312607Y550172D01*
X312745Y550120D01*
X312881Y550064D01*
X313016Y550004D01*
X313149Y549941D01*
X313281Y549874D01*
X313411Y549804D01*
X313539Y549731D01*
X313664Y549653D01*
X313788Y549573D01*
X313910Y549489D01*
X314029Y549402D01*
X309259Y545000D02*
X309168Y545056D01*
X309079Y545115D01*
X308992Y545177D01*
X308908Y545242D01*
X308825Y545310D01*
X308746Y545381D01*
X308669Y545455D01*
X308595Y545532D01*
X308523Y545611D01*
X308455Y545693D01*
X308389Y545777D01*
X308326Y545864D01*
X308267Y545952D01*
X308211Y546043D01*
X308158Y546136D01*
X308108Y546230D01*
X308062Y546326D01*
X308019Y546424D01*
X307980Y546523D01*
X307944Y546624D01*
X307912Y546726D01*
X307884Y546829D01*
X307860Y546933D01*
X307839Y547037D01*
X307822Y547143D01*
X307808Y547248D01*
X307799Y547355D01*
X307793Y547461D01*
X307791Y547568D01*
X313294Y542798D02*
X313385Y542742D01*
X313474Y542683D01*
X313561Y542621D01*
X313645Y542556D01*
X313728Y542488D01*
X313807Y542417D01*
X313884Y542343D01*
X313958Y542266D01*
X314030Y542187D01*
X314098Y542105D01*
X314164Y542021D01*
X314227Y541934D01*
X314286Y541846D01*
X314342Y541755D01*
X314395Y541662D01*
X314445Y541568D01*
X314491Y541472D01*
X314534Y541374D01*
X314573Y541275D01*
X314609Y541174D01*
X314641Y541072D01*
X314669Y540969D01*
X314693Y540865D01*
X314714Y540761D01*
X314731Y540655D01*
X314745Y540550D01*
X314754Y540443D01*
X314760Y540337D01*
X314762Y540230D01*
X313295Y542798D02*
X309259Y545000D01*
X320226Y550503D02*
X320226Y537295D01*
X320226Y550503D02*
X323895Y550503D01*
X324015Y550501D01*
X324135Y550495D01*
X324255Y550485D01*
X324374Y550472D01*
X324493Y550454D01*
X324611Y550433D01*
X324728Y550407D01*
X324845Y550378D01*
X324960Y550345D01*
X325074Y550308D01*
X325187Y550268D01*
X325299Y550224D01*
X325409Y550176D01*
X325518Y550125D01*
X325625Y550070D01*
X325730Y550011D01*
X325832Y549950D01*
X325933Y549885D01*
X326032Y549816D01*
X326129Y549745D01*
X326223Y549670D01*
X326314Y549593D01*
X326403Y549512D01*
X326489Y549428D01*
X326573Y549342D01*
X326654Y549253D01*
X326731Y549162D01*
X326806Y549068D01*
X326877Y548971D01*
X326946Y548872D01*
X327011Y548771D01*
X327072Y548669D01*
X327131Y548564D01*
X327186Y548457D01*
X327237Y548348D01*
X327285Y548238D01*
X327329Y548126D01*
X327369Y548013D01*
X327406Y547899D01*
X327439Y547784D01*
X327468Y547667D01*
X327494Y547550D01*
X327515Y547432D01*
X327533Y547313D01*
X327546Y547194D01*
X327556Y547074D01*
X327562Y546954D01*
X327564Y546834D01*
X327564Y540964D01*
X327562Y540844D01*
X327556Y540724D01*
X327546Y540604D01*
X327533Y540485D01*
X327515Y540366D01*
X327494Y540248D01*
X327468Y540131D01*
X327439Y540014D01*
X327406Y539899D01*
X327369Y539785D01*
X327329Y539672D01*
X327285Y539560D01*
X327237Y539450D01*
X327186Y539341D01*
X327131Y539234D01*
X327072Y539130D01*
X327011Y539027D01*
X326946Y538926D01*
X326877Y538827D01*
X326806Y538730D01*
X326731Y538636D01*
X326654Y538545D01*
X326573Y538456D01*
X326489Y538370D01*
X326403Y538286D01*
X326314Y538205D01*
X326223Y538128D01*
X326129Y538053D01*
X326032Y537982D01*
X325933Y537913D01*
X325832Y537848D01*
X325730Y537787D01*
X325625Y537728D01*
X325518Y537673D01*
X325409Y537622D01*
X325299Y537574D01*
X325187Y537530D01*
X325074Y537490D01*
X324960Y537453D01*
X324845Y537420D01*
X324728Y537391D01*
X324611Y537365D01*
X324493Y537344D01*
X324374Y537326D01*
X324255Y537313D01*
X324135Y537303D01*
X324015Y537297D01*
X323895Y537295D01*
X320226Y537295D01*
D12*
X461391Y528616D02*
X461391Y522351D01*
X461391Y528616D02*
X464524Y528616D01*
X464524Y527572D01*
X469002Y522351D02*
X471612Y522351D01*
X469002Y522351D02*
X468925Y522353D01*
X468849Y522359D01*
X468772Y522368D01*
X468696Y522381D01*
X468621Y522398D01*
X468547Y522418D01*
X468474Y522443D01*
X468403Y522470D01*
X468332Y522501D01*
X468264Y522536D01*
X468197Y522574D01*
X468132Y522615D01*
X468069Y522659D01*
X468009Y522706D01*
X467950Y522757D01*
X467895Y522810D01*
X467842Y522865D01*
X467791Y522924D01*
X467744Y522984D01*
X467700Y523047D01*
X467659Y523112D01*
X467621Y523179D01*
X467586Y523247D01*
X467555Y523318D01*
X467528Y523389D01*
X467503Y523462D01*
X467483Y523536D01*
X467466Y523611D01*
X467453Y523687D01*
X467444Y523764D01*
X467438Y523840D01*
X467436Y523917D01*
X467436Y526528D01*
X467438Y526618D01*
X467444Y526707D01*
X467453Y526797D01*
X467467Y526886D01*
X467484Y526974D01*
X467505Y527061D01*
X467530Y527148D01*
X467559Y527233D01*
X467591Y527317D01*
X467626Y527399D01*
X467666Y527480D01*
X467708Y527559D01*
X467754Y527636D01*
X467804Y527711D01*
X467856Y527784D01*
X467912Y527855D01*
X467970Y527923D01*
X468032Y527988D01*
X468096Y528051D01*
X468163Y528111D01*
X468232Y528168D01*
X468304Y528222D01*
X468378Y528273D01*
X468454Y528321D01*
X468532Y528365D01*
X468612Y528406D01*
X468694Y528444D01*
X468777Y528478D01*
X468862Y528508D01*
X468948Y528535D01*
X469034Y528558D01*
X469122Y528577D01*
X469211Y528592D01*
X469300Y528604D01*
X469389Y528612D01*
X469479Y528616D01*
X469569Y528616D01*
X469659Y528612D01*
X469748Y528604D01*
X469837Y528592D01*
X469926Y528577D01*
X470014Y528558D01*
X470100Y528535D01*
X470186Y528508D01*
X470271Y528478D01*
X470354Y528444D01*
X470436Y528406D01*
X470516Y528365D01*
X470594Y528321D01*
X470670Y528273D01*
X470744Y528222D01*
X470816Y528168D01*
X470885Y528111D01*
X470952Y528051D01*
X471016Y527988D01*
X471078Y527923D01*
X471136Y527855D01*
X471192Y527784D01*
X471244Y527711D01*
X471294Y527636D01*
X471340Y527559D01*
X471382Y527480D01*
X471422Y527399D01*
X471457Y527317D01*
X471489Y527233D01*
X471518Y527148D01*
X471543Y527061D01*
X471564Y526974D01*
X471581Y526886D01*
X471595Y526797D01*
X471604Y526707D01*
X471610Y526618D01*
X471612Y526528D01*
X471612Y525484D01*
X467436Y525484D01*
X475055Y528616D02*
X477144Y522351D01*
X479232Y528616D01*
X487640Y529661D02*
X490250Y531749D01*
X490250Y522351D01*
X487640Y522351D02*
X492861Y522351D01*
X496390Y522351D02*
X496390Y522873D01*
X496912Y522873D01*
X496912Y522351D01*
X496390Y522351D01*
X505663Y529400D02*
X505661Y529495D01*
X505655Y529589D01*
X505646Y529683D01*
X505633Y529777D01*
X505616Y529870D01*
X505595Y529962D01*
X505570Y530054D01*
X505542Y530144D01*
X505510Y530233D01*
X505475Y530321D01*
X505436Y530407D01*
X505394Y530492D01*
X505348Y530575D01*
X505299Y530656D01*
X505247Y530735D01*
X505192Y530812D01*
X505133Y530886D01*
X505072Y530958D01*
X505008Y531028D01*
X504941Y531095D01*
X504871Y531159D01*
X504799Y531220D01*
X504725Y531279D01*
X504648Y531334D01*
X504569Y531386D01*
X504488Y531435D01*
X504405Y531481D01*
X504320Y531523D01*
X504234Y531562D01*
X504146Y531597D01*
X504057Y531629D01*
X503967Y531657D01*
X503875Y531682D01*
X503783Y531703D01*
X503690Y531720D01*
X503596Y531733D01*
X503502Y531742D01*
X503408Y531748D01*
X503313Y531750D01*
X503313Y531749D02*
X503205Y531747D01*
X503096Y531741D01*
X502988Y531731D01*
X502881Y531718D01*
X502774Y531700D01*
X502667Y531679D01*
X502562Y531654D01*
X502457Y531625D01*
X502354Y531593D01*
X502252Y531556D01*
X502151Y531516D01*
X502052Y531473D01*
X501954Y531426D01*
X501858Y531375D01*
X501764Y531321D01*
X501672Y531264D01*
X501582Y531203D01*
X501494Y531139D01*
X501409Y531073D01*
X501326Y531003D01*
X501246Y530930D01*
X501168Y530854D01*
X501093Y530776D01*
X501021Y530695D01*
X500952Y530611D01*
X500886Y530525D01*
X500823Y530437D01*
X500764Y530346D01*
X500707Y530254D01*
X500654Y530159D01*
X500605Y530063D01*
X500559Y529964D01*
X500516Y529865D01*
X500477Y529763D01*
X500442Y529661D01*
X504880Y527572D02*
X504949Y527641D01*
X505015Y527712D01*
X505079Y527785D01*
X505140Y527861D01*
X505198Y527940D01*
X505252Y528020D01*
X505304Y528103D01*
X505352Y528187D01*
X505398Y528273D01*
X505439Y528361D01*
X505478Y528451D01*
X505513Y528542D01*
X505544Y528634D01*
X505572Y528727D01*
X505596Y528821D01*
X505616Y528916D01*
X505633Y529012D01*
X505646Y529109D01*
X505655Y529206D01*
X505661Y529303D01*
X505663Y529400D01*
X504879Y527572D02*
X500441Y522351D01*
X505662Y522351D01*
X334391Y527431D02*
X334391Y536829D01*
X334391Y527431D02*
X337002Y527431D01*
X337079Y527433D01*
X337155Y527439D01*
X337232Y527448D01*
X337308Y527461D01*
X337383Y527478D01*
X337457Y527498D01*
X337530Y527523D01*
X337601Y527550D01*
X337672Y527581D01*
X337740Y527616D01*
X337807Y527654D01*
X337872Y527695D01*
X337935Y527739D01*
X337995Y527786D01*
X338054Y527837D01*
X338109Y527890D01*
X338162Y527945D01*
X338213Y528004D01*
X338260Y528064D01*
X338304Y528127D01*
X338345Y528192D01*
X338383Y528259D01*
X338418Y528327D01*
X338449Y528398D01*
X338476Y528469D01*
X338501Y528542D01*
X338521Y528616D01*
X338538Y528691D01*
X338551Y528767D01*
X338560Y528843D01*
X338566Y528920D01*
X338568Y528997D01*
X338568Y532130D01*
X338566Y532207D01*
X338560Y532283D01*
X338551Y532360D01*
X338538Y532436D01*
X338521Y532511D01*
X338501Y532585D01*
X338476Y532658D01*
X338449Y532729D01*
X338418Y532800D01*
X338383Y532868D01*
X338345Y532935D01*
X338304Y533000D01*
X338260Y533063D01*
X338213Y533123D01*
X338162Y533182D01*
X338109Y533237D01*
X338054Y533290D01*
X337995Y533341D01*
X337935Y533388D01*
X337872Y533432D01*
X337807Y533473D01*
X337740Y533511D01*
X337672Y533546D01*
X337601Y533577D01*
X337530Y533604D01*
X337457Y533629D01*
X337383Y533649D01*
X337308Y533666D01*
X337232Y533679D01*
X337155Y533688D01*
X337079Y533694D01*
X337002Y533696D01*
X334391Y533696D01*
X341965Y524298D02*
X343010Y524298D01*
X346142Y533696D01*
X341965Y533696D02*
X344054Y527431D01*
X358593Y527431D02*
X358593Y536829D01*
X358593Y527431D02*
X355983Y527431D01*
X355906Y527433D01*
X355830Y527439D01*
X355753Y527448D01*
X355677Y527461D01*
X355602Y527478D01*
X355528Y527498D01*
X355455Y527523D01*
X355384Y527550D01*
X355313Y527581D01*
X355245Y527616D01*
X355178Y527654D01*
X355113Y527695D01*
X355050Y527739D01*
X354990Y527786D01*
X354931Y527837D01*
X354876Y527890D01*
X354823Y527945D01*
X354772Y528004D01*
X354725Y528064D01*
X354681Y528127D01*
X354640Y528192D01*
X354602Y528259D01*
X354567Y528327D01*
X354536Y528398D01*
X354509Y528469D01*
X354484Y528542D01*
X354464Y528616D01*
X354447Y528691D01*
X354434Y528767D01*
X354425Y528844D01*
X354419Y528920D01*
X354417Y528997D01*
X354416Y528997D02*
X354416Y532130D01*
X354417Y532130D02*
X354419Y532207D01*
X354425Y532283D01*
X354434Y532360D01*
X354447Y532436D01*
X354464Y532511D01*
X354484Y532585D01*
X354509Y532658D01*
X354536Y532729D01*
X354567Y532800D01*
X354602Y532868D01*
X354640Y532935D01*
X354681Y533000D01*
X354725Y533063D01*
X354772Y533123D01*
X354823Y533182D01*
X354876Y533237D01*
X354931Y533290D01*
X354990Y533341D01*
X355050Y533388D01*
X355113Y533432D01*
X355178Y533473D01*
X355245Y533511D01*
X355313Y533546D01*
X355384Y533577D01*
X355455Y533604D01*
X355528Y533629D01*
X355602Y533649D01*
X355677Y533666D01*
X355753Y533679D01*
X355830Y533688D01*
X355906Y533694D01*
X355983Y533696D01*
X358593Y533696D01*
X361923Y533696D02*
X365055Y533696D01*
X362967Y536829D02*
X362967Y528997D01*
X362969Y528920D01*
X362975Y528844D01*
X362984Y528767D01*
X362997Y528691D01*
X363014Y528616D01*
X363034Y528542D01*
X363059Y528469D01*
X363086Y528398D01*
X363117Y528327D01*
X363152Y528259D01*
X363190Y528192D01*
X363231Y528127D01*
X363275Y528064D01*
X363322Y528004D01*
X363373Y527945D01*
X363426Y527890D01*
X363481Y527837D01*
X363540Y527786D01*
X363600Y527739D01*
X363663Y527695D01*
X363728Y527654D01*
X363795Y527616D01*
X363863Y527581D01*
X363934Y527550D01*
X364005Y527523D01*
X364078Y527498D01*
X364152Y527478D01*
X364227Y527461D01*
X364303Y527448D01*
X364380Y527439D01*
X364456Y527433D01*
X364533Y527431D01*
X365055Y527431D01*
X368483Y529519D02*
X368483Y531608D01*
X368485Y531698D01*
X368491Y531787D01*
X368500Y531877D01*
X368514Y531966D01*
X368531Y532054D01*
X368552Y532141D01*
X368577Y532228D01*
X368606Y532313D01*
X368638Y532397D01*
X368673Y532479D01*
X368713Y532560D01*
X368755Y532639D01*
X368801Y532716D01*
X368851Y532791D01*
X368903Y532864D01*
X368959Y532935D01*
X369017Y533003D01*
X369079Y533068D01*
X369143Y533131D01*
X369210Y533191D01*
X369279Y533248D01*
X369351Y533302D01*
X369425Y533353D01*
X369501Y533401D01*
X369579Y533445D01*
X369659Y533486D01*
X369741Y533524D01*
X369824Y533558D01*
X369909Y533588D01*
X369995Y533615D01*
X370081Y533638D01*
X370169Y533657D01*
X370258Y533672D01*
X370347Y533684D01*
X370436Y533692D01*
X370526Y533696D01*
X370616Y533696D01*
X370706Y533692D01*
X370795Y533684D01*
X370884Y533672D01*
X370973Y533657D01*
X371061Y533638D01*
X371147Y533615D01*
X371233Y533588D01*
X371318Y533558D01*
X371401Y533524D01*
X371483Y533486D01*
X371563Y533445D01*
X371641Y533401D01*
X371717Y533353D01*
X371791Y533302D01*
X371863Y533248D01*
X371932Y533191D01*
X371999Y533131D01*
X372063Y533068D01*
X372125Y533003D01*
X372183Y532935D01*
X372239Y532864D01*
X372291Y532791D01*
X372341Y532716D01*
X372387Y532639D01*
X372429Y532560D01*
X372469Y532479D01*
X372504Y532397D01*
X372536Y532313D01*
X372565Y532228D01*
X372590Y532141D01*
X372611Y532054D01*
X372628Y531966D01*
X372642Y531877D01*
X372651Y531787D01*
X372657Y531698D01*
X372659Y531608D01*
X372660Y531608D02*
X372660Y529519D01*
X372659Y529519D02*
X372657Y529429D01*
X372651Y529340D01*
X372642Y529250D01*
X372628Y529161D01*
X372611Y529073D01*
X372590Y528986D01*
X372565Y528899D01*
X372536Y528814D01*
X372504Y528730D01*
X372469Y528648D01*
X372429Y528567D01*
X372387Y528488D01*
X372341Y528411D01*
X372291Y528336D01*
X372239Y528263D01*
X372183Y528192D01*
X372125Y528124D01*
X372063Y528059D01*
X371999Y527996D01*
X371932Y527936D01*
X371863Y527879D01*
X371791Y527825D01*
X371717Y527774D01*
X371641Y527726D01*
X371563Y527682D01*
X371483Y527641D01*
X371401Y527603D01*
X371318Y527569D01*
X371233Y527539D01*
X371147Y527512D01*
X371061Y527489D01*
X370973Y527470D01*
X370884Y527455D01*
X370795Y527443D01*
X370706Y527435D01*
X370616Y527431D01*
X370526Y527431D01*
X370436Y527435D01*
X370347Y527443D01*
X370258Y527455D01*
X370169Y527470D01*
X370081Y527489D01*
X369995Y527512D01*
X369909Y527539D01*
X369824Y527569D01*
X369741Y527603D01*
X369659Y527641D01*
X369579Y527682D01*
X369501Y527726D01*
X369425Y527774D01*
X369351Y527825D01*
X369279Y527879D01*
X369210Y527936D01*
X369143Y527996D01*
X369079Y528059D01*
X369017Y528124D01*
X368959Y528192D01*
X368903Y528263D01*
X368851Y528336D01*
X368801Y528411D01*
X368755Y528488D01*
X368713Y528567D01*
X368673Y528648D01*
X368638Y528730D01*
X368606Y528814D01*
X368577Y528899D01*
X368552Y528986D01*
X368531Y529073D01*
X368514Y529161D01*
X368500Y529250D01*
X368491Y529340D01*
X368485Y529429D01*
X368483Y529519D01*
X376887Y527431D02*
X376887Y533696D01*
X381586Y533696D01*
X381663Y533694D01*
X381739Y533688D01*
X381816Y533679D01*
X381892Y533666D01*
X381967Y533649D01*
X382041Y533629D01*
X382114Y533604D01*
X382185Y533577D01*
X382256Y533546D01*
X382324Y533511D01*
X382391Y533473D01*
X382456Y533432D01*
X382519Y533388D01*
X382579Y533341D01*
X382638Y533290D01*
X382693Y533237D01*
X382746Y533182D01*
X382797Y533123D01*
X382844Y533063D01*
X382888Y533000D01*
X382929Y532935D01*
X382967Y532868D01*
X383002Y532800D01*
X383033Y532729D01*
X383060Y532658D01*
X383085Y532585D01*
X383105Y532511D01*
X383122Y532436D01*
X383135Y532360D01*
X383144Y532283D01*
X383150Y532207D01*
X383152Y532130D01*
X383153Y532130D02*
X383153Y527431D01*
X380020Y527431D02*
X380020Y533696D01*
X388957Y527431D02*
X391045Y527431D01*
X388957Y527431D02*
X388880Y527433D01*
X388804Y527439D01*
X388727Y527448D01*
X388651Y527461D01*
X388576Y527478D01*
X388502Y527498D01*
X388429Y527523D01*
X388358Y527550D01*
X388287Y527581D01*
X388219Y527616D01*
X388152Y527654D01*
X388087Y527695D01*
X388024Y527739D01*
X387964Y527786D01*
X387905Y527837D01*
X387850Y527890D01*
X387797Y527945D01*
X387746Y528004D01*
X387699Y528064D01*
X387655Y528127D01*
X387614Y528192D01*
X387576Y528259D01*
X387541Y528327D01*
X387510Y528398D01*
X387483Y528469D01*
X387458Y528542D01*
X387438Y528616D01*
X387421Y528691D01*
X387408Y528767D01*
X387399Y528844D01*
X387393Y528920D01*
X387391Y528997D01*
X387390Y528997D02*
X387390Y532130D01*
X387391Y532130D02*
X387393Y532207D01*
X387399Y532283D01*
X387408Y532360D01*
X387421Y532436D01*
X387438Y532511D01*
X387458Y532585D01*
X387483Y532658D01*
X387510Y532729D01*
X387541Y532800D01*
X387576Y532868D01*
X387614Y532935D01*
X387655Y533000D01*
X387699Y533063D01*
X387746Y533123D01*
X387797Y533182D01*
X387850Y533237D01*
X387905Y533290D01*
X387964Y533341D01*
X388024Y533388D01*
X388087Y533432D01*
X388152Y533473D01*
X388219Y533511D01*
X388287Y533546D01*
X388358Y533577D01*
X388429Y533604D01*
X388502Y533629D01*
X388576Y533649D01*
X388651Y533666D01*
X388727Y533679D01*
X388804Y533688D01*
X388880Y533694D01*
X388957Y533696D01*
X391045Y533696D01*
X396172Y531086D02*
X398522Y531086D01*
X396172Y531085D02*
X396088Y531083D01*
X396003Y531077D01*
X395920Y531067D01*
X395836Y531054D01*
X395754Y531036D01*
X395672Y531015D01*
X395591Y530990D01*
X395512Y530962D01*
X395434Y530929D01*
X395358Y530893D01*
X395283Y530854D01*
X395210Y530811D01*
X395139Y530765D01*
X395071Y530716D01*
X395005Y530664D01*
X394941Y530608D01*
X394880Y530550D01*
X394822Y530489D01*
X394766Y530425D01*
X394714Y530359D01*
X394665Y530291D01*
X394619Y530220D01*
X394576Y530147D01*
X394537Y530072D01*
X394501Y529996D01*
X394468Y529918D01*
X394440Y529839D01*
X394415Y529758D01*
X394394Y529676D01*
X394376Y529594D01*
X394363Y529510D01*
X394353Y529427D01*
X394347Y529342D01*
X394345Y529258D01*
X394347Y529174D01*
X394353Y529089D01*
X394363Y529006D01*
X394376Y528922D01*
X394394Y528840D01*
X394415Y528758D01*
X394440Y528677D01*
X394468Y528598D01*
X394501Y528520D01*
X394537Y528444D01*
X394576Y528369D01*
X394619Y528296D01*
X394665Y528225D01*
X394714Y528157D01*
X394766Y528091D01*
X394822Y528027D01*
X394880Y527966D01*
X394941Y527908D01*
X395005Y527852D01*
X395071Y527800D01*
X395139Y527751D01*
X395210Y527705D01*
X395283Y527662D01*
X395358Y527623D01*
X395434Y527587D01*
X395512Y527554D01*
X395591Y527526D01*
X395672Y527501D01*
X395754Y527480D01*
X395836Y527462D01*
X395920Y527449D01*
X396003Y527439D01*
X396088Y527433D01*
X396172Y527431D01*
X398522Y527431D01*
X398522Y532130D01*
X398521Y532130D02*
X398519Y532207D01*
X398513Y532283D01*
X398504Y532360D01*
X398491Y532436D01*
X398474Y532511D01*
X398454Y532585D01*
X398429Y532658D01*
X398402Y532729D01*
X398371Y532800D01*
X398336Y532868D01*
X398298Y532935D01*
X398257Y533000D01*
X398213Y533063D01*
X398166Y533123D01*
X398115Y533182D01*
X398062Y533237D01*
X398007Y533290D01*
X397948Y533341D01*
X397888Y533388D01*
X397825Y533432D01*
X397760Y533473D01*
X397693Y533511D01*
X397625Y533546D01*
X397554Y533577D01*
X397483Y533604D01*
X397410Y533629D01*
X397336Y533649D01*
X397261Y533666D01*
X397185Y533679D01*
X397108Y533688D01*
X397032Y533694D01*
X396955Y533696D01*
X394867Y533696D01*
X401851Y533696D02*
X404984Y533696D01*
X402896Y536829D02*
X402896Y528997D01*
X402898Y528920D01*
X402904Y528844D01*
X402913Y528767D01*
X402926Y528691D01*
X402943Y528616D01*
X402963Y528542D01*
X402988Y528469D01*
X403015Y528398D01*
X403046Y528327D01*
X403081Y528259D01*
X403119Y528192D01*
X403160Y528127D01*
X403204Y528064D01*
X403251Y528004D01*
X403302Y527945D01*
X403355Y527890D01*
X403410Y527837D01*
X403469Y527786D01*
X403529Y527739D01*
X403592Y527695D01*
X403657Y527654D01*
X403724Y527616D01*
X403792Y527581D01*
X403863Y527550D01*
X403934Y527523D01*
X404007Y527498D01*
X404081Y527478D01*
X404156Y527461D01*
X404232Y527448D01*
X404309Y527439D01*
X404385Y527433D01*
X404462Y527431D01*
X404984Y527431D01*
X21630Y615846D02*
X21630Y619120D01*
X21630Y615846D02*
X14264Y615846D01*
X14264Y619120D01*
X17538Y618301D02*
X17538Y615846D01*
X14264Y622221D02*
X21630Y622221D01*
X14264Y622221D02*
X14264Y624268D01*
X14266Y624357D01*
X14272Y624446D01*
X14282Y624535D01*
X14295Y624623D01*
X14312Y624711D01*
X14334Y624798D01*
X14359Y624883D01*
X14387Y624968D01*
X14420Y625051D01*
X14456Y625133D01*
X14495Y625213D01*
X14538Y625291D01*
X14584Y625367D01*
X14634Y625442D01*
X14687Y625514D01*
X14743Y625583D01*
X14802Y625650D01*
X14863Y625715D01*
X14928Y625776D01*
X14995Y625835D01*
X15064Y625891D01*
X15136Y625944D01*
X15211Y625994D01*
X15287Y626040D01*
X15365Y626083D01*
X15445Y626122D01*
X15527Y626158D01*
X15610Y626191D01*
X15695Y626219D01*
X15780Y626244D01*
X15867Y626266D01*
X15955Y626283D01*
X16043Y626296D01*
X16132Y626306D01*
X16221Y626312D01*
X16310Y626314D01*
X16399Y626312D01*
X16488Y626306D01*
X16577Y626296D01*
X16665Y626283D01*
X16753Y626266D01*
X16840Y626244D01*
X16925Y626219D01*
X17010Y626191D01*
X17093Y626158D01*
X17175Y626122D01*
X17255Y626083D01*
X17333Y626040D01*
X17409Y625994D01*
X17484Y625944D01*
X17556Y625891D01*
X17625Y625835D01*
X17692Y625776D01*
X17757Y625715D01*
X17818Y625650D01*
X17877Y625583D01*
X17933Y625514D01*
X17986Y625442D01*
X18036Y625367D01*
X18082Y625291D01*
X18125Y625213D01*
X18164Y625133D01*
X18200Y625051D01*
X18233Y624968D01*
X18261Y624883D01*
X18286Y624798D01*
X18308Y624711D01*
X18325Y624623D01*
X18338Y624535D01*
X18348Y624446D01*
X18354Y624357D01*
X18356Y624268D01*
X18356Y622221D01*
X18356Y624677D02*
X21630Y626314D01*
X21630Y629780D02*
X14264Y629780D01*
X14264Y631827D01*
X14266Y631916D01*
X14272Y632005D01*
X14282Y632094D01*
X14295Y632182D01*
X14312Y632270D01*
X14334Y632357D01*
X14359Y632442D01*
X14387Y632527D01*
X14420Y632610D01*
X14456Y632692D01*
X14495Y632772D01*
X14538Y632850D01*
X14584Y632926D01*
X14634Y633001D01*
X14687Y633073D01*
X14743Y633142D01*
X14802Y633209D01*
X14863Y633274D01*
X14928Y633335D01*
X14995Y633394D01*
X15064Y633450D01*
X15136Y633503D01*
X15211Y633553D01*
X15287Y633599D01*
X15365Y633642D01*
X15445Y633681D01*
X15527Y633717D01*
X15610Y633750D01*
X15695Y633778D01*
X15780Y633803D01*
X15867Y633825D01*
X15955Y633842D01*
X16043Y633855D01*
X16132Y633865D01*
X16221Y633871D01*
X16310Y633873D01*
X16399Y633871D01*
X16488Y633865D01*
X16577Y633855D01*
X16665Y633842D01*
X16753Y633825D01*
X16840Y633803D01*
X16925Y633778D01*
X17010Y633750D01*
X17093Y633717D01*
X17175Y633681D01*
X17255Y633642D01*
X17333Y633599D01*
X17409Y633553D01*
X17484Y633503D01*
X17556Y633450D01*
X17625Y633394D01*
X17692Y633335D01*
X17757Y633274D01*
X17818Y633209D01*
X17877Y633142D01*
X17933Y633073D01*
X17986Y633001D01*
X18036Y632926D01*
X18082Y632850D01*
X18125Y632772D01*
X18164Y632692D01*
X18200Y632610D01*
X18233Y632527D01*
X18261Y632442D01*
X18286Y632357D01*
X18308Y632270D01*
X18325Y632182D01*
X18338Y632094D01*
X18348Y632005D01*
X18354Y631916D01*
X18356Y631827D01*
X18356Y629780D01*
X18356Y632236D02*
X21630Y633873D01*
X19584Y637044D02*
X16310Y637044D01*
X16310Y637045D02*
X16221Y637047D01*
X16132Y637053D01*
X16043Y637063D01*
X15955Y637076D01*
X15867Y637093D01*
X15780Y637115D01*
X15695Y637140D01*
X15610Y637168D01*
X15527Y637201D01*
X15445Y637237D01*
X15365Y637276D01*
X15287Y637319D01*
X15211Y637365D01*
X15136Y637415D01*
X15064Y637468D01*
X14995Y637524D01*
X14928Y637583D01*
X14863Y637644D01*
X14802Y637709D01*
X14743Y637776D01*
X14687Y637845D01*
X14634Y637917D01*
X14584Y637992D01*
X14538Y638068D01*
X14495Y638146D01*
X14456Y638226D01*
X14420Y638308D01*
X14387Y638391D01*
X14359Y638476D01*
X14334Y638561D01*
X14312Y638648D01*
X14295Y638736D01*
X14282Y638824D01*
X14272Y638913D01*
X14266Y639002D01*
X14264Y639091D01*
X14266Y639180D01*
X14272Y639269D01*
X14282Y639358D01*
X14295Y639446D01*
X14312Y639534D01*
X14334Y639621D01*
X14359Y639706D01*
X14387Y639791D01*
X14420Y639874D01*
X14456Y639956D01*
X14495Y640036D01*
X14538Y640114D01*
X14584Y640190D01*
X14634Y640265D01*
X14687Y640337D01*
X14743Y640406D01*
X14802Y640473D01*
X14863Y640538D01*
X14928Y640599D01*
X14995Y640658D01*
X15064Y640714D01*
X15136Y640767D01*
X15211Y640817D01*
X15287Y640863D01*
X15365Y640906D01*
X15445Y640945D01*
X15527Y640981D01*
X15610Y641014D01*
X15695Y641042D01*
X15780Y641067D01*
X15867Y641089D01*
X15955Y641106D01*
X16043Y641119D01*
X16132Y641129D01*
X16221Y641135D01*
X16310Y641137D01*
X19584Y641137D01*
X19673Y641135D01*
X19762Y641129D01*
X19851Y641119D01*
X19939Y641106D01*
X20027Y641089D01*
X20114Y641067D01*
X20199Y641042D01*
X20284Y641014D01*
X20367Y640981D01*
X20449Y640945D01*
X20529Y640906D01*
X20607Y640863D01*
X20683Y640817D01*
X20758Y640767D01*
X20830Y640714D01*
X20899Y640658D01*
X20966Y640599D01*
X21031Y640538D01*
X21092Y640473D01*
X21151Y640406D01*
X21207Y640337D01*
X21260Y640265D01*
X21310Y640190D01*
X21356Y640114D01*
X21399Y640036D01*
X21438Y639956D01*
X21474Y639874D01*
X21507Y639791D01*
X21535Y639706D01*
X21560Y639621D01*
X21582Y639534D01*
X21599Y639446D01*
X21612Y639358D01*
X21622Y639269D01*
X21628Y639180D01*
X21630Y639091D01*
X21628Y639002D01*
X21622Y638913D01*
X21612Y638824D01*
X21599Y638736D01*
X21582Y638648D01*
X21560Y638561D01*
X21535Y638476D01*
X21507Y638391D01*
X21474Y638308D01*
X21438Y638226D01*
X21399Y638146D01*
X21356Y638068D01*
X21310Y637992D01*
X21260Y637917D01*
X21207Y637845D01*
X21151Y637776D01*
X21092Y637709D01*
X21031Y637644D01*
X20966Y637583D01*
X20899Y637524D01*
X20830Y637468D01*
X20758Y637415D01*
X20683Y637365D01*
X20607Y637319D01*
X20529Y637276D01*
X20449Y637237D01*
X20367Y637201D01*
X20284Y637168D01*
X20199Y637140D01*
X20114Y637115D01*
X20027Y637093D01*
X19939Y637076D01*
X19851Y637063D01*
X19762Y637053D01*
X19673Y637047D01*
X19584Y637045D01*
X21630Y644655D02*
X14264Y644655D01*
X14264Y646701D01*
X14266Y646790D01*
X14272Y646879D01*
X14282Y646968D01*
X14295Y647056D01*
X14312Y647144D01*
X14334Y647231D01*
X14359Y647316D01*
X14387Y647401D01*
X14420Y647484D01*
X14456Y647566D01*
X14495Y647646D01*
X14538Y647724D01*
X14584Y647800D01*
X14634Y647875D01*
X14687Y647947D01*
X14743Y648016D01*
X14802Y648083D01*
X14863Y648148D01*
X14928Y648209D01*
X14995Y648268D01*
X15064Y648324D01*
X15136Y648377D01*
X15211Y648427D01*
X15287Y648473D01*
X15365Y648516D01*
X15445Y648555D01*
X15527Y648591D01*
X15610Y648624D01*
X15695Y648652D01*
X15780Y648677D01*
X15867Y648699D01*
X15955Y648716D01*
X16043Y648729D01*
X16132Y648739D01*
X16221Y648745D01*
X16310Y648747D01*
X16399Y648745D01*
X16488Y648739D01*
X16577Y648729D01*
X16665Y648716D01*
X16753Y648699D01*
X16840Y648677D01*
X16925Y648652D01*
X17010Y648624D01*
X17093Y648591D01*
X17175Y648555D01*
X17255Y648516D01*
X17333Y648473D01*
X17409Y648427D01*
X17484Y648377D01*
X17556Y648324D01*
X17625Y648268D01*
X17692Y648209D01*
X17757Y648148D01*
X17818Y648083D01*
X17877Y648016D01*
X17933Y647947D01*
X17986Y647875D01*
X18036Y647800D01*
X18082Y647724D01*
X18125Y647646D01*
X18164Y647566D01*
X18200Y647484D01*
X18233Y647401D01*
X18261Y647316D01*
X18286Y647231D01*
X18308Y647144D01*
X18325Y647056D01*
X18338Y646968D01*
X18348Y646879D01*
X18354Y646790D01*
X18356Y646701D01*
X18356Y644655D01*
X18356Y647110D02*
X21630Y648747D01*
X19584Y685266D02*
X16310Y685266D01*
X16221Y685268D01*
X16132Y685274D01*
X16043Y685284D01*
X15955Y685297D01*
X15867Y685314D01*
X15780Y685336D01*
X15695Y685361D01*
X15610Y685389D01*
X15527Y685422D01*
X15445Y685458D01*
X15365Y685497D01*
X15287Y685540D01*
X15211Y685586D01*
X15136Y685636D01*
X15064Y685689D01*
X14995Y685745D01*
X14928Y685804D01*
X14863Y685865D01*
X14802Y685930D01*
X14743Y685997D01*
X14687Y686066D01*
X14634Y686138D01*
X14584Y686213D01*
X14538Y686289D01*
X14495Y686367D01*
X14456Y686447D01*
X14420Y686529D01*
X14387Y686612D01*
X14359Y686697D01*
X14334Y686782D01*
X14312Y686869D01*
X14295Y686957D01*
X14282Y687045D01*
X14272Y687134D01*
X14266Y687223D01*
X14264Y687312D01*
X14266Y687401D01*
X14272Y687490D01*
X14282Y687579D01*
X14295Y687667D01*
X14312Y687755D01*
X14334Y687842D01*
X14359Y687927D01*
X14387Y688012D01*
X14420Y688095D01*
X14456Y688177D01*
X14495Y688257D01*
X14538Y688335D01*
X14584Y688411D01*
X14634Y688486D01*
X14687Y688558D01*
X14743Y688627D01*
X14802Y688694D01*
X14863Y688759D01*
X14928Y688820D01*
X14995Y688879D01*
X15064Y688935D01*
X15136Y688988D01*
X15211Y689038D01*
X15287Y689084D01*
X15365Y689127D01*
X15445Y689166D01*
X15527Y689202D01*
X15610Y689235D01*
X15695Y689263D01*
X15780Y689288D01*
X15867Y689310D01*
X15955Y689327D01*
X16043Y689340D01*
X16132Y689350D01*
X16221Y689356D01*
X16310Y689358D01*
X19584Y689358D01*
X19673Y689356D01*
X19762Y689350D01*
X19851Y689340D01*
X19939Y689327D01*
X20027Y689310D01*
X20114Y689288D01*
X20199Y689263D01*
X20284Y689235D01*
X20367Y689202D01*
X20449Y689166D01*
X20529Y689127D01*
X20607Y689084D01*
X20683Y689038D01*
X20758Y688988D01*
X20830Y688935D01*
X20899Y688879D01*
X20966Y688820D01*
X21031Y688759D01*
X21092Y688694D01*
X21151Y688627D01*
X21207Y688558D01*
X21260Y688486D01*
X21310Y688411D01*
X21356Y688335D01*
X21399Y688257D01*
X21438Y688177D01*
X21474Y688095D01*
X21507Y688012D01*
X21535Y687927D01*
X21560Y687842D01*
X21582Y687755D01*
X21599Y687667D01*
X21612Y687579D01*
X21622Y687490D01*
X21628Y687401D01*
X21630Y687312D01*
X21628Y687223D01*
X21622Y687134D01*
X21612Y687045D01*
X21599Y686957D01*
X21582Y686869D01*
X21560Y686782D01*
X21535Y686697D01*
X21507Y686612D01*
X21474Y686529D01*
X21438Y686447D01*
X21399Y686367D01*
X21356Y686289D01*
X21310Y686213D01*
X21260Y686138D01*
X21207Y686066D01*
X21151Y685997D01*
X21092Y685930D01*
X21031Y685865D01*
X20966Y685804D01*
X20899Y685745D01*
X20830Y685689D01*
X20758Y685636D01*
X20683Y685586D01*
X20607Y685540D01*
X20529Y685497D01*
X20449Y685458D01*
X20367Y685422D01*
X20284Y685389D01*
X20199Y685361D01*
X20114Y685336D01*
X20027Y685314D01*
X19939Y685297D01*
X19851Y685284D01*
X19762Y685274D01*
X19673Y685268D01*
X19584Y685266D01*
X21630Y692943D02*
X14264Y692943D01*
X14264Y697035D02*
X18766Y692943D01*
X17129Y694579D02*
X21630Y697035D01*
D10*
X321560Y718820D02*
X321560Y726440D01*
X308360Y726190D02*
X308360Y718820D01*
D13*
X314972Y729802D03*
X314972Y715324D03*
D12*
X313991Y693293D02*
X312355Y693293D01*
X312277Y693295D01*
X312199Y693300D01*
X312122Y693310D01*
X312045Y693323D01*
X311969Y693339D01*
X311894Y693359D01*
X311820Y693383D01*
X311747Y693410D01*
X311675Y693441D01*
X311605Y693475D01*
X311537Y693512D01*
X311470Y693553D01*
X311405Y693597D01*
X311343Y693643D01*
X311283Y693693D01*
X311225Y693745D01*
X311170Y693800D01*
X311118Y693858D01*
X311068Y693918D01*
X311022Y693980D01*
X310978Y694045D01*
X310937Y694112D01*
X310900Y694180D01*
X310866Y694250D01*
X310835Y694322D01*
X310808Y694395D01*
X310784Y694469D01*
X310764Y694544D01*
X310748Y694620D01*
X310735Y694697D01*
X310725Y694774D01*
X310720Y694852D01*
X310718Y694930D01*
X310718Y699022D01*
X310720Y699102D01*
X310726Y699182D01*
X310736Y699262D01*
X310749Y699341D01*
X310767Y699420D01*
X310788Y699497D01*
X310814Y699573D01*
X310843Y699648D01*
X310875Y699722D01*
X310911Y699794D01*
X310951Y699864D01*
X310994Y699931D01*
X311040Y699997D01*
X311090Y700060D01*
X311142Y700121D01*
X311197Y700180D01*
X311256Y700235D01*
X311316Y700287D01*
X311380Y700337D01*
X311446Y700383D01*
X311513Y700426D01*
X311583Y700466D01*
X311655Y700502D01*
X311729Y700534D01*
X311803Y700563D01*
X311880Y700589D01*
X311957Y700610D01*
X312036Y700628D01*
X312115Y700641D01*
X312195Y700651D01*
X312275Y700657D01*
X312355Y700659D01*
X313991Y700659D01*
X316837Y699022D02*
X318883Y700659D01*
X318883Y693293D01*
X316837Y693293D02*
X320929Y693293D01*
D10*
X273300Y718820D02*
X273300Y726440D01*
X260100Y726190D02*
X260100Y718820D01*
D13*
X266712Y729802D03*
X266712Y715324D03*
D12*
X265731Y693293D02*
X264095Y693293D01*
X264017Y693295D01*
X263939Y693300D01*
X263862Y693310D01*
X263785Y693323D01*
X263709Y693339D01*
X263634Y693359D01*
X263560Y693383D01*
X263487Y693410D01*
X263415Y693441D01*
X263345Y693475D01*
X263277Y693512D01*
X263210Y693553D01*
X263145Y693597D01*
X263083Y693643D01*
X263023Y693693D01*
X262965Y693745D01*
X262910Y693800D01*
X262858Y693858D01*
X262808Y693918D01*
X262762Y693980D01*
X262718Y694045D01*
X262677Y694112D01*
X262640Y694180D01*
X262606Y694250D01*
X262575Y694322D01*
X262548Y694395D01*
X262524Y694469D01*
X262504Y694544D01*
X262488Y694620D01*
X262475Y694697D01*
X262465Y694774D01*
X262460Y694852D01*
X262458Y694930D01*
X262458Y699022D01*
X262460Y699102D01*
X262466Y699182D01*
X262476Y699262D01*
X262489Y699341D01*
X262507Y699420D01*
X262528Y699497D01*
X262554Y699573D01*
X262583Y699648D01*
X262615Y699722D01*
X262651Y699794D01*
X262691Y699864D01*
X262734Y699931D01*
X262780Y699997D01*
X262830Y700060D01*
X262882Y700121D01*
X262937Y700180D01*
X262996Y700235D01*
X263056Y700287D01*
X263120Y700337D01*
X263186Y700383D01*
X263253Y700426D01*
X263323Y700466D01*
X263395Y700502D01*
X263469Y700534D01*
X263543Y700563D01*
X263620Y700589D01*
X263697Y700610D01*
X263776Y700628D01*
X263855Y700641D01*
X263935Y700651D01*
X264015Y700657D01*
X264095Y700659D01*
X265731Y700659D01*
X270828Y700660D02*
X270913Y700658D01*
X270998Y700652D01*
X271082Y700642D01*
X271166Y700629D01*
X271250Y700611D01*
X271332Y700590D01*
X271413Y700565D01*
X271493Y700536D01*
X271572Y700503D01*
X271649Y700467D01*
X271724Y700427D01*
X271798Y700384D01*
X271869Y700338D01*
X271938Y700288D01*
X272005Y700235D01*
X272069Y700179D01*
X272130Y700120D01*
X272189Y700059D01*
X272245Y699995D01*
X272298Y699928D01*
X272348Y699859D01*
X272394Y699788D01*
X272437Y699714D01*
X272477Y699639D01*
X272513Y699562D01*
X272546Y699483D01*
X272575Y699403D01*
X272600Y699322D01*
X272621Y699240D01*
X272639Y699156D01*
X272652Y699072D01*
X272662Y698988D01*
X272668Y698903D01*
X272670Y698818D01*
X270828Y700659D02*
X270732Y700657D01*
X270636Y700651D01*
X270541Y700641D01*
X270446Y700628D01*
X270351Y700610D01*
X270258Y700589D01*
X270165Y700564D01*
X270074Y700535D01*
X269983Y700503D01*
X269894Y700467D01*
X269807Y700427D01*
X269721Y700384D01*
X269637Y700338D01*
X269555Y700288D01*
X269475Y700234D01*
X269398Y700178D01*
X269323Y700118D01*
X269250Y700056D01*
X269180Y699990D01*
X269112Y699922D01*
X269047Y699851D01*
X268986Y699778D01*
X268927Y699702D01*
X268871Y699623D01*
X268819Y699543D01*
X268770Y699460D01*
X268724Y699376D01*
X268682Y699290D01*
X268644Y699202D01*
X268609Y699113D01*
X268577Y699022D01*
X272055Y697386D02*
X272115Y697445D01*
X272172Y697507D01*
X272227Y697571D01*
X272278Y697638D01*
X272327Y697707D01*
X272373Y697777D01*
X272416Y697850D01*
X272456Y697924D01*
X272492Y698000D01*
X272525Y698078D01*
X272555Y698157D01*
X272582Y698237D01*
X272605Y698318D01*
X272624Y698400D01*
X272640Y698482D01*
X272653Y698566D01*
X272662Y698650D01*
X272667Y698734D01*
X272669Y698818D01*
X272055Y697385D02*
X268577Y693293D01*
X272669Y693293D01*
D10*
X295150Y719070D02*
X295150Y726190D01*
X286640Y726190D02*
X286640Y719070D01*
D14*
X290881Y728512D03*
X290881Y716828D03*
D12*
X289861Y698373D02*
X288225Y698373D01*
X288147Y698375D01*
X288069Y698380D01*
X287992Y698390D01*
X287915Y698403D01*
X287839Y698419D01*
X287764Y698439D01*
X287690Y698463D01*
X287617Y698490D01*
X287545Y698521D01*
X287475Y698555D01*
X287407Y698592D01*
X287340Y698633D01*
X287275Y698677D01*
X287213Y698723D01*
X287153Y698773D01*
X287095Y698825D01*
X287040Y698880D01*
X286988Y698938D01*
X286938Y698998D01*
X286892Y699060D01*
X286848Y699125D01*
X286807Y699192D01*
X286770Y699260D01*
X286736Y699330D01*
X286705Y699402D01*
X286678Y699475D01*
X286654Y699549D01*
X286634Y699624D01*
X286618Y699700D01*
X286605Y699777D01*
X286595Y699854D01*
X286590Y699932D01*
X286588Y700010D01*
X286588Y704102D01*
X286590Y704182D01*
X286596Y704262D01*
X286606Y704342D01*
X286619Y704421D01*
X286637Y704500D01*
X286658Y704577D01*
X286684Y704653D01*
X286713Y704728D01*
X286745Y704802D01*
X286781Y704874D01*
X286821Y704944D01*
X286864Y705011D01*
X286910Y705077D01*
X286960Y705140D01*
X287012Y705201D01*
X287067Y705260D01*
X287126Y705315D01*
X287186Y705367D01*
X287250Y705417D01*
X287316Y705463D01*
X287383Y705506D01*
X287453Y705546D01*
X287525Y705582D01*
X287599Y705614D01*
X287673Y705643D01*
X287750Y705669D01*
X287827Y705690D01*
X287906Y705708D01*
X287985Y705721D01*
X288065Y705731D01*
X288145Y705737D01*
X288225Y705739D01*
X289861Y705739D01*
X292707Y698373D02*
X294753Y698373D01*
X294842Y698375D01*
X294931Y698381D01*
X295020Y698391D01*
X295108Y698404D01*
X295196Y698421D01*
X295283Y698443D01*
X295368Y698468D01*
X295453Y698496D01*
X295536Y698529D01*
X295618Y698565D01*
X295698Y698604D01*
X295776Y698647D01*
X295852Y698693D01*
X295927Y698743D01*
X295999Y698796D01*
X296068Y698852D01*
X296135Y698911D01*
X296200Y698972D01*
X296261Y699037D01*
X296320Y699104D01*
X296376Y699173D01*
X296429Y699245D01*
X296479Y699320D01*
X296525Y699396D01*
X296568Y699474D01*
X296607Y699554D01*
X296643Y699636D01*
X296676Y699719D01*
X296704Y699804D01*
X296729Y699889D01*
X296751Y699976D01*
X296768Y700064D01*
X296781Y700152D01*
X296791Y700241D01*
X296797Y700330D01*
X296799Y700419D01*
X296797Y700508D01*
X296791Y700597D01*
X296781Y700686D01*
X296768Y700774D01*
X296751Y700862D01*
X296729Y700949D01*
X296704Y701034D01*
X296676Y701119D01*
X296643Y701202D01*
X296607Y701284D01*
X296568Y701364D01*
X296525Y701442D01*
X296479Y701518D01*
X296429Y701593D01*
X296376Y701665D01*
X296320Y701734D01*
X296261Y701801D01*
X296200Y701866D01*
X296135Y701927D01*
X296068Y701986D01*
X295999Y702042D01*
X295927Y702095D01*
X295852Y702145D01*
X295776Y702191D01*
X295698Y702234D01*
X295618Y702273D01*
X295536Y702309D01*
X295453Y702342D01*
X295368Y702370D01*
X295283Y702395D01*
X295196Y702417D01*
X295108Y702434D01*
X295020Y702447D01*
X294931Y702457D01*
X294842Y702463D01*
X294753Y702465D01*
X295162Y705739D02*
X292707Y705739D01*
X295162Y705739D02*
X295241Y705737D01*
X295320Y705731D01*
X295399Y705722D01*
X295477Y705709D01*
X295554Y705691D01*
X295630Y705671D01*
X295705Y705646D01*
X295779Y705618D01*
X295852Y705587D01*
X295923Y705551D01*
X295992Y705513D01*
X296059Y705471D01*
X296124Y705426D01*
X296187Y705378D01*
X296248Y705327D01*
X296305Y705273D01*
X296361Y705217D01*
X296413Y705158D01*
X296463Y705096D01*
X296509Y705032D01*
X296553Y704966D01*
X296593Y704898D01*
X296629Y704828D01*
X296663Y704756D01*
X296693Y704682D01*
X296719Y704608D01*
X296742Y704532D01*
X296760Y704455D01*
X296776Y704378D01*
X296787Y704299D01*
X296795Y704221D01*
X296799Y704142D01*
X296799Y704062D01*
X296795Y703983D01*
X296787Y703905D01*
X296776Y703826D01*
X296760Y703749D01*
X296742Y703672D01*
X296719Y703596D01*
X296693Y703522D01*
X296663Y703448D01*
X296629Y703376D01*
X296593Y703306D01*
X296553Y703238D01*
X296509Y703172D01*
X296463Y703108D01*
X296413Y703046D01*
X296361Y702987D01*
X296305Y702931D01*
X296248Y702877D01*
X296187Y702826D01*
X296124Y702778D01*
X296059Y702733D01*
X295992Y702691D01*
X295923Y702653D01*
X295852Y702617D01*
X295779Y702586D01*
X295705Y702558D01*
X295630Y702533D01*
X295554Y702513D01*
X295477Y702495D01*
X295399Y702482D01*
X295320Y702473D01*
X295241Y702467D01*
X295162Y702465D01*
X293525Y702465D01*
D10*
X186690Y625090D02*
X179070Y625090D01*
X179320Y611890D02*
X186690Y611890D01*
D15*
X175709Y618502D03*
X190187Y618502D03*
D12*
X162179Y614525D02*
X162179Y612888D01*
X162177Y612810D01*
X162172Y612732D01*
X162162Y612655D01*
X162149Y612578D01*
X162133Y612502D01*
X162113Y612427D01*
X162089Y612353D01*
X162062Y612280D01*
X162031Y612208D01*
X161997Y612138D01*
X161960Y612070D01*
X161919Y612003D01*
X161875Y611938D01*
X161829Y611876D01*
X161779Y611816D01*
X161727Y611758D01*
X161672Y611703D01*
X161614Y611651D01*
X161554Y611601D01*
X161492Y611555D01*
X161427Y611511D01*
X161361Y611470D01*
X161292Y611433D01*
X161222Y611399D01*
X161150Y611368D01*
X161077Y611341D01*
X161003Y611317D01*
X160928Y611297D01*
X160852Y611281D01*
X160775Y611268D01*
X160698Y611258D01*
X160620Y611253D01*
X160542Y611251D01*
X156450Y611251D01*
X156370Y611253D01*
X156290Y611259D01*
X156210Y611269D01*
X156131Y611282D01*
X156052Y611300D01*
X155975Y611321D01*
X155899Y611347D01*
X155824Y611376D01*
X155750Y611408D01*
X155678Y611444D01*
X155608Y611484D01*
X155541Y611527D01*
X155475Y611573D01*
X155412Y611623D01*
X155351Y611675D01*
X155292Y611730D01*
X155237Y611789D01*
X155185Y611849D01*
X155135Y611913D01*
X155089Y611978D01*
X155046Y612046D01*
X155006Y612116D01*
X154970Y612188D01*
X154938Y612262D01*
X154909Y612336D01*
X154884Y612413D01*
X154862Y612490D01*
X154844Y612569D01*
X154831Y612648D01*
X154821Y612727D01*
X154815Y612808D01*
X154813Y612888D01*
X154813Y614525D01*
X154813Y619007D02*
X160542Y617370D01*
X160542Y621462D01*
X158905Y620235D02*
X162179Y620235D01*
D10*
X179070Y600960D02*
X186690Y600960D01*
X186690Y587760D02*
X179320Y587760D01*
D15*
X175709Y594372D03*
X190187Y594372D03*
D12*
X162179Y591665D02*
X162179Y590028D01*
X162177Y589950D01*
X162172Y589872D01*
X162162Y589795D01*
X162149Y589718D01*
X162133Y589642D01*
X162113Y589567D01*
X162089Y589493D01*
X162062Y589420D01*
X162031Y589348D01*
X161997Y589278D01*
X161960Y589210D01*
X161919Y589143D01*
X161875Y589078D01*
X161829Y589016D01*
X161779Y588956D01*
X161727Y588898D01*
X161672Y588843D01*
X161614Y588791D01*
X161554Y588741D01*
X161492Y588695D01*
X161427Y588651D01*
X161361Y588610D01*
X161292Y588573D01*
X161222Y588539D01*
X161150Y588508D01*
X161077Y588481D01*
X161003Y588457D01*
X160928Y588437D01*
X160852Y588421D01*
X160775Y588408D01*
X160698Y588398D01*
X160620Y588393D01*
X160542Y588391D01*
X156450Y588391D01*
X156370Y588393D01*
X156290Y588399D01*
X156210Y588409D01*
X156131Y588422D01*
X156052Y588440D01*
X155975Y588461D01*
X155899Y588487D01*
X155824Y588516D01*
X155750Y588548D01*
X155678Y588584D01*
X155608Y588624D01*
X155541Y588667D01*
X155475Y588713D01*
X155412Y588763D01*
X155351Y588815D01*
X155292Y588870D01*
X155237Y588929D01*
X155185Y588989D01*
X155135Y589053D01*
X155089Y589118D01*
X155046Y589186D01*
X155006Y589256D01*
X154970Y589328D01*
X154938Y589402D01*
X154909Y589476D01*
X154884Y589553D01*
X154862Y589630D01*
X154844Y589709D01*
X154831Y589788D01*
X154821Y589867D01*
X154815Y589948D01*
X154813Y590028D01*
X154813Y591665D01*
X162179Y594510D02*
X162179Y596965D01*
X162177Y597043D01*
X162172Y597121D01*
X162162Y597198D01*
X162149Y597275D01*
X162133Y597351D01*
X162113Y597426D01*
X162089Y597500D01*
X162062Y597573D01*
X162031Y597645D01*
X161997Y597715D01*
X161960Y597784D01*
X161919Y597850D01*
X161875Y597915D01*
X161829Y597977D01*
X161779Y598037D01*
X161727Y598095D01*
X161672Y598150D01*
X161614Y598202D01*
X161554Y598252D01*
X161492Y598298D01*
X161427Y598342D01*
X161361Y598383D01*
X161292Y598420D01*
X161222Y598454D01*
X161150Y598485D01*
X161077Y598512D01*
X161003Y598536D01*
X160928Y598556D01*
X160852Y598572D01*
X160775Y598585D01*
X160698Y598595D01*
X160620Y598600D01*
X160542Y598602D01*
X159724Y598602D01*
X159644Y598600D01*
X159564Y598594D01*
X159484Y598584D01*
X159405Y598571D01*
X159326Y598553D01*
X159249Y598532D01*
X159173Y598506D01*
X159098Y598477D01*
X159024Y598445D01*
X158952Y598409D01*
X158882Y598369D01*
X158815Y598326D01*
X158749Y598280D01*
X158686Y598230D01*
X158625Y598178D01*
X158566Y598123D01*
X158511Y598064D01*
X158459Y598004D01*
X158409Y597940D01*
X158363Y597874D01*
X158320Y597807D01*
X158280Y597737D01*
X158244Y597665D01*
X158212Y597591D01*
X158183Y597517D01*
X158157Y597440D01*
X158136Y597363D01*
X158118Y597284D01*
X158105Y597205D01*
X158095Y597125D01*
X158089Y597045D01*
X158087Y596965D01*
X158087Y594510D01*
X154813Y594510D01*
X154813Y598602D01*
D10*
X90170Y834640D02*
X82550Y834640D01*
X82800Y821440D02*
X90170Y821440D01*
D15*
X79189Y828052D03*
X93667Y828052D03*
D12*
X114427Y827071D02*
X114427Y825435D01*
X114425Y825357D01*
X114420Y825279D01*
X114410Y825202D01*
X114397Y825125D01*
X114381Y825049D01*
X114361Y824974D01*
X114337Y824900D01*
X114310Y824827D01*
X114279Y824755D01*
X114245Y824685D01*
X114208Y824617D01*
X114167Y824550D01*
X114123Y824485D01*
X114077Y824423D01*
X114027Y824363D01*
X113975Y824305D01*
X113920Y824250D01*
X113862Y824198D01*
X113802Y824148D01*
X113740Y824102D01*
X113675Y824058D01*
X113609Y824017D01*
X113540Y823980D01*
X113470Y823946D01*
X113398Y823915D01*
X113325Y823888D01*
X113251Y823864D01*
X113176Y823844D01*
X113100Y823828D01*
X113023Y823815D01*
X112946Y823805D01*
X112868Y823800D01*
X112790Y823798D01*
X108698Y823798D01*
X108618Y823800D01*
X108538Y823806D01*
X108458Y823816D01*
X108379Y823829D01*
X108300Y823847D01*
X108223Y823868D01*
X108147Y823894D01*
X108072Y823923D01*
X107998Y823955D01*
X107926Y823991D01*
X107856Y824031D01*
X107789Y824074D01*
X107723Y824120D01*
X107660Y824170D01*
X107599Y824222D01*
X107540Y824277D01*
X107485Y824336D01*
X107433Y824396D01*
X107383Y824460D01*
X107337Y824525D01*
X107294Y824593D01*
X107254Y824663D01*
X107218Y824735D01*
X107186Y824809D01*
X107157Y824883D01*
X107132Y824960D01*
X107110Y825037D01*
X107092Y825116D01*
X107079Y825195D01*
X107069Y825274D01*
X107063Y825355D01*
X107061Y825435D01*
X107061Y827071D01*
X110335Y829917D02*
X110335Y832372D01*
X110337Y832450D01*
X110342Y832528D01*
X110352Y832605D01*
X110365Y832682D01*
X110381Y832758D01*
X110401Y832833D01*
X110425Y832907D01*
X110452Y832980D01*
X110483Y833052D01*
X110517Y833122D01*
X110554Y833191D01*
X110595Y833257D01*
X110639Y833322D01*
X110685Y833384D01*
X110735Y833444D01*
X110787Y833502D01*
X110842Y833557D01*
X110900Y833609D01*
X110960Y833659D01*
X111022Y833705D01*
X111087Y833749D01*
X111154Y833790D01*
X111222Y833827D01*
X111292Y833861D01*
X111364Y833892D01*
X111437Y833919D01*
X111511Y833943D01*
X111586Y833963D01*
X111662Y833979D01*
X111739Y833992D01*
X111816Y834002D01*
X111894Y834007D01*
X111972Y834009D01*
X112381Y834009D01*
X112470Y834007D01*
X112559Y834001D01*
X112648Y833991D01*
X112736Y833978D01*
X112824Y833961D01*
X112911Y833939D01*
X112996Y833914D01*
X113081Y833886D01*
X113164Y833853D01*
X113246Y833817D01*
X113326Y833778D01*
X113404Y833735D01*
X113480Y833689D01*
X113555Y833639D01*
X113627Y833586D01*
X113696Y833530D01*
X113763Y833471D01*
X113828Y833410D01*
X113889Y833345D01*
X113948Y833278D01*
X114004Y833209D01*
X114057Y833137D01*
X114107Y833062D01*
X114153Y832986D01*
X114196Y832908D01*
X114235Y832828D01*
X114271Y832746D01*
X114304Y832663D01*
X114332Y832578D01*
X114357Y832493D01*
X114379Y832406D01*
X114396Y832318D01*
X114409Y832230D01*
X114419Y832141D01*
X114425Y832052D01*
X114427Y831963D01*
X114425Y831874D01*
X114419Y831785D01*
X114409Y831696D01*
X114396Y831608D01*
X114379Y831520D01*
X114357Y831433D01*
X114332Y831348D01*
X114304Y831263D01*
X114271Y831180D01*
X114235Y831098D01*
X114196Y831018D01*
X114153Y830940D01*
X114107Y830864D01*
X114057Y830789D01*
X114004Y830717D01*
X113948Y830648D01*
X113889Y830581D01*
X113828Y830516D01*
X113763Y830455D01*
X113696Y830396D01*
X113627Y830340D01*
X113555Y830287D01*
X113480Y830237D01*
X113404Y830191D01*
X113326Y830148D01*
X113246Y830109D01*
X113164Y830073D01*
X113081Y830040D01*
X112996Y830012D01*
X112911Y829987D01*
X112824Y829965D01*
X112736Y829948D01*
X112648Y829935D01*
X112559Y829925D01*
X112470Y829919D01*
X112381Y829917D01*
X110335Y829917D01*
X110221Y829919D01*
X110107Y829925D01*
X109993Y829935D01*
X109879Y829949D01*
X109766Y829967D01*
X109654Y829989D01*
X109543Y830014D01*
X109433Y830044D01*
X109323Y830077D01*
X109215Y830114D01*
X109109Y830155D01*
X109003Y830200D01*
X108900Y830248D01*
X108798Y830300D01*
X108698Y830356D01*
X108600Y830414D01*
X108504Y830477D01*
X108411Y830542D01*
X108319Y830611D01*
X108231Y830683D01*
X108144Y830758D01*
X108061Y830836D01*
X107980Y830917D01*
X107902Y831000D01*
X107827Y831086D01*
X107755Y831175D01*
X107686Y831267D01*
X107621Y831360D01*
X107559Y831456D01*
X107500Y831554D01*
X107444Y831654D01*
X107392Y831756D01*
X107344Y831859D01*
X107299Y831964D01*
X107258Y832071D01*
X107221Y832179D01*
X107188Y832289D01*
X107158Y832399D01*
X107133Y832510D01*
X107111Y832622D01*
X107093Y832735D01*
X107079Y832849D01*
X107069Y832963D01*
X107063Y833077D01*
X107061Y833191D01*
D10*
X90170Y783840D02*
X82550Y783840D01*
X82800Y770640D02*
X90170Y770640D01*
D15*
X79189Y777252D03*
X93667Y777252D03*
D12*
X115697Y776271D02*
X115697Y774635D01*
X115695Y774557D01*
X115690Y774479D01*
X115680Y774402D01*
X115667Y774325D01*
X115651Y774249D01*
X115631Y774174D01*
X115607Y774100D01*
X115580Y774027D01*
X115549Y773955D01*
X115515Y773885D01*
X115478Y773817D01*
X115437Y773750D01*
X115393Y773685D01*
X115347Y773623D01*
X115297Y773563D01*
X115245Y773505D01*
X115190Y773450D01*
X115132Y773398D01*
X115072Y773348D01*
X115010Y773302D01*
X114945Y773258D01*
X114879Y773217D01*
X114810Y773180D01*
X114740Y773146D01*
X114668Y773115D01*
X114595Y773088D01*
X114521Y773064D01*
X114446Y773044D01*
X114370Y773028D01*
X114293Y773015D01*
X114216Y773005D01*
X114138Y773000D01*
X114060Y772998D01*
X109968Y772998D01*
X109888Y773000D01*
X109808Y773006D01*
X109728Y773016D01*
X109649Y773029D01*
X109570Y773047D01*
X109493Y773068D01*
X109417Y773094D01*
X109342Y773123D01*
X109268Y773155D01*
X109196Y773191D01*
X109126Y773231D01*
X109059Y773274D01*
X108993Y773320D01*
X108930Y773370D01*
X108869Y773422D01*
X108810Y773477D01*
X108755Y773536D01*
X108703Y773596D01*
X108653Y773660D01*
X108607Y773725D01*
X108564Y773793D01*
X108524Y773863D01*
X108488Y773935D01*
X108456Y774009D01*
X108427Y774083D01*
X108402Y774160D01*
X108380Y774237D01*
X108362Y774316D01*
X108349Y774395D01*
X108339Y774474D01*
X108333Y774555D01*
X108331Y774635D01*
X108331Y776271D01*
X108331Y779117D02*
X109149Y779117D01*
X108331Y779117D02*
X108331Y783209D01*
X115697Y781163D01*
D10*
X90170Y809240D02*
X82550Y809240D01*
X82800Y796040D02*
X90170Y796040D01*
D15*
X79189Y802652D03*
X93667Y802652D03*
D12*
X114427Y801671D02*
X114427Y800035D01*
X114425Y799957D01*
X114420Y799879D01*
X114410Y799802D01*
X114397Y799725D01*
X114381Y799649D01*
X114361Y799574D01*
X114337Y799500D01*
X114310Y799427D01*
X114279Y799355D01*
X114245Y799285D01*
X114208Y799217D01*
X114167Y799150D01*
X114123Y799085D01*
X114077Y799023D01*
X114027Y798963D01*
X113975Y798905D01*
X113920Y798850D01*
X113862Y798798D01*
X113802Y798748D01*
X113740Y798702D01*
X113675Y798658D01*
X113609Y798617D01*
X113540Y798580D01*
X113470Y798546D01*
X113398Y798515D01*
X113325Y798488D01*
X113251Y798464D01*
X113176Y798444D01*
X113100Y798428D01*
X113023Y798415D01*
X112946Y798405D01*
X112868Y798400D01*
X112790Y798398D01*
X108698Y798398D01*
X108618Y798400D01*
X108538Y798406D01*
X108458Y798416D01*
X108379Y798429D01*
X108300Y798447D01*
X108223Y798468D01*
X108147Y798494D01*
X108072Y798523D01*
X107998Y798555D01*
X107926Y798591D01*
X107856Y798631D01*
X107789Y798674D01*
X107723Y798720D01*
X107660Y798770D01*
X107599Y798822D01*
X107540Y798877D01*
X107485Y798936D01*
X107433Y798996D01*
X107383Y799060D01*
X107337Y799125D01*
X107294Y799193D01*
X107254Y799263D01*
X107218Y799335D01*
X107186Y799409D01*
X107157Y799483D01*
X107132Y799560D01*
X107110Y799637D01*
X107092Y799716D01*
X107079Y799795D01*
X107069Y799874D01*
X107063Y799955D01*
X107061Y800035D01*
X107061Y801671D01*
X112381Y804517D02*
X112292Y804519D01*
X112203Y804525D01*
X112114Y804535D01*
X112026Y804548D01*
X111938Y804565D01*
X111851Y804587D01*
X111766Y804612D01*
X111681Y804640D01*
X111598Y804673D01*
X111516Y804709D01*
X111436Y804748D01*
X111358Y804791D01*
X111282Y804837D01*
X111207Y804887D01*
X111135Y804940D01*
X111066Y804996D01*
X110999Y805055D01*
X110934Y805116D01*
X110873Y805181D01*
X110814Y805248D01*
X110758Y805317D01*
X110705Y805389D01*
X110655Y805464D01*
X110609Y805540D01*
X110566Y805618D01*
X110527Y805698D01*
X110491Y805780D01*
X110458Y805863D01*
X110430Y805948D01*
X110405Y806033D01*
X110383Y806120D01*
X110366Y806208D01*
X110353Y806296D01*
X110343Y806385D01*
X110337Y806474D01*
X110335Y806563D01*
X110337Y806652D01*
X110343Y806741D01*
X110353Y806830D01*
X110366Y806918D01*
X110383Y807006D01*
X110405Y807093D01*
X110430Y807178D01*
X110458Y807263D01*
X110491Y807346D01*
X110527Y807428D01*
X110566Y807508D01*
X110609Y807586D01*
X110655Y807662D01*
X110705Y807737D01*
X110758Y807809D01*
X110814Y807878D01*
X110873Y807945D01*
X110934Y808010D01*
X110999Y808071D01*
X111066Y808130D01*
X111135Y808186D01*
X111207Y808239D01*
X111282Y808289D01*
X111358Y808335D01*
X111436Y808378D01*
X111516Y808417D01*
X111598Y808453D01*
X111681Y808486D01*
X111766Y808514D01*
X111851Y808539D01*
X111938Y808561D01*
X112026Y808578D01*
X112114Y808591D01*
X112203Y808601D01*
X112292Y808607D01*
X112381Y808609D01*
X112470Y808607D01*
X112559Y808601D01*
X112648Y808591D01*
X112736Y808578D01*
X112824Y808561D01*
X112911Y808539D01*
X112996Y808514D01*
X113081Y808486D01*
X113164Y808453D01*
X113246Y808417D01*
X113326Y808378D01*
X113404Y808335D01*
X113480Y808289D01*
X113555Y808239D01*
X113627Y808186D01*
X113696Y808130D01*
X113763Y808071D01*
X113828Y808010D01*
X113889Y807945D01*
X113948Y807878D01*
X114004Y807809D01*
X114057Y807737D01*
X114107Y807662D01*
X114153Y807586D01*
X114196Y807508D01*
X114235Y807428D01*
X114271Y807346D01*
X114304Y807263D01*
X114332Y807178D01*
X114357Y807093D01*
X114379Y807006D01*
X114396Y806918D01*
X114409Y806830D01*
X114419Y806741D01*
X114425Y806652D01*
X114427Y806563D01*
X114425Y806474D01*
X114419Y806385D01*
X114409Y806296D01*
X114396Y806208D01*
X114379Y806120D01*
X114357Y806033D01*
X114332Y805948D01*
X114304Y805863D01*
X114271Y805780D01*
X114235Y805698D01*
X114196Y805618D01*
X114153Y805540D01*
X114107Y805464D01*
X114057Y805389D01*
X114004Y805317D01*
X113948Y805248D01*
X113889Y805181D01*
X113828Y805116D01*
X113763Y805055D01*
X113696Y804996D01*
X113627Y804940D01*
X113555Y804887D01*
X113480Y804837D01*
X113404Y804791D01*
X113326Y804748D01*
X113246Y804709D01*
X113164Y804673D01*
X113081Y804640D01*
X112996Y804612D01*
X112911Y804587D01*
X112824Y804565D01*
X112736Y804548D01*
X112648Y804535D01*
X112559Y804525D01*
X112470Y804519D01*
X112381Y804517D01*
X108698Y804926D02*
X108619Y804928D01*
X108540Y804934D01*
X108461Y804943D01*
X108383Y804956D01*
X108306Y804974D01*
X108230Y804994D01*
X108155Y805019D01*
X108081Y805047D01*
X108008Y805078D01*
X107937Y805114D01*
X107868Y805152D01*
X107801Y805194D01*
X107736Y805239D01*
X107673Y805287D01*
X107612Y805338D01*
X107555Y805392D01*
X107499Y805448D01*
X107447Y805507D01*
X107397Y805569D01*
X107351Y805633D01*
X107307Y805699D01*
X107267Y805767D01*
X107231Y805837D01*
X107197Y805909D01*
X107167Y805983D01*
X107141Y806057D01*
X107118Y806133D01*
X107100Y806210D01*
X107084Y806287D01*
X107073Y806366D01*
X107065Y806444D01*
X107061Y806523D01*
X107061Y806603D01*
X107065Y806682D01*
X107073Y806760D01*
X107084Y806839D01*
X107100Y806916D01*
X107118Y806993D01*
X107141Y807069D01*
X107167Y807143D01*
X107197Y807217D01*
X107231Y807289D01*
X107267Y807359D01*
X107307Y807427D01*
X107351Y807493D01*
X107397Y807557D01*
X107447Y807619D01*
X107499Y807678D01*
X107555Y807734D01*
X107612Y807788D01*
X107673Y807839D01*
X107736Y807887D01*
X107801Y807932D01*
X107868Y807974D01*
X107937Y808012D01*
X108008Y808048D01*
X108081Y808079D01*
X108155Y808107D01*
X108230Y808132D01*
X108306Y808152D01*
X108383Y808170D01*
X108461Y808183D01*
X108540Y808192D01*
X108619Y808198D01*
X108698Y808200D01*
X108777Y808198D01*
X108856Y808192D01*
X108935Y808183D01*
X109013Y808170D01*
X109090Y808152D01*
X109166Y808132D01*
X109241Y808107D01*
X109315Y808079D01*
X109388Y808048D01*
X109459Y808012D01*
X109528Y807974D01*
X109595Y807932D01*
X109660Y807887D01*
X109723Y807839D01*
X109784Y807788D01*
X109841Y807734D01*
X109897Y807678D01*
X109949Y807619D01*
X109999Y807557D01*
X110045Y807493D01*
X110089Y807427D01*
X110129Y807359D01*
X110165Y807289D01*
X110199Y807217D01*
X110229Y807143D01*
X110255Y807069D01*
X110278Y806993D01*
X110296Y806916D01*
X110312Y806839D01*
X110323Y806760D01*
X110331Y806682D01*
X110335Y806603D01*
X110335Y806523D01*
X110331Y806444D01*
X110323Y806366D01*
X110312Y806287D01*
X110296Y806210D01*
X110278Y806133D01*
X110255Y806057D01*
X110229Y805983D01*
X110199Y805909D01*
X110165Y805837D01*
X110129Y805767D01*
X110089Y805699D01*
X110045Y805633D01*
X109999Y805569D01*
X109949Y805507D01*
X109897Y805448D01*
X109841Y805392D01*
X109784Y805338D01*
X109723Y805287D01*
X109660Y805239D01*
X109595Y805194D01*
X109528Y805152D01*
X109459Y805114D01*
X109388Y805078D01*
X109315Y805047D01*
X109241Y805019D01*
X109166Y804994D01*
X109090Y804974D01*
X109013Y804956D01*
X108935Y804943D01*
X108856Y804934D01*
X108777Y804928D01*
X108698Y804926D01*
D16*
X43820Y802580D02*
X9520Y802580D01*
X43820Y802580D02*
X43820Y782380D01*
X9520Y782380D01*
X9520Y802580D01*
D17*
X16170Y799230D02*
X37170Y799230D01*
X37170Y785730D01*
X16170Y785730D01*
X16170Y799230D01*
D18*
X26670Y798230D02*
X26670Y786730D01*
D12*
X46984Y792607D02*
X46984Y799973D01*
X50258Y799973D01*
X50258Y796699D02*
X46984Y796699D01*
X53064Y798336D02*
X55110Y799973D01*
X55110Y792607D01*
X53064Y792607D02*
X57156Y792607D01*
D10*
X21250Y710320D02*
X21252Y710384D01*
X21258Y710448D01*
X21268Y710511D01*
X21282Y710574D01*
X21299Y710635D01*
X21321Y710696D01*
X21346Y710754D01*
X21375Y710812D01*
X21407Y710867D01*
X21443Y710920D01*
X21482Y710971D01*
X21524Y711019D01*
X21569Y711065D01*
X21617Y711108D01*
X21667Y711148D01*
X21719Y711184D01*
X21774Y711217D01*
X21831Y711247D01*
X21890Y711273D01*
X21950Y711296D01*
X22011Y711314D01*
X22073Y711329D01*
X22136Y711340D01*
X22200Y711347D01*
X22264Y711350D01*
X22328Y711349D01*
X22392Y711344D01*
X22455Y711335D01*
X22518Y711322D01*
X22580Y711305D01*
X22641Y711285D01*
X22700Y711261D01*
X22758Y711233D01*
X22813Y711201D01*
X22867Y711166D01*
X22919Y711128D01*
X22968Y711087D01*
X23014Y711043D01*
X23057Y710996D01*
X23098Y710946D01*
X23135Y710894D01*
X23169Y710840D01*
X23200Y710783D01*
X23227Y710725D01*
X23250Y710666D01*
X23270Y710605D01*
X23286Y710542D01*
X23298Y710480D01*
X23306Y710416D01*
X23310Y710352D01*
X23310Y710288D01*
X23306Y710224D01*
X23298Y710160D01*
X23286Y710098D01*
X23270Y710035D01*
X23250Y709974D01*
X23227Y709915D01*
X23200Y709857D01*
X23169Y709800D01*
X23135Y709746D01*
X23098Y709694D01*
X23057Y709644D01*
X23014Y709597D01*
X22968Y709553D01*
X22919Y709512D01*
X22867Y709474D01*
X22813Y709439D01*
X22758Y709407D01*
X22700Y709379D01*
X22641Y709355D01*
X22580Y709335D01*
X22518Y709318D01*
X22455Y709305D01*
X22392Y709296D01*
X22328Y709291D01*
X22264Y709290D01*
X22200Y709293D01*
X22136Y709300D01*
X22073Y709311D01*
X22011Y709326D01*
X21950Y709344D01*
X21890Y709367D01*
X21831Y709393D01*
X21774Y709423D01*
X21719Y709456D01*
X21667Y709492D01*
X21617Y709532D01*
X21569Y709575D01*
X21524Y709621D01*
X21482Y709669D01*
X21443Y709720D01*
X21407Y709773D01*
X21375Y709828D01*
X21346Y709886D01*
X21321Y709944D01*
X21299Y710005D01*
X21282Y710066D01*
X21268Y710129D01*
X21258Y710192D01*
X21252Y710256D01*
X21250Y710320D01*
X21280Y709570D02*
X21260Y709686D01*
X21236Y709802D01*
X21209Y709917D01*
X21177Y710031D01*
X21142Y710143D01*
X21103Y710255D01*
X21060Y710365D01*
X21014Y710474D01*
X20964Y710581D01*
X20910Y710686D01*
X20853Y710789D01*
X20793Y710891D01*
X20729Y710990D01*
X20662Y711087D01*
X20592Y711182D01*
X20518Y711275D01*
X20442Y711365D01*
X20362Y711452D01*
X20280Y711537D01*
X20195Y711619D01*
X20107Y711698D01*
X20017Y711774D01*
X19924Y711847D01*
X19829Y711917D01*
X19732Y711984D01*
X19632Y712047D01*
X19530Y712107D01*
X19427Y712164D01*
X19321Y712217D01*
X19214Y712267D01*
X19105Y712313D01*
X18995Y712355D01*
X18883Y712394D01*
X18771Y712429D01*
X18657Y712460D01*
X18542Y712487D01*
X18426Y712511D01*
X18309Y712530D01*
X18192Y712546D01*
X18075Y712558D01*
X17957Y712566D01*
X17839Y712570D01*
X17721Y712570D01*
X17603Y712566D01*
X17485Y712558D01*
X17368Y712546D01*
X17251Y712530D01*
X17134Y712511D01*
X17018Y712487D01*
X16903Y712460D01*
X16789Y712429D01*
X16677Y712394D01*
X16565Y712355D01*
X16455Y712313D01*
X16346Y712267D01*
X16239Y712217D01*
X16133Y712164D01*
X16030Y712107D01*
X15928Y712047D01*
X15828Y711984D01*
X15731Y711917D01*
X15636Y711847D01*
X15543Y711774D01*
X15453Y711698D01*
X15365Y711619D01*
X15280Y711537D01*
X15198Y711452D01*
X15118Y711365D01*
X15042Y711275D01*
X14968Y711182D01*
X14898Y711087D01*
X14831Y710990D01*
X14767Y710891D01*
X14707Y710789D01*
X14650Y710686D01*
X14596Y710581D01*
X14546Y710474D01*
X14500Y710365D01*
X14457Y710255D01*
X14418Y710143D01*
X14383Y710031D01*
X14351Y709917D01*
X14324Y709802D01*
X14300Y709686D01*
X14280Y709570D01*
X14280Y728070D02*
X14300Y727954D01*
X14324Y727838D01*
X14351Y727723D01*
X14383Y727609D01*
X14418Y727497D01*
X14457Y727385D01*
X14500Y727275D01*
X14546Y727166D01*
X14596Y727059D01*
X14650Y726954D01*
X14707Y726851D01*
X14767Y726749D01*
X14831Y726650D01*
X14898Y726553D01*
X14968Y726458D01*
X15042Y726365D01*
X15118Y726275D01*
X15198Y726188D01*
X15280Y726103D01*
X15365Y726021D01*
X15453Y725942D01*
X15543Y725866D01*
X15636Y725793D01*
X15731Y725723D01*
X15828Y725656D01*
X15928Y725593D01*
X16030Y725533D01*
X16133Y725476D01*
X16239Y725423D01*
X16346Y725373D01*
X16455Y725327D01*
X16565Y725285D01*
X16677Y725246D01*
X16789Y725211D01*
X16903Y725180D01*
X17018Y725153D01*
X17134Y725129D01*
X17251Y725110D01*
X17368Y725094D01*
X17485Y725082D01*
X17603Y725074D01*
X17721Y725070D01*
X17839Y725070D01*
X17957Y725074D01*
X18075Y725082D01*
X18192Y725094D01*
X18309Y725110D01*
X18426Y725129D01*
X18542Y725153D01*
X18657Y725180D01*
X18771Y725211D01*
X18883Y725246D01*
X18995Y725285D01*
X19105Y725327D01*
X19214Y725373D01*
X19321Y725423D01*
X19427Y725476D01*
X19530Y725533D01*
X19632Y725593D01*
X19732Y725656D01*
X19829Y725723D01*
X19924Y725793D01*
X20017Y725866D01*
X20107Y725942D01*
X20195Y726021D01*
X20280Y726103D01*
X20362Y726188D01*
X20442Y726275D01*
X20518Y726365D01*
X20592Y726458D01*
X20662Y726553D01*
X20729Y726650D01*
X20793Y726749D01*
X20853Y726851D01*
X20910Y726954D01*
X20964Y727059D01*
X21014Y727166D01*
X21060Y727275D01*
X21103Y727385D01*
X21142Y727497D01*
X21177Y727609D01*
X21209Y727723D01*
X21236Y727838D01*
X21260Y727954D01*
X21280Y728070D01*
X12030Y724070D02*
X12030Y713570D01*
X23530Y709570D02*
X23530Y723820D01*
D19*
X21844Y720852D02*
X17780Y716788D01*
X13716Y720852D01*
X21844Y720852D01*
D20*
X13155Y711320D03*
D21*
X20280Y712570D03*
X15280Y712570D03*
D22*
X17780Y712945D03*
D20*
X13155Y726320D03*
X22405Y726320D03*
D21*
X15280Y725070D03*
X20280Y725070D03*
D22*
X17780Y724695D03*
D23*
X22280Y712320D03*
D24*
X22405Y709195D03*
D10*
X4939Y709284D02*
X4939Y708099D01*
X4939Y709284D02*
X8890Y709284D01*
X8890Y706914D01*
X8888Y706836D01*
X8882Y706759D01*
X8873Y706682D01*
X8860Y706606D01*
X8843Y706530D01*
X8822Y706455D01*
X8798Y706382D01*
X8770Y706309D01*
X8738Y706238D01*
X8703Y706169D01*
X8665Y706102D01*
X8624Y706036D01*
X8579Y705973D01*
X8531Y705912D01*
X8481Y705853D01*
X8427Y705797D01*
X8371Y705743D01*
X8312Y705693D01*
X8251Y705645D01*
X8188Y705600D01*
X8122Y705559D01*
X8055Y705521D01*
X7986Y705486D01*
X7915Y705454D01*
X7842Y705426D01*
X7769Y705402D01*
X7694Y705381D01*
X7618Y705364D01*
X7542Y705351D01*
X7465Y705342D01*
X7388Y705336D01*
X7310Y705334D01*
X7310Y705333D02*
X3358Y705333D01*
X3280Y705335D01*
X3203Y705341D01*
X3126Y705350D01*
X3050Y705363D01*
X2974Y705380D01*
X2899Y705401D01*
X2825Y705425D01*
X2753Y705453D01*
X2682Y705485D01*
X2613Y705520D01*
X2545Y705558D01*
X2480Y705599D01*
X2416Y705644D01*
X2355Y705692D01*
X2296Y705743D01*
X2240Y705796D01*
X2187Y705852D01*
X2136Y705911D01*
X2088Y705972D01*
X2043Y706036D01*
X2002Y706101D01*
X1964Y706169D01*
X1929Y706238D01*
X1897Y706309D01*
X1869Y706381D01*
X1845Y706455D01*
X1824Y706530D01*
X1807Y706606D01*
X1794Y706682D01*
X1785Y706759D01*
X1779Y706836D01*
X1777Y706914D01*
X1778Y706914D02*
X1778Y709284D01*
X1778Y713155D02*
X8890Y713155D01*
X8890Y716315D01*
X8890Y719494D02*
X8890Y722655D01*
X8890Y719494D02*
X1778Y719494D01*
X1778Y722655D01*
X4939Y721865D02*
X4939Y719494D01*
X1778Y725816D02*
X8890Y725816D01*
X1778Y725816D02*
X1778Y727791D01*
X1780Y727877D01*
X1786Y727963D01*
X1795Y728049D01*
X1808Y728134D01*
X1825Y728219D01*
X1845Y728302D01*
X1869Y728385D01*
X1897Y728467D01*
X1928Y728547D01*
X1963Y728626D01*
X2001Y728703D01*
X2043Y728779D01*
X2087Y728853D01*
X2135Y728924D01*
X2186Y728994D01*
X2240Y729061D01*
X2297Y729126D01*
X2357Y729188D01*
X2419Y729248D01*
X2484Y729305D01*
X2551Y729359D01*
X2621Y729410D01*
X2692Y729458D01*
X2766Y729502D01*
X2842Y729544D01*
X2919Y729582D01*
X2998Y729617D01*
X3078Y729648D01*
X3160Y729676D01*
X3243Y729700D01*
X3326Y729720D01*
X3411Y729737D01*
X3496Y729750D01*
X3582Y729759D01*
X3668Y729765D01*
X3754Y729767D01*
X6914Y729767D01*
X7000Y729765D01*
X7086Y729759D01*
X7172Y729750D01*
X7257Y729737D01*
X7342Y729720D01*
X7425Y729700D01*
X7508Y729676D01*
X7590Y729648D01*
X7670Y729617D01*
X7749Y729582D01*
X7826Y729544D01*
X7902Y729502D01*
X7976Y729458D01*
X8047Y729410D01*
X8117Y729359D01*
X8184Y729305D01*
X8249Y729248D01*
X8311Y729188D01*
X8371Y729126D01*
X8428Y729061D01*
X8482Y728994D01*
X8533Y728924D01*
X8581Y728853D01*
X8625Y728779D01*
X8667Y728703D01*
X8705Y728626D01*
X8740Y728547D01*
X8771Y728467D01*
X8799Y728385D01*
X8823Y728302D01*
X8843Y728219D01*
X8860Y728134D01*
X8873Y728049D01*
X8882Y727963D01*
X8888Y727877D01*
X8890Y727791D01*
X8890Y725816D01*
D11*
X317246Y779780D02*
X317246Y815340D01*
X317246Y779780D02*
X251714Y779780D01*
X251714Y815340D01*
X317246Y815340D01*
D10*
X297172Y754888D02*
X295196Y754888D01*
X297172Y754888D02*
X297259Y754890D01*
X297347Y754896D01*
X297434Y754905D01*
X297520Y754919D01*
X297606Y754936D01*
X297690Y754957D01*
X297774Y754982D01*
X297857Y755011D01*
X297938Y755043D01*
X298018Y755078D01*
X298096Y755117D01*
X298173Y755160D01*
X298247Y755206D01*
X298319Y755255D01*
X298389Y755307D01*
X298457Y755363D01*
X298522Y755421D01*
X298585Y755482D01*
X298644Y755546D01*
X298701Y755613D01*
X298755Y755681D01*
X298806Y755753D01*
X298853Y755826D01*
X298898Y755901D01*
X298939Y755979D01*
X298976Y756058D01*
X299010Y756138D01*
X299040Y756220D01*
X299067Y756303D01*
X299090Y756388D01*
X299109Y756473D01*
X299124Y756559D01*
X299136Y756646D01*
X299144Y756733D01*
X299148Y756820D01*
X299148Y756908D01*
X299144Y756995D01*
X299136Y757082D01*
X299124Y757169D01*
X299109Y757255D01*
X299090Y757340D01*
X299067Y757425D01*
X299040Y757508D01*
X299010Y757590D01*
X298976Y757670D01*
X298939Y757749D01*
X298898Y757827D01*
X298853Y757902D01*
X298806Y757975D01*
X298755Y758047D01*
X298701Y758115D01*
X298644Y758182D01*
X298585Y758246D01*
X298522Y758307D01*
X298457Y758365D01*
X298389Y758421D01*
X298319Y758473D01*
X298247Y758522D01*
X298173Y758568D01*
X298096Y758611D01*
X298018Y758650D01*
X297938Y758685D01*
X297857Y758717D01*
X297774Y758746D01*
X297690Y758771D01*
X297606Y758792D01*
X297520Y758809D01*
X297434Y758823D01*
X297347Y758832D01*
X297259Y758838D01*
X297172Y758840D01*
X297567Y762000D02*
X295196Y762000D01*
X297567Y762000D02*
X297646Y761998D01*
X297724Y761992D01*
X297802Y761982D01*
X297880Y761969D01*
X297957Y761951D01*
X298033Y761930D01*
X298107Y761905D01*
X298181Y761876D01*
X298253Y761844D01*
X298323Y761808D01*
X298391Y761768D01*
X298457Y761725D01*
X298521Y761679D01*
X298583Y761630D01*
X298642Y761578D01*
X298698Y761523D01*
X298752Y761465D01*
X298802Y761405D01*
X298850Y761342D01*
X298894Y761277D01*
X298935Y761210D01*
X298973Y761141D01*
X299007Y761070D01*
X299038Y760997D01*
X299065Y760923D01*
X299088Y760848D01*
X299107Y760772D01*
X299123Y760694D01*
X299135Y760616D01*
X299143Y760538D01*
X299147Y760459D01*
X299147Y760381D01*
X299143Y760302D01*
X299135Y760224D01*
X299123Y760146D01*
X299107Y760068D01*
X299088Y759992D01*
X299065Y759917D01*
X299038Y759843D01*
X299007Y759770D01*
X298973Y759699D01*
X298935Y759630D01*
X298894Y759563D01*
X298850Y759498D01*
X298802Y759435D01*
X298752Y759375D01*
X298698Y759317D01*
X298642Y759262D01*
X298583Y759210D01*
X298521Y759161D01*
X298457Y759115D01*
X298391Y759072D01*
X298323Y759032D01*
X298253Y758996D01*
X298181Y758964D01*
X298107Y758935D01*
X298033Y758910D01*
X297957Y758889D01*
X297880Y758871D01*
X297802Y758858D01*
X297724Y758848D01*
X297646Y758842D01*
X297567Y758840D01*
X297567Y758839D02*
X295986Y758839D01*
X304038Y825048D02*
X305618Y830580D01*
X304038Y825048D02*
X307989Y825048D01*
X306804Y826629D02*
X306804Y823468D01*
X252438Y762000D02*
X250462Y760420D01*
X252438Y762000D02*
X252438Y754888D01*
X254413Y754888D02*
X250462Y754888D01*
X274255Y761906D02*
X274337Y761904D01*
X274419Y761898D01*
X274501Y761889D01*
X274582Y761876D01*
X274662Y761859D01*
X274742Y761838D01*
X274820Y761814D01*
X274897Y761786D01*
X274973Y761755D01*
X275048Y761720D01*
X275120Y761681D01*
X275191Y761640D01*
X275260Y761595D01*
X275326Y761547D01*
X275391Y761496D01*
X275453Y761442D01*
X275512Y761385D01*
X275569Y761326D01*
X275623Y761264D01*
X275674Y761199D01*
X275722Y761133D01*
X275767Y761064D01*
X275808Y760993D01*
X275847Y760921D01*
X275882Y760846D01*
X275913Y760770D01*
X275941Y760693D01*
X275965Y760615D01*
X275986Y760535D01*
X276003Y760455D01*
X276016Y760374D01*
X276025Y760292D01*
X276031Y760210D01*
X276033Y760128D01*
X274255Y761906D02*
X274162Y761904D01*
X274070Y761898D01*
X273978Y761889D01*
X273886Y761876D01*
X273795Y761859D01*
X273705Y761839D01*
X273615Y761815D01*
X273527Y761787D01*
X273439Y761755D01*
X273354Y761721D01*
X273269Y761682D01*
X273187Y761641D01*
X273106Y761596D01*
X273026Y761547D01*
X272949Y761496D01*
X272874Y761442D01*
X272802Y761384D01*
X272732Y761324D01*
X272664Y761260D01*
X272599Y761195D01*
X272536Y761126D01*
X272477Y761055D01*
X272420Y760982D01*
X272366Y760906D01*
X272316Y760829D01*
X272268Y760749D01*
X272224Y760668D01*
X272184Y760584D01*
X272146Y760500D01*
X272112Y760413D01*
X272082Y760326D01*
X275440Y758745D02*
X275501Y758806D01*
X275559Y758869D01*
X275614Y758935D01*
X275667Y759003D01*
X275716Y759074D01*
X275761Y759146D01*
X275804Y759221D01*
X275843Y759297D01*
X275879Y759376D01*
X275911Y759455D01*
X275939Y759536D01*
X275964Y759619D01*
X275985Y759702D01*
X276002Y759786D01*
X276016Y759871D01*
X276025Y759956D01*
X276031Y760042D01*
X276033Y760128D01*
X275440Y758745D02*
X272082Y754794D01*
X276033Y754794D01*
D25*
X284480Y824865D03*
D26*
X284480Y770255D03*
X261366Y770255D03*
X307594Y770255D03*
D25*
X284480Y824865D03*
D26*
X284480Y770255D03*
X261366Y770255D03*
X307594Y770255D03*
D12*
X247579Y820039D02*
X247579Y827405D01*
X246761Y820039D02*
X248398Y820039D01*
X248398Y827405D02*
X246761Y827405D01*
X252999Y820039D02*
X254636Y820039D01*
X252999Y820039D02*
X252921Y820041D01*
X252843Y820046D01*
X252766Y820056D01*
X252689Y820069D01*
X252613Y820085D01*
X252538Y820105D01*
X252464Y820129D01*
X252391Y820156D01*
X252319Y820187D01*
X252249Y820221D01*
X252181Y820258D01*
X252114Y820299D01*
X252049Y820343D01*
X251987Y820389D01*
X251927Y820439D01*
X251869Y820491D01*
X251814Y820546D01*
X251762Y820604D01*
X251712Y820664D01*
X251666Y820726D01*
X251622Y820791D01*
X251581Y820858D01*
X251544Y820926D01*
X251510Y820996D01*
X251479Y821068D01*
X251452Y821141D01*
X251428Y821215D01*
X251408Y821290D01*
X251392Y821366D01*
X251379Y821443D01*
X251369Y821520D01*
X251364Y821598D01*
X251362Y821676D01*
X251362Y825768D01*
X251364Y825848D01*
X251370Y825928D01*
X251380Y826008D01*
X251393Y826087D01*
X251411Y826166D01*
X251432Y826243D01*
X251458Y826319D01*
X251487Y826394D01*
X251519Y826468D01*
X251555Y826540D01*
X251595Y826610D01*
X251638Y826677D01*
X251684Y826743D01*
X251734Y826806D01*
X251786Y826867D01*
X251841Y826926D01*
X251900Y826981D01*
X251960Y827033D01*
X252024Y827083D01*
X252090Y827129D01*
X252157Y827172D01*
X252227Y827212D01*
X252299Y827248D01*
X252373Y827280D01*
X252447Y827309D01*
X252524Y827335D01*
X252601Y827356D01*
X252680Y827374D01*
X252759Y827387D01*
X252839Y827397D01*
X252919Y827403D01*
X252999Y827405D01*
X254636Y827405D01*
X257481Y825768D02*
X259528Y827405D01*
X259528Y820039D01*
X261574Y820039D02*
X257481Y820039D01*
D27*
X120144Y758975D03*
D28*
X127300Y756475D02*
X127300Y761700D01*
X132525Y761700D01*
X228300Y761700D02*
X228300Y756475D01*
X228300Y761700D02*
X223075Y761700D01*
X228300Y665925D02*
X228300Y660700D01*
X223075Y660700D01*
X127300Y660700D02*
X127300Y665925D01*
X127300Y660700D02*
X132525Y660700D01*
X127300Y660700D02*
X228300Y660700D01*
X127300Y660700D02*
X127300Y761700D01*
X228300Y761700D01*
X228300Y660700D01*
D12*
X233442Y658029D02*
X233442Y650663D01*
X232624Y650663D02*
X234261Y650663D01*
X234261Y658029D02*
X232624Y658029D01*
X238862Y650663D02*
X240499Y650663D01*
X238862Y650663D02*
X238784Y650665D01*
X238706Y650670D01*
X238629Y650680D01*
X238552Y650693D01*
X238476Y650709D01*
X238401Y650729D01*
X238327Y650753D01*
X238254Y650780D01*
X238182Y650811D01*
X238112Y650845D01*
X238044Y650882D01*
X237977Y650923D01*
X237912Y650967D01*
X237850Y651013D01*
X237790Y651063D01*
X237732Y651115D01*
X237677Y651170D01*
X237625Y651228D01*
X237575Y651288D01*
X237529Y651350D01*
X237485Y651415D01*
X237444Y651482D01*
X237407Y651550D01*
X237373Y651620D01*
X237342Y651692D01*
X237315Y651765D01*
X237291Y651839D01*
X237271Y651914D01*
X237255Y651990D01*
X237242Y652067D01*
X237232Y652144D01*
X237227Y652222D01*
X237225Y652300D01*
X237225Y656392D01*
X237227Y656472D01*
X237233Y656552D01*
X237243Y656632D01*
X237256Y656711D01*
X237274Y656790D01*
X237295Y656867D01*
X237321Y656943D01*
X237350Y657018D01*
X237382Y657092D01*
X237418Y657164D01*
X237458Y657234D01*
X237501Y657301D01*
X237547Y657367D01*
X237597Y657430D01*
X237649Y657491D01*
X237704Y657550D01*
X237763Y657605D01*
X237823Y657657D01*
X237887Y657707D01*
X237953Y657753D01*
X238020Y657796D01*
X238090Y657836D01*
X238162Y657872D01*
X238236Y657904D01*
X238310Y657933D01*
X238387Y657959D01*
X238464Y657980D01*
X238543Y657998D01*
X238622Y658011D01*
X238702Y658021D01*
X238782Y658027D01*
X238862Y658029D01*
X240499Y658029D01*
X245595Y658030D02*
X245680Y658028D01*
X245765Y658022D01*
X245849Y658012D01*
X245933Y657999D01*
X246017Y657981D01*
X246099Y657960D01*
X246180Y657935D01*
X246260Y657906D01*
X246339Y657873D01*
X246416Y657837D01*
X246491Y657797D01*
X246565Y657754D01*
X246636Y657708D01*
X246705Y657658D01*
X246772Y657605D01*
X246836Y657549D01*
X246897Y657490D01*
X246956Y657429D01*
X247012Y657365D01*
X247065Y657298D01*
X247115Y657229D01*
X247161Y657158D01*
X247204Y657084D01*
X247244Y657009D01*
X247280Y656932D01*
X247313Y656853D01*
X247342Y656773D01*
X247367Y656692D01*
X247388Y656610D01*
X247406Y656526D01*
X247419Y656442D01*
X247429Y656358D01*
X247435Y656273D01*
X247437Y656188D01*
X245595Y658029D02*
X245499Y658027D01*
X245403Y658021D01*
X245308Y658011D01*
X245213Y657998D01*
X245118Y657980D01*
X245025Y657959D01*
X244932Y657934D01*
X244841Y657905D01*
X244750Y657873D01*
X244661Y657837D01*
X244574Y657797D01*
X244488Y657754D01*
X244404Y657708D01*
X244322Y657658D01*
X244242Y657604D01*
X244165Y657548D01*
X244090Y657488D01*
X244017Y657426D01*
X243947Y657360D01*
X243879Y657292D01*
X243814Y657221D01*
X243753Y657148D01*
X243694Y657072D01*
X243638Y656993D01*
X243586Y656913D01*
X243537Y656830D01*
X243491Y656746D01*
X243449Y656660D01*
X243411Y656572D01*
X243376Y656483D01*
X243344Y656392D01*
X246822Y654756D02*
X246882Y654815D01*
X246939Y654877D01*
X246994Y654941D01*
X247045Y655008D01*
X247094Y655077D01*
X247140Y655147D01*
X247183Y655220D01*
X247223Y655294D01*
X247259Y655370D01*
X247292Y655448D01*
X247322Y655527D01*
X247349Y655607D01*
X247372Y655688D01*
X247391Y655770D01*
X247407Y655852D01*
X247420Y655936D01*
X247429Y656020D01*
X247434Y656104D01*
X247436Y656188D01*
X246823Y654755D02*
X243344Y650663D01*
X247436Y650663D01*
D27*
X298283Y647627D03*
D28*
X305321Y646553D02*
X305321Y645127D01*
X305321Y646553D02*
X350321Y646553D01*
X350321Y645127D01*
X305321Y596979D02*
X305321Y595553D01*
X350321Y595553D01*
X350321Y596979D01*
X350321Y595553D02*
X305321Y595553D01*
X305321Y646553D01*
X350321Y646553D01*
X350321Y595553D01*
D12*
X307263Y650508D02*
X307263Y657874D01*
X306445Y650508D02*
X308082Y650508D01*
X308082Y657874D02*
X306445Y657874D01*
X312683Y650508D02*
X314320Y650508D01*
X312683Y650508D02*
X312605Y650510D01*
X312527Y650515D01*
X312450Y650525D01*
X312373Y650538D01*
X312297Y650554D01*
X312222Y650574D01*
X312148Y650598D01*
X312075Y650625D01*
X312003Y650656D01*
X311933Y650690D01*
X311865Y650727D01*
X311798Y650768D01*
X311733Y650812D01*
X311671Y650858D01*
X311611Y650908D01*
X311553Y650960D01*
X311498Y651015D01*
X311446Y651073D01*
X311396Y651133D01*
X311350Y651195D01*
X311306Y651260D01*
X311265Y651327D01*
X311228Y651395D01*
X311194Y651465D01*
X311163Y651537D01*
X311136Y651610D01*
X311112Y651684D01*
X311092Y651759D01*
X311076Y651835D01*
X311063Y651912D01*
X311053Y651989D01*
X311048Y652067D01*
X311046Y652145D01*
X311046Y656237D01*
X311048Y656317D01*
X311054Y656397D01*
X311064Y656477D01*
X311077Y656556D01*
X311095Y656635D01*
X311116Y656712D01*
X311142Y656788D01*
X311171Y656863D01*
X311203Y656937D01*
X311239Y657009D01*
X311279Y657079D01*
X311322Y657146D01*
X311368Y657212D01*
X311418Y657275D01*
X311470Y657336D01*
X311525Y657395D01*
X311584Y657450D01*
X311644Y657502D01*
X311708Y657552D01*
X311774Y657598D01*
X311841Y657641D01*
X311911Y657681D01*
X311983Y657717D01*
X312057Y657749D01*
X312131Y657778D01*
X312208Y657804D01*
X312285Y657825D01*
X312364Y657843D01*
X312443Y657856D01*
X312523Y657866D01*
X312603Y657872D01*
X312683Y657874D01*
X314320Y657874D01*
X317165Y650508D02*
X319211Y650508D01*
X319300Y650510D01*
X319389Y650516D01*
X319478Y650526D01*
X319566Y650539D01*
X319654Y650556D01*
X319741Y650578D01*
X319826Y650603D01*
X319911Y650631D01*
X319994Y650664D01*
X320076Y650700D01*
X320156Y650739D01*
X320234Y650782D01*
X320310Y650828D01*
X320385Y650878D01*
X320457Y650931D01*
X320526Y650987D01*
X320593Y651046D01*
X320658Y651107D01*
X320719Y651172D01*
X320778Y651239D01*
X320834Y651308D01*
X320887Y651380D01*
X320937Y651455D01*
X320983Y651531D01*
X321026Y651609D01*
X321065Y651689D01*
X321101Y651771D01*
X321134Y651854D01*
X321162Y651939D01*
X321187Y652024D01*
X321209Y652111D01*
X321226Y652199D01*
X321239Y652287D01*
X321249Y652376D01*
X321255Y652465D01*
X321257Y652554D01*
X321255Y652643D01*
X321249Y652732D01*
X321239Y652821D01*
X321226Y652909D01*
X321209Y652997D01*
X321187Y653084D01*
X321162Y653169D01*
X321134Y653254D01*
X321101Y653337D01*
X321065Y653419D01*
X321026Y653499D01*
X320983Y653577D01*
X320937Y653653D01*
X320887Y653728D01*
X320834Y653800D01*
X320778Y653869D01*
X320719Y653936D01*
X320658Y654001D01*
X320593Y654062D01*
X320526Y654121D01*
X320457Y654177D01*
X320385Y654230D01*
X320310Y654280D01*
X320234Y654326D01*
X320156Y654369D01*
X320076Y654408D01*
X319994Y654444D01*
X319911Y654477D01*
X319826Y654505D01*
X319741Y654530D01*
X319654Y654552D01*
X319566Y654569D01*
X319478Y654582D01*
X319389Y654592D01*
X319300Y654598D01*
X319211Y654600D01*
X319620Y657874D02*
X317165Y657874D01*
X319620Y657874D02*
X319699Y657872D01*
X319778Y657866D01*
X319857Y657857D01*
X319935Y657844D01*
X320012Y657826D01*
X320088Y657806D01*
X320163Y657781D01*
X320237Y657753D01*
X320310Y657722D01*
X320381Y657686D01*
X320450Y657648D01*
X320517Y657606D01*
X320582Y657561D01*
X320645Y657513D01*
X320706Y657462D01*
X320763Y657408D01*
X320819Y657352D01*
X320871Y657293D01*
X320921Y657231D01*
X320967Y657167D01*
X321011Y657101D01*
X321051Y657033D01*
X321087Y656963D01*
X321121Y656891D01*
X321151Y656817D01*
X321177Y656743D01*
X321200Y656667D01*
X321218Y656590D01*
X321234Y656513D01*
X321245Y656434D01*
X321253Y656356D01*
X321257Y656277D01*
X321257Y656197D01*
X321253Y656118D01*
X321245Y656040D01*
X321234Y655961D01*
X321218Y655884D01*
X321200Y655807D01*
X321177Y655731D01*
X321151Y655657D01*
X321121Y655583D01*
X321087Y655511D01*
X321051Y655441D01*
X321011Y655373D01*
X320967Y655307D01*
X320921Y655243D01*
X320871Y655181D01*
X320819Y655122D01*
X320763Y655066D01*
X320706Y655012D01*
X320645Y654961D01*
X320582Y654913D01*
X320517Y654868D01*
X320450Y654826D01*
X320381Y654788D01*
X320310Y654752D01*
X320237Y654721D01*
X320163Y654693D01*
X320088Y654668D01*
X320012Y654648D01*
X319935Y654630D01*
X319857Y654617D01*
X319778Y654608D01*
X319699Y654602D01*
X319620Y654600D01*
X317984Y654600D01*
D16*
X87590Y566500D02*
X31440Y566500D01*
X31440Y754300D01*
X87590Y754300D01*
X87590Y566500D01*
D17*
X85090Y569000D02*
X34290Y569000D01*
X34290Y751800D01*
X85090Y751800D01*
X85090Y569000D01*
D18*
X85090Y584200D02*
X85090Y751800D01*
X33940Y751800D01*
X33940Y569000D01*
X72390Y569000D01*
X366630Y679130D02*
X366630Y829630D01*
X514130Y829630D01*
X514130Y679130D01*
X366630Y679130D01*
D17*
X342630Y658130D02*
X342630Y850630D01*
X524130Y850630D01*
X524130Y658130D01*
X342630Y658130D01*
X486630Y679130D02*
X514130Y679130D01*
X514130Y829630D01*
X486630Y829630D01*
X450880Y679130D02*
X396630Y679130D01*
X396630Y829630D02*
X450880Y829630D01*
X366630Y824380D02*
X366630Y782380D01*
D29*
X347880Y774380D03*
D18*
X347942Y774382D01*
X348003Y774388D01*
X348064Y774397D01*
X348124Y774410D01*
X348183Y774427D01*
X348241Y774448D01*
X348298Y774472D01*
X348353Y774499D01*
X348406Y774530D01*
X348458Y774564D01*
X348507Y774601D01*
X348554Y774641D01*
X348598Y774684D01*
X348639Y774729D01*
X348678Y774777D01*
X348714Y774828D01*
X348746Y774880D01*
X348775Y774934D01*
X348801Y774990D01*
X348823Y775048D01*
X348842Y775106D01*
X348857Y775166D01*
X348868Y775227D01*
X348876Y775288D01*
X348880Y775349D01*
X348880Y775411D01*
X348876Y775472D01*
X348868Y775533D01*
X348857Y775594D01*
X348842Y775654D01*
X348823Y775712D01*
X348801Y775770D01*
X348775Y775826D01*
X348746Y775880D01*
X348714Y775932D01*
X348678Y775983D01*
X348639Y776031D01*
X348598Y776076D01*
X348554Y776119D01*
X348507Y776159D01*
X348458Y776196D01*
X348406Y776230D01*
X348353Y776261D01*
X348298Y776288D01*
X348241Y776312D01*
X348183Y776333D01*
X348124Y776350D01*
X348064Y776363D01*
X348003Y776372D01*
X347942Y776378D01*
X347880Y776380D01*
D29*
X347880Y776380D03*
D18*
X347818Y776378D01*
X347757Y776372D01*
X347696Y776363D01*
X347636Y776350D01*
X347577Y776333D01*
X347519Y776312D01*
X347462Y776288D01*
X347407Y776261D01*
X347354Y776230D01*
X347302Y776196D01*
X347253Y776159D01*
X347206Y776119D01*
X347162Y776076D01*
X347121Y776031D01*
X347082Y775983D01*
X347046Y775932D01*
X347014Y775880D01*
X346985Y775826D01*
X346959Y775770D01*
X346937Y775712D01*
X346918Y775654D01*
X346903Y775594D01*
X346892Y775533D01*
X346884Y775472D01*
X346880Y775411D01*
X346880Y775349D01*
X346884Y775288D01*
X346892Y775227D01*
X346903Y775166D01*
X346918Y775106D01*
X346937Y775048D01*
X346959Y774990D01*
X346985Y774934D01*
X347014Y774880D01*
X347046Y774828D01*
X347082Y774777D01*
X347121Y774729D01*
X347162Y774684D01*
X347206Y774641D01*
X347253Y774601D01*
X347302Y774564D01*
X347354Y774530D01*
X347407Y774499D01*
X347462Y774472D01*
X347519Y774448D01*
X347577Y774427D01*
X347636Y774410D01*
X347696Y774397D01*
X347757Y774388D01*
X347818Y774382D01*
X347880Y774380D01*
D30*
X107950Y546100D02*
X95250Y546100D01*
X107950Y546100D02*
X114300Y539750D01*
X114300Y527050D01*
X107950Y520700D01*
X114300Y539750D02*
X120650Y546100D01*
X133350Y546100D01*
X139700Y539750D01*
X139700Y527050D01*
X133350Y520700D01*
X120650Y520700D01*
X114300Y527050D01*
X69850Y546100D02*
X63500Y539750D01*
X69850Y546100D02*
X82550Y546100D01*
X88900Y539750D01*
X88900Y527050D01*
X82550Y520700D01*
X69850Y520700D01*
X63500Y527050D01*
X88900Y539750D02*
X95250Y546100D01*
X88900Y527050D02*
X95250Y520700D01*
X107950Y520700D01*
X31750Y546100D02*
X19050Y546100D01*
X31750Y546100D02*
X38100Y539750D01*
X38100Y527050D01*
X31750Y520700D01*
X38100Y539750D02*
X44450Y546100D01*
X57150Y546100D01*
X63500Y539750D01*
X63500Y527050D01*
X57150Y520700D01*
X44450Y520700D01*
X38100Y527050D01*
X12700Y527050D02*
X12700Y539750D01*
X19050Y546100D01*
X12700Y527050D02*
X19050Y520700D01*
X31750Y520700D01*
X146050Y546100D02*
X158750Y546100D01*
X165100Y539750D01*
X165100Y527050D01*
X158750Y520700D01*
X139700Y539750D02*
X146050Y546100D01*
X139700Y527050D02*
X146050Y520700D01*
X158750Y520700D01*
D31*
X127000Y533400D03*
X101600Y533400D03*
X76200Y533400D03*
X50800Y533400D03*
X25400Y533400D03*
X152400Y533400D03*
D30*
X185130Y808990D02*
X193330Y808990D01*
X193330Y796290D02*
X185130Y796290D01*
D32*
X196544Y802655D03*
X181812Y802655D03*
D12*
X209931Y798523D02*
X217297Y798523D01*
X209931Y798523D02*
X209931Y800569D01*
X209933Y800658D01*
X209939Y800747D01*
X209949Y800836D01*
X209962Y800924D01*
X209979Y801012D01*
X210001Y801099D01*
X210026Y801184D01*
X210054Y801269D01*
X210087Y801352D01*
X210123Y801434D01*
X210162Y801514D01*
X210205Y801592D01*
X210251Y801668D01*
X210301Y801743D01*
X210354Y801815D01*
X210410Y801884D01*
X210469Y801951D01*
X210530Y802016D01*
X210595Y802077D01*
X210662Y802136D01*
X210731Y802192D01*
X210803Y802245D01*
X210878Y802295D01*
X210954Y802341D01*
X211032Y802384D01*
X211112Y802423D01*
X211194Y802459D01*
X211277Y802492D01*
X211362Y802520D01*
X211447Y802545D01*
X211534Y802567D01*
X211622Y802584D01*
X211710Y802597D01*
X211799Y802607D01*
X211888Y802613D01*
X211977Y802615D01*
X212066Y802613D01*
X212155Y802607D01*
X212244Y802597D01*
X212332Y802584D01*
X212420Y802567D01*
X212507Y802545D01*
X212592Y802520D01*
X212677Y802492D01*
X212760Y802459D01*
X212842Y802423D01*
X212922Y802384D01*
X213000Y802341D01*
X213076Y802295D01*
X213151Y802245D01*
X213223Y802192D01*
X213292Y802136D01*
X213359Y802077D01*
X213424Y802016D01*
X213485Y801951D01*
X213544Y801884D01*
X213600Y801815D01*
X213653Y801743D01*
X213703Y801668D01*
X213749Y801592D01*
X213792Y801514D01*
X213831Y801434D01*
X213867Y801352D01*
X213900Y801269D01*
X213928Y801184D01*
X213953Y801099D01*
X213975Y801012D01*
X213992Y800924D01*
X214005Y800836D01*
X214015Y800747D01*
X214021Y800658D01*
X214023Y800569D01*
X214023Y798523D01*
X214023Y800978D02*
X217297Y802615D01*
X211568Y805787D02*
X209931Y807833D01*
X217297Y807833D01*
X217297Y805787D02*
X217297Y809879D01*
D30*
X349121Y581683D02*
X357321Y581683D01*
X357321Y568983D02*
X349121Y568983D01*
D32*
X360535Y575348D03*
X345803Y575348D03*
D12*
X352332Y565300D02*
X352332Y557934D01*
X352332Y565300D02*
X354378Y565300D01*
X354467Y565298D01*
X354556Y565292D01*
X354645Y565282D01*
X354733Y565269D01*
X354821Y565252D01*
X354908Y565230D01*
X354993Y565205D01*
X355078Y565177D01*
X355161Y565144D01*
X355243Y565108D01*
X355323Y565069D01*
X355401Y565026D01*
X355477Y564980D01*
X355552Y564930D01*
X355624Y564877D01*
X355693Y564821D01*
X355760Y564762D01*
X355825Y564701D01*
X355886Y564636D01*
X355945Y564569D01*
X356001Y564500D01*
X356054Y564428D01*
X356104Y564353D01*
X356150Y564277D01*
X356193Y564199D01*
X356232Y564119D01*
X356268Y564037D01*
X356301Y563954D01*
X356329Y563869D01*
X356354Y563784D01*
X356376Y563697D01*
X356393Y563609D01*
X356406Y563521D01*
X356416Y563432D01*
X356422Y563343D01*
X356424Y563254D01*
X356422Y563165D01*
X356416Y563076D01*
X356406Y562987D01*
X356393Y562899D01*
X356376Y562811D01*
X356354Y562724D01*
X356329Y562639D01*
X356301Y562554D01*
X356268Y562471D01*
X356232Y562389D01*
X356193Y562309D01*
X356150Y562231D01*
X356104Y562155D01*
X356054Y562080D01*
X356001Y562008D01*
X355945Y561939D01*
X355886Y561872D01*
X355825Y561807D01*
X355760Y561746D01*
X355693Y561687D01*
X355624Y561631D01*
X355552Y561578D01*
X355477Y561528D01*
X355401Y561482D01*
X355323Y561439D01*
X355243Y561400D01*
X355161Y561364D01*
X355078Y561331D01*
X354993Y561303D01*
X354908Y561278D01*
X354821Y561256D01*
X354733Y561239D01*
X354645Y561226D01*
X354556Y561216D01*
X354467Y561210D01*
X354378Y561208D01*
X354378Y561207D02*
X352332Y561207D01*
X354787Y561207D02*
X356424Y557934D01*
X359596Y563663D02*
X361642Y565300D01*
X361642Y557934D01*
X359596Y557934D02*
X363688Y557934D01*
X366912Y561617D02*
X366914Y561770D01*
X366920Y561923D01*
X366929Y562075D01*
X366943Y562228D01*
X366960Y562380D01*
X366981Y562531D01*
X367006Y562682D01*
X367035Y562832D01*
X367067Y562982D01*
X367104Y563130D01*
X367144Y563278D01*
X367187Y563425D01*
X367235Y563570D01*
X367286Y563714D01*
X367340Y563857D01*
X367399Y563999D01*
X367460Y564138D01*
X367526Y564277D01*
X367525Y564277D02*
X367551Y564347D01*
X367581Y564417D01*
X367614Y564484D01*
X367650Y564550D01*
X367689Y564614D01*
X367732Y564676D01*
X367778Y564735D01*
X367826Y564793D01*
X367877Y564847D01*
X367931Y564900D01*
X367988Y564949D01*
X368047Y564996D01*
X368108Y565039D01*
X368171Y565080D01*
X368236Y565117D01*
X368303Y565152D01*
X368372Y565182D01*
X368442Y565210D01*
X368513Y565233D01*
X368585Y565254D01*
X368658Y565270D01*
X368732Y565283D01*
X368807Y565293D01*
X368882Y565298D01*
X368957Y565300D01*
X369032Y565298D01*
X369107Y565293D01*
X369182Y565283D01*
X369256Y565270D01*
X369329Y565254D01*
X369401Y565233D01*
X369472Y565210D01*
X369542Y565182D01*
X369611Y565152D01*
X369678Y565117D01*
X369743Y565080D01*
X369806Y565039D01*
X369867Y564996D01*
X369926Y564949D01*
X369983Y564900D01*
X370037Y564847D01*
X370088Y564793D01*
X370137Y564735D01*
X370182Y564676D01*
X370225Y564614D01*
X370264Y564550D01*
X370301Y564484D01*
X370333Y564416D01*
X370363Y564347D01*
X370389Y564277D01*
X370454Y564139D01*
X370516Y563999D01*
X370574Y563857D01*
X370629Y563714D01*
X370680Y563570D01*
X370728Y563425D01*
X370771Y563278D01*
X370811Y563131D01*
X370848Y562982D01*
X370880Y562832D01*
X370909Y562682D01*
X370934Y562531D01*
X370955Y562380D01*
X370972Y562228D01*
X370986Y562075D01*
X370995Y561923D01*
X371001Y561770D01*
X371003Y561617D01*
X366911Y561617D02*
X366913Y561464D01*
X366919Y561311D01*
X366928Y561158D01*
X366942Y561006D01*
X366959Y560854D01*
X366980Y560703D01*
X367005Y560552D01*
X367034Y560401D01*
X367066Y560252D01*
X367103Y560103D01*
X367143Y559956D01*
X367186Y559809D01*
X367234Y559664D01*
X367285Y559519D01*
X367340Y559377D01*
X367398Y559235D01*
X367460Y559095D01*
X367525Y558957D01*
X367551Y558886D01*
X367581Y558817D01*
X367614Y558750D01*
X367650Y558684D01*
X367689Y558620D01*
X367732Y558558D01*
X367778Y558499D01*
X367826Y558441D01*
X367877Y558387D01*
X367931Y558334D01*
X367988Y558285D01*
X368047Y558238D01*
X368108Y558195D01*
X368171Y558154D01*
X368236Y558117D01*
X368303Y558082D01*
X368372Y558052D01*
X368442Y558024D01*
X368513Y558001D01*
X368585Y557980D01*
X368658Y557964D01*
X368732Y557951D01*
X368807Y557941D01*
X368882Y557936D01*
X368957Y557934D01*
X370389Y558957D02*
X370454Y559095D01*
X370516Y559235D01*
X370574Y559377D01*
X370629Y559520D01*
X370680Y559664D01*
X370728Y559809D01*
X370771Y559956D01*
X370811Y560104D01*
X370848Y560252D01*
X370880Y560402D01*
X370909Y560552D01*
X370934Y560703D01*
X370955Y560854D01*
X370972Y561006D01*
X370986Y561159D01*
X370995Y561311D01*
X371001Y561464D01*
X371003Y561617D01*
X370389Y558957D02*
X370363Y558887D01*
X370333Y558817D01*
X370301Y558750D01*
X370264Y558684D01*
X370225Y558620D01*
X370182Y558558D01*
X370136Y558499D01*
X370088Y558441D01*
X370037Y558387D01*
X369983Y558334D01*
X369926Y558285D01*
X369867Y558238D01*
X369806Y558195D01*
X369743Y558154D01*
X369678Y558117D01*
X369611Y558082D01*
X369542Y558052D01*
X369472Y558024D01*
X369401Y558001D01*
X369329Y557980D01*
X369256Y557964D01*
X369182Y557951D01*
X369107Y557941D01*
X369032Y557936D01*
X368957Y557934D01*
X367320Y559571D02*
X370594Y563663D01*
D30*
X193330Y821690D02*
X185130Y821690D01*
X185130Y834390D02*
X193330Y834390D01*
D32*
X181916Y828025D03*
X196648Y828025D03*
D12*
X209931Y822653D02*
X217297Y822653D01*
X209931Y822653D02*
X209931Y824699D01*
X209933Y824788D01*
X209939Y824877D01*
X209949Y824966D01*
X209962Y825054D01*
X209979Y825142D01*
X210001Y825229D01*
X210026Y825314D01*
X210054Y825399D01*
X210087Y825482D01*
X210123Y825564D01*
X210162Y825644D01*
X210205Y825722D01*
X210251Y825798D01*
X210301Y825873D01*
X210354Y825945D01*
X210410Y826014D01*
X210469Y826081D01*
X210530Y826146D01*
X210595Y826207D01*
X210662Y826266D01*
X210731Y826322D01*
X210803Y826375D01*
X210878Y826425D01*
X210954Y826471D01*
X211032Y826514D01*
X211112Y826553D01*
X211194Y826589D01*
X211277Y826622D01*
X211362Y826650D01*
X211447Y826675D01*
X211534Y826697D01*
X211622Y826714D01*
X211710Y826727D01*
X211799Y826737D01*
X211888Y826743D01*
X211977Y826745D01*
X212066Y826743D01*
X212155Y826737D01*
X212244Y826727D01*
X212332Y826714D01*
X212420Y826697D01*
X212507Y826675D01*
X212592Y826650D01*
X212677Y826622D01*
X212760Y826589D01*
X212842Y826553D01*
X212922Y826514D01*
X213000Y826471D01*
X213076Y826425D01*
X213151Y826375D01*
X213223Y826322D01*
X213292Y826266D01*
X213359Y826207D01*
X213424Y826146D01*
X213485Y826081D01*
X213544Y826014D01*
X213600Y825945D01*
X213653Y825873D01*
X213703Y825798D01*
X213749Y825722D01*
X213792Y825644D01*
X213831Y825564D01*
X213867Y825482D01*
X213900Y825399D01*
X213928Y825314D01*
X213953Y825229D01*
X213975Y825142D01*
X213992Y825054D01*
X214005Y824966D01*
X214015Y824877D01*
X214021Y824788D01*
X214023Y824699D01*
X214023Y822653D01*
X214023Y825108D02*
X217297Y826745D01*
X211773Y834010D02*
X211688Y834008D01*
X211603Y834002D01*
X211519Y833992D01*
X211435Y833979D01*
X211351Y833961D01*
X211269Y833940D01*
X211188Y833915D01*
X211108Y833886D01*
X211029Y833853D01*
X210952Y833817D01*
X210877Y833777D01*
X210803Y833734D01*
X210732Y833688D01*
X210663Y833638D01*
X210596Y833585D01*
X210532Y833529D01*
X210471Y833470D01*
X210412Y833409D01*
X210356Y833345D01*
X210303Y833278D01*
X210253Y833209D01*
X210207Y833138D01*
X210164Y833064D01*
X210124Y832989D01*
X210088Y832912D01*
X210055Y832833D01*
X210026Y832753D01*
X210001Y832672D01*
X209980Y832590D01*
X209962Y832506D01*
X209949Y832422D01*
X209939Y832338D01*
X209933Y832253D01*
X209931Y832168D01*
X209933Y832072D01*
X209939Y831976D01*
X209949Y831881D01*
X209962Y831786D01*
X209980Y831691D01*
X210001Y831598D01*
X210026Y831505D01*
X210055Y831414D01*
X210087Y831323D01*
X210123Y831234D01*
X210163Y831147D01*
X210206Y831061D01*
X210252Y830977D01*
X210302Y830895D01*
X210356Y830815D01*
X210412Y830738D01*
X210472Y830663D01*
X210534Y830590D01*
X210600Y830520D01*
X210668Y830452D01*
X210739Y830387D01*
X210812Y830326D01*
X210888Y830267D01*
X210967Y830211D01*
X211047Y830159D01*
X211130Y830110D01*
X211214Y830064D01*
X211300Y830022D01*
X211388Y829984D01*
X211477Y829949D01*
X211568Y829917D01*
X213205Y833395D02*
X213146Y833455D01*
X213084Y833512D01*
X213020Y833567D01*
X212953Y833618D01*
X212884Y833667D01*
X212814Y833713D01*
X212741Y833756D01*
X212667Y833796D01*
X212591Y833832D01*
X212513Y833865D01*
X212434Y833895D01*
X212354Y833922D01*
X212273Y833945D01*
X212191Y833964D01*
X212109Y833980D01*
X212025Y833993D01*
X211941Y834002D01*
X211857Y834007D01*
X211773Y834009D01*
X213205Y833395D02*
X217297Y829917D01*
X217297Y834009D01*
D30*
X141260Y821690D02*
X133060Y821690D01*
X133060Y834390D02*
X141260Y834390D01*
D32*
X129846Y828025D03*
X144578Y828025D03*
D12*
X157861Y822653D02*
X165227Y822653D01*
X157861Y822653D02*
X157861Y824699D01*
X157863Y824788D01*
X157869Y824877D01*
X157879Y824966D01*
X157892Y825054D01*
X157909Y825142D01*
X157931Y825229D01*
X157956Y825314D01*
X157984Y825399D01*
X158017Y825482D01*
X158053Y825564D01*
X158092Y825644D01*
X158135Y825722D01*
X158181Y825798D01*
X158231Y825873D01*
X158284Y825945D01*
X158340Y826014D01*
X158399Y826081D01*
X158460Y826146D01*
X158525Y826207D01*
X158592Y826266D01*
X158661Y826322D01*
X158733Y826375D01*
X158808Y826425D01*
X158884Y826471D01*
X158962Y826514D01*
X159042Y826553D01*
X159124Y826589D01*
X159207Y826622D01*
X159292Y826650D01*
X159377Y826675D01*
X159464Y826697D01*
X159552Y826714D01*
X159640Y826727D01*
X159729Y826737D01*
X159818Y826743D01*
X159907Y826745D01*
X159996Y826743D01*
X160085Y826737D01*
X160174Y826727D01*
X160262Y826714D01*
X160350Y826697D01*
X160437Y826675D01*
X160522Y826650D01*
X160607Y826622D01*
X160690Y826589D01*
X160772Y826553D01*
X160852Y826514D01*
X160930Y826471D01*
X161006Y826425D01*
X161081Y826375D01*
X161153Y826322D01*
X161222Y826266D01*
X161289Y826207D01*
X161354Y826146D01*
X161415Y826081D01*
X161474Y826014D01*
X161530Y825945D01*
X161583Y825873D01*
X161633Y825798D01*
X161679Y825722D01*
X161722Y825644D01*
X161761Y825564D01*
X161797Y825482D01*
X161830Y825399D01*
X161858Y825314D01*
X161883Y825229D01*
X161905Y825142D01*
X161922Y825054D01*
X161935Y824966D01*
X161945Y824877D01*
X161951Y824788D01*
X161953Y824699D01*
X161953Y822653D01*
X161953Y825108D02*
X165227Y826745D01*
X165227Y829917D02*
X165227Y831963D01*
X165225Y832052D01*
X165219Y832141D01*
X165209Y832230D01*
X165196Y832318D01*
X165179Y832406D01*
X165157Y832493D01*
X165132Y832578D01*
X165104Y832663D01*
X165071Y832746D01*
X165035Y832828D01*
X164996Y832908D01*
X164953Y832986D01*
X164907Y833062D01*
X164857Y833137D01*
X164804Y833209D01*
X164748Y833278D01*
X164689Y833345D01*
X164628Y833410D01*
X164563Y833471D01*
X164496Y833530D01*
X164427Y833586D01*
X164355Y833639D01*
X164280Y833689D01*
X164204Y833735D01*
X164126Y833778D01*
X164046Y833817D01*
X163964Y833853D01*
X163881Y833886D01*
X163796Y833914D01*
X163711Y833939D01*
X163624Y833961D01*
X163536Y833978D01*
X163448Y833991D01*
X163359Y834001D01*
X163270Y834007D01*
X163181Y834009D01*
X163092Y834007D01*
X163003Y834001D01*
X162914Y833991D01*
X162826Y833978D01*
X162738Y833961D01*
X162651Y833939D01*
X162566Y833914D01*
X162481Y833886D01*
X162398Y833853D01*
X162316Y833817D01*
X162236Y833778D01*
X162158Y833735D01*
X162082Y833689D01*
X162007Y833639D01*
X161935Y833586D01*
X161866Y833530D01*
X161799Y833471D01*
X161734Y833410D01*
X161673Y833345D01*
X161614Y833278D01*
X161558Y833209D01*
X161505Y833137D01*
X161455Y833062D01*
X161409Y832986D01*
X161366Y832908D01*
X161327Y832828D01*
X161291Y832746D01*
X161258Y832663D01*
X161230Y832578D01*
X161205Y832493D01*
X161183Y832406D01*
X161166Y832318D01*
X161153Y832230D01*
X161143Y832141D01*
X161137Y832052D01*
X161135Y831963D01*
X157861Y832372D02*
X157861Y829917D01*
X157861Y832372D02*
X157863Y832451D01*
X157869Y832530D01*
X157878Y832609D01*
X157891Y832687D01*
X157909Y832764D01*
X157929Y832840D01*
X157954Y832915D01*
X157982Y832989D01*
X158013Y833062D01*
X158049Y833133D01*
X158087Y833202D01*
X158129Y833269D01*
X158174Y833334D01*
X158222Y833397D01*
X158273Y833458D01*
X158327Y833515D01*
X158383Y833571D01*
X158442Y833623D01*
X158504Y833673D01*
X158568Y833719D01*
X158634Y833763D01*
X158702Y833803D01*
X158772Y833839D01*
X158844Y833873D01*
X158918Y833903D01*
X158992Y833929D01*
X159068Y833952D01*
X159145Y833970D01*
X159222Y833986D01*
X159301Y833997D01*
X159379Y834005D01*
X159458Y834009D01*
X159538Y834009D01*
X159617Y834005D01*
X159695Y833997D01*
X159774Y833986D01*
X159851Y833970D01*
X159928Y833952D01*
X160004Y833929D01*
X160078Y833903D01*
X160152Y833873D01*
X160224Y833839D01*
X160294Y833803D01*
X160362Y833763D01*
X160428Y833719D01*
X160492Y833673D01*
X160554Y833623D01*
X160613Y833571D01*
X160669Y833515D01*
X160723Y833458D01*
X160774Y833397D01*
X160822Y833334D01*
X160867Y833269D01*
X160909Y833202D01*
X160947Y833133D01*
X160983Y833062D01*
X161014Y832989D01*
X161042Y832915D01*
X161067Y832840D01*
X161087Y832764D01*
X161105Y832687D01*
X161118Y832609D01*
X161127Y832530D01*
X161133Y832451D01*
X161135Y832372D01*
X161135Y830735D01*
D30*
X256411Y568983D02*
X264611Y568983D01*
X264611Y581683D02*
X256411Y581683D01*
D32*
X253197Y575318D03*
X267929Y575318D03*
D12*
X239810Y569364D02*
X232444Y569364D01*
X232444Y571410D01*
X232446Y571499D01*
X232452Y571588D01*
X232462Y571677D01*
X232475Y571765D01*
X232492Y571853D01*
X232514Y571940D01*
X232539Y572025D01*
X232567Y572110D01*
X232600Y572193D01*
X232636Y572275D01*
X232675Y572355D01*
X232718Y572433D01*
X232764Y572509D01*
X232814Y572584D01*
X232867Y572656D01*
X232923Y572725D01*
X232982Y572792D01*
X233043Y572857D01*
X233108Y572918D01*
X233175Y572977D01*
X233244Y573033D01*
X233316Y573086D01*
X233391Y573136D01*
X233467Y573182D01*
X233545Y573225D01*
X233625Y573264D01*
X233707Y573300D01*
X233790Y573333D01*
X233875Y573361D01*
X233960Y573386D01*
X234047Y573408D01*
X234135Y573425D01*
X234223Y573438D01*
X234312Y573448D01*
X234401Y573454D01*
X234490Y573456D01*
X234579Y573454D01*
X234668Y573448D01*
X234757Y573438D01*
X234845Y573425D01*
X234933Y573408D01*
X235020Y573386D01*
X235105Y573361D01*
X235190Y573333D01*
X235273Y573300D01*
X235355Y573264D01*
X235435Y573225D01*
X235513Y573182D01*
X235589Y573136D01*
X235664Y573086D01*
X235736Y573033D01*
X235805Y572977D01*
X235872Y572918D01*
X235937Y572857D01*
X235998Y572792D01*
X236057Y572725D01*
X236113Y572656D01*
X236166Y572584D01*
X236216Y572509D01*
X236262Y572433D01*
X236305Y572355D01*
X236344Y572275D01*
X236380Y572193D01*
X236413Y572110D01*
X236441Y572025D01*
X236466Y571940D01*
X236488Y571853D01*
X236505Y571765D01*
X236518Y571677D01*
X236528Y571588D01*
X236534Y571499D01*
X236536Y571410D01*
X236536Y569364D01*
X236536Y571819D02*
X239810Y573456D01*
X238173Y576628D02*
X232444Y578265D01*
X238173Y576628D02*
X238173Y580720D01*
X236536Y579492D02*
X239810Y579492D01*
D30*
X43470Y834390D02*
X35270Y834390D01*
X35270Y821690D02*
X43470Y821690D01*
D32*
X46684Y828055D03*
X31952Y828055D03*
D12*
X20701Y839851D02*
X20701Y847217D01*
X22747Y847217D01*
X22836Y847215D01*
X22925Y847209D01*
X23014Y847199D01*
X23102Y847186D01*
X23190Y847169D01*
X23277Y847147D01*
X23362Y847122D01*
X23447Y847094D01*
X23530Y847061D01*
X23612Y847025D01*
X23692Y846986D01*
X23770Y846943D01*
X23846Y846897D01*
X23921Y846847D01*
X23993Y846794D01*
X24062Y846738D01*
X24129Y846679D01*
X24194Y846618D01*
X24255Y846553D01*
X24314Y846486D01*
X24370Y846417D01*
X24423Y846345D01*
X24473Y846270D01*
X24519Y846194D01*
X24562Y846116D01*
X24601Y846036D01*
X24637Y845954D01*
X24670Y845871D01*
X24698Y845786D01*
X24723Y845701D01*
X24745Y845614D01*
X24762Y845526D01*
X24775Y845438D01*
X24785Y845349D01*
X24791Y845260D01*
X24793Y845171D01*
X24791Y845082D01*
X24785Y844993D01*
X24775Y844904D01*
X24762Y844816D01*
X24745Y844728D01*
X24723Y844641D01*
X24698Y844556D01*
X24670Y844471D01*
X24637Y844388D01*
X24601Y844306D01*
X24562Y844226D01*
X24519Y844148D01*
X24473Y844072D01*
X24423Y843997D01*
X24370Y843925D01*
X24314Y843856D01*
X24255Y843789D01*
X24194Y843724D01*
X24129Y843663D01*
X24062Y843604D01*
X23993Y843548D01*
X23921Y843495D01*
X23846Y843445D01*
X23770Y843399D01*
X23692Y843356D01*
X23612Y843317D01*
X23530Y843281D01*
X23447Y843248D01*
X23362Y843220D01*
X23277Y843195D01*
X23190Y843173D01*
X23102Y843156D01*
X23014Y843143D01*
X22925Y843133D01*
X22836Y843127D01*
X22747Y843125D01*
X20701Y843125D01*
X23156Y843125D02*
X24793Y839851D01*
X27965Y839851D02*
X30420Y839851D01*
X30498Y839853D01*
X30576Y839858D01*
X30653Y839868D01*
X30730Y839881D01*
X30806Y839897D01*
X30881Y839917D01*
X30955Y839941D01*
X31028Y839968D01*
X31100Y839999D01*
X31170Y840033D01*
X31239Y840070D01*
X31305Y840111D01*
X31370Y840155D01*
X31432Y840201D01*
X31492Y840251D01*
X31550Y840303D01*
X31605Y840358D01*
X31657Y840416D01*
X31707Y840476D01*
X31753Y840538D01*
X31797Y840603D01*
X31838Y840670D01*
X31875Y840738D01*
X31909Y840808D01*
X31940Y840880D01*
X31967Y840953D01*
X31991Y841027D01*
X32011Y841102D01*
X32027Y841178D01*
X32040Y841255D01*
X32050Y841332D01*
X32055Y841410D01*
X32057Y841488D01*
X32057Y842306D01*
X32055Y842384D01*
X32050Y842462D01*
X32040Y842539D01*
X32027Y842616D01*
X32011Y842692D01*
X31991Y842767D01*
X31967Y842841D01*
X31940Y842914D01*
X31909Y842986D01*
X31875Y843056D01*
X31838Y843125D01*
X31797Y843191D01*
X31753Y843256D01*
X31707Y843318D01*
X31657Y843378D01*
X31605Y843436D01*
X31550Y843491D01*
X31492Y843543D01*
X31432Y843593D01*
X31370Y843639D01*
X31305Y843683D01*
X31239Y843724D01*
X31170Y843761D01*
X31100Y843795D01*
X31028Y843826D01*
X30955Y843853D01*
X30881Y843877D01*
X30806Y843897D01*
X30730Y843913D01*
X30653Y843926D01*
X30576Y843936D01*
X30498Y843941D01*
X30420Y843943D01*
X27965Y843943D01*
X27965Y847217D01*
X32057Y847217D01*
D30*
X133060Y796290D02*
X141260Y796290D01*
X141260Y808990D02*
X133060Y808990D01*
D32*
X129846Y802625D03*
X144578Y802625D03*
D12*
X157861Y797253D02*
X165227Y797253D01*
X157861Y797253D02*
X157861Y799299D01*
X157863Y799388D01*
X157869Y799477D01*
X157879Y799566D01*
X157892Y799654D01*
X157909Y799742D01*
X157931Y799829D01*
X157956Y799914D01*
X157984Y799999D01*
X158017Y800082D01*
X158053Y800164D01*
X158092Y800244D01*
X158135Y800322D01*
X158181Y800398D01*
X158231Y800473D01*
X158284Y800545D01*
X158340Y800614D01*
X158399Y800681D01*
X158460Y800746D01*
X158525Y800807D01*
X158592Y800866D01*
X158661Y800922D01*
X158733Y800975D01*
X158808Y801025D01*
X158884Y801071D01*
X158962Y801114D01*
X159042Y801153D01*
X159124Y801189D01*
X159207Y801222D01*
X159292Y801250D01*
X159377Y801275D01*
X159464Y801297D01*
X159552Y801314D01*
X159640Y801327D01*
X159729Y801337D01*
X159818Y801343D01*
X159907Y801345D01*
X159996Y801343D01*
X160085Y801337D01*
X160174Y801327D01*
X160262Y801314D01*
X160350Y801297D01*
X160437Y801275D01*
X160522Y801250D01*
X160607Y801222D01*
X160690Y801189D01*
X160772Y801153D01*
X160852Y801114D01*
X160930Y801071D01*
X161006Y801025D01*
X161081Y800975D01*
X161153Y800922D01*
X161222Y800866D01*
X161289Y800807D01*
X161354Y800746D01*
X161415Y800681D01*
X161474Y800614D01*
X161530Y800545D01*
X161583Y800473D01*
X161633Y800398D01*
X161679Y800322D01*
X161722Y800244D01*
X161761Y800164D01*
X161797Y800082D01*
X161830Y799999D01*
X161858Y799914D01*
X161883Y799829D01*
X161905Y799742D01*
X161922Y799654D01*
X161935Y799566D01*
X161945Y799477D01*
X161951Y799388D01*
X161953Y799299D01*
X161953Y797253D01*
X161953Y799708D02*
X165227Y801345D01*
X161135Y804517D02*
X161135Y806972D01*
X161137Y807050D01*
X161142Y807128D01*
X161152Y807205D01*
X161165Y807282D01*
X161181Y807358D01*
X161201Y807433D01*
X161225Y807507D01*
X161252Y807580D01*
X161283Y807652D01*
X161317Y807722D01*
X161354Y807791D01*
X161395Y807857D01*
X161439Y807922D01*
X161485Y807984D01*
X161535Y808044D01*
X161587Y808102D01*
X161642Y808157D01*
X161700Y808209D01*
X161760Y808259D01*
X161822Y808305D01*
X161887Y808349D01*
X161954Y808390D01*
X162022Y808427D01*
X162092Y808461D01*
X162164Y808492D01*
X162237Y808519D01*
X162311Y808543D01*
X162386Y808563D01*
X162462Y808579D01*
X162539Y808592D01*
X162616Y808602D01*
X162694Y808607D01*
X162772Y808609D01*
X163181Y808609D01*
X163270Y808607D01*
X163359Y808601D01*
X163448Y808591D01*
X163536Y808578D01*
X163624Y808561D01*
X163711Y808539D01*
X163796Y808514D01*
X163881Y808486D01*
X163964Y808453D01*
X164046Y808417D01*
X164126Y808378D01*
X164204Y808335D01*
X164280Y808289D01*
X164355Y808239D01*
X164427Y808186D01*
X164496Y808130D01*
X164563Y808071D01*
X164628Y808010D01*
X164689Y807945D01*
X164748Y807878D01*
X164804Y807809D01*
X164857Y807737D01*
X164907Y807662D01*
X164953Y807586D01*
X164996Y807508D01*
X165035Y807428D01*
X165071Y807346D01*
X165104Y807263D01*
X165132Y807178D01*
X165157Y807093D01*
X165179Y807006D01*
X165196Y806918D01*
X165209Y806830D01*
X165219Y806741D01*
X165225Y806652D01*
X165227Y806563D01*
X165225Y806474D01*
X165219Y806385D01*
X165209Y806296D01*
X165196Y806208D01*
X165179Y806120D01*
X165157Y806033D01*
X165132Y805948D01*
X165104Y805863D01*
X165071Y805780D01*
X165035Y805698D01*
X164996Y805618D01*
X164953Y805540D01*
X164907Y805464D01*
X164857Y805389D01*
X164804Y805317D01*
X164748Y805248D01*
X164689Y805181D01*
X164628Y805116D01*
X164563Y805055D01*
X164496Y804996D01*
X164427Y804940D01*
X164355Y804887D01*
X164280Y804837D01*
X164204Y804791D01*
X164126Y804748D01*
X164046Y804709D01*
X163964Y804673D01*
X163881Y804640D01*
X163796Y804612D01*
X163711Y804587D01*
X163624Y804565D01*
X163536Y804548D01*
X163448Y804535D01*
X163359Y804525D01*
X163270Y804519D01*
X163181Y804517D01*
X161135Y804517D01*
X161021Y804519D01*
X160907Y804525D01*
X160793Y804535D01*
X160679Y804549D01*
X160566Y804567D01*
X160454Y804589D01*
X160343Y804614D01*
X160233Y804644D01*
X160123Y804677D01*
X160015Y804714D01*
X159909Y804755D01*
X159803Y804800D01*
X159700Y804848D01*
X159598Y804900D01*
X159498Y804956D01*
X159400Y805014D01*
X159304Y805077D01*
X159211Y805142D01*
X159119Y805211D01*
X159031Y805283D01*
X158944Y805358D01*
X158861Y805436D01*
X158780Y805517D01*
X158702Y805600D01*
X158627Y805686D01*
X158555Y805775D01*
X158486Y805867D01*
X158421Y805960D01*
X158359Y806056D01*
X158300Y806154D01*
X158244Y806254D01*
X158192Y806356D01*
X158144Y806459D01*
X158099Y806564D01*
X158058Y806671D01*
X158021Y806779D01*
X157988Y806889D01*
X157958Y806999D01*
X157933Y807110D01*
X157911Y807222D01*
X157893Y807335D01*
X157879Y807449D01*
X157869Y807563D01*
X157863Y807677D01*
X157861Y807791D01*
D30*
X256411Y617243D02*
X264611Y617243D01*
X264611Y629943D02*
X256411Y629943D01*
D32*
X253197Y623578D03*
X267929Y623578D03*
D12*
X239810Y617624D02*
X232444Y617624D01*
X232444Y619670D01*
X232446Y619759D01*
X232452Y619848D01*
X232462Y619937D01*
X232475Y620025D01*
X232492Y620113D01*
X232514Y620200D01*
X232539Y620285D01*
X232567Y620370D01*
X232600Y620453D01*
X232636Y620535D01*
X232675Y620615D01*
X232718Y620693D01*
X232764Y620769D01*
X232814Y620844D01*
X232867Y620916D01*
X232923Y620985D01*
X232982Y621052D01*
X233043Y621117D01*
X233108Y621178D01*
X233175Y621237D01*
X233244Y621293D01*
X233316Y621346D01*
X233391Y621396D01*
X233467Y621442D01*
X233545Y621485D01*
X233625Y621524D01*
X233707Y621560D01*
X233790Y621593D01*
X233875Y621621D01*
X233960Y621646D01*
X234047Y621668D01*
X234135Y621685D01*
X234223Y621698D01*
X234312Y621708D01*
X234401Y621714D01*
X234490Y621716D01*
X234579Y621714D01*
X234668Y621708D01*
X234757Y621698D01*
X234845Y621685D01*
X234933Y621668D01*
X235020Y621646D01*
X235105Y621621D01*
X235190Y621593D01*
X235273Y621560D01*
X235355Y621524D01*
X235435Y621485D01*
X235513Y621442D01*
X235589Y621396D01*
X235664Y621346D01*
X235736Y621293D01*
X235805Y621237D01*
X235872Y621178D01*
X235937Y621117D01*
X235998Y621052D01*
X236057Y620985D01*
X236113Y620916D01*
X236166Y620844D01*
X236216Y620769D01*
X236262Y620693D01*
X236305Y620615D01*
X236344Y620535D01*
X236380Y620453D01*
X236413Y620370D01*
X236441Y620285D01*
X236466Y620200D01*
X236488Y620113D01*
X236505Y620025D01*
X236518Y619937D01*
X236528Y619848D01*
X236534Y619759D01*
X236536Y619670D01*
X236536Y617624D01*
X236536Y620079D02*
X239810Y621716D01*
X233262Y624888D02*
X232444Y624888D01*
X232444Y628980D01*
X239810Y626934D01*
D30*
X256411Y593113D02*
X264611Y593113D01*
X264611Y605813D02*
X256411Y605813D01*
D32*
X253197Y599448D03*
X267929Y599448D03*
D12*
X239810Y592224D02*
X232444Y592224D01*
X232444Y594270D01*
X232446Y594359D01*
X232452Y594448D01*
X232462Y594537D01*
X232475Y594625D01*
X232492Y594713D01*
X232514Y594800D01*
X232539Y594885D01*
X232567Y594970D01*
X232600Y595053D01*
X232636Y595135D01*
X232675Y595215D01*
X232718Y595293D01*
X232764Y595369D01*
X232814Y595444D01*
X232867Y595516D01*
X232923Y595585D01*
X232982Y595652D01*
X233043Y595717D01*
X233108Y595778D01*
X233175Y595837D01*
X233244Y595893D01*
X233316Y595946D01*
X233391Y595996D01*
X233467Y596042D01*
X233545Y596085D01*
X233625Y596124D01*
X233707Y596160D01*
X233790Y596193D01*
X233875Y596221D01*
X233960Y596246D01*
X234047Y596268D01*
X234135Y596285D01*
X234223Y596298D01*
X234312Y596308D01*
X234401Y596314D01*
X234490Y596316D01*
X234579Y596314D01*
X234668Y596308D01*
X234757Y596298D01*
X234845Y596285D01*
X234933Y596268D01*
X235020Y596246D01*
X235105Y596221D01*
X235190Y596193D01*
X235273Y596160D01*
X235355Y596124D01*
X235435Y596085D01*
X235513Y596042D01*
X235589Y595996D01*
X235664Y595946D01*
X235736Y595893D01*
X235805Y595837D01*
X235872Y595778D01*
X235937Y595717D01*
X235998Y595652D01*
X236057Y595585D01*
X236113Y595516D01*
X236166Y595444D01*
X236216Y595369D01*
X236262Y595293D01*
X236305Y595215D01*
X236344Y595135D01*
X236380Y595053D01*
X236413Y594970D01*
X236441Y594885D01*
X236466Y594800D01*
X236488Y594713D01*
X236505Y594625D01*
X236518Y594537D01*
X236528Y594448D01*
X236534Y594359D01*
X236536Y594270D01*
X236536Y592224D01*
X236536Y594679D02*
X239810Y596316D01*
X237764Y599488D02*
X237675Y599490D01*
X237586Y599496D01*
X237497Y599506D01*
X237409Y599519D01*
X237321Y599536D01*
X237234Y599558D01*
X237149Y599583D01*
X237064Y599611D01*
X236981Y599644D01*
X236899Y599680D01*
X236819Y599719D01*
X236741Y599762D01*
X236665Y599808D01*
X236590Y599858D01*
X236518Y599911D01*
X236449Y599967D01*
X236382Y600026D01*
X236317Y600087D01*
X236256Y600152D01*
X236197Y600219D01*
X236141Y600288D01*
X236088Y600360D01*
X236038Y600435D01*
X235992Y600511D01*
X235949Y600589D01*
X235910Y600669D01*
X235874Y600751D01*
X235841Y600834D01*
X235813Y600919D01*
X235788Y601004D01*
X235766Y601091D01*
X235749Y601179D01*
X235736Y601267D01*
X235726Y601356D01*
X235720Y601445D01*
X235718Y601534D01*
X235720Y601623D01*
X235726Y601712D01*
X235736Y601801D01*
X235749Y601889D01*
X235766Y601977D01*
X235788Y602064D01*
X235813Y602149D01*
X235841Y602234D01*
X235874Y602317D01*
X235910Y602399D01*
X235949Y602479D01*
X235992Y602557D01*
X236038Y602633D01*
X236088Y602708D01*
X236141Y602780D01*
X236197Y602849D01*
X236256Y602916D01*
X236317Y602981D01*
X236382Y603042D01*
X236449Y603101D01*
X236518Y603157D01*
X236590Y603210D01*
X236665Y603260D01*
X236741Y603306D01*
X236819Y603349D01*
X236899Y603388D01*
X236981Y603424D01*
X237064Y603457D01*
X237149Y603485D01*
X237234Y603510D01*
X237321Y603532D01*
X237409Y603549D01*
X237497Y603562D01*
X237586Y603572D01*
X237675Y603578D01*
X237764Y603580D01*
X237853Y603578D01*
X237942Y603572D01*
X238031Y603562D01*
X238119Y603549D01*
X238207Y603532D01*
X238294Y603510D01*
X238379Y603485D01*
X238464Y603457D01*
X238547Y603424D01*
X238629Y603388D01*
X238709Y603349D01*
X238787Y603306D01*
X238863Y603260D01*
X238938Y603210D01*
X239010Y603157D01*
X239079Y603101D01*
X239146Y603042D01*
X239211Y602981D01*
X239272Y602916D01*
X239331Y602849D01*
X239387Y602780D01*
X239440Y602708D01*
X239490Y602633D01*
X239536Y602557D01*
X239579Y602479D01*
X239618Y602399D01*
X239654Y602317D01*
X239687Y602234D01*
X239715Y602149D01*
X239740Y602064D01*
X239762Y601977D01*
X239779Y601889D01*
X239792Y601801D01*
X239802Y601712D01*
X239808Y601623D01*
X239810Y601534D01*
X239808Y601445D01*
X239802Y601356D01*
X239792Y601267D01*
X239779Y601179D01*
X239762Y601091D01*
X239740Y601004D01*
X239715Y600919D01*
X239687Y600834D01*
X239654Y600751D01*
X239618Y600669D01*
X239579Y600589D01*
X239536Y600511D01*
X239490Y600435D01*
X239440Y600360D01*
X239387Y600288D01*
X239331Y600219D01*
X239272Y600152D01*
X239211Y600087D01*
X239146Y600026D01*
X239079Y599967D01*
X239010Y599911D01*
X238938Y599858D01*
X238863Y599808D01*
X238787Y599762D01*
X238709Y599719D01*
X238629Y599680D01*
X238547Y599644D01*
X238464Y599611D01*
X238379Y599583D01*
X238294Y599558D01*
X238207Y599536D01*
X238119Y599519D01*
X238031Y599506D01*
X237942Y599496D01*
X237853Y599490D01*
X237764Y599488D01*
X234081Y599897D02*
X234002Y599899D01*
X233923Y599905D01*
X233844Y599914D01*
X233766Y599927D01*
X233689Y599945D01*
X233613Y599965D01*
X233538Y599990D01*
X233464Y600018D01*
X233391Y600049D01*
X233320Y600085D01*
X233251Y600123D01*
X233184Y600165D01*
X233119Y600210D01*
X233056Y600258D01*
X232995Y600309D01*
X232938Y600363D01*
X232882Y600419D01*
X232830Y600478D01*
X232780Y600540D01*
X232734Y600604D01*
X232690Y600670D01*
X232650Y600738D01*
X232614Y600808D01*
X232580Y600880D01*
X232550Y600954D01*
X232524Y601028D01*
X232501Y601104D01*
X232483Y601181D01*
X232467Y601258D01*
X232456Y601337D01*
X232448Y601415D01*
X232444Y601494D01*
X232444Y601574D01*
X232448Y601653D01*
X232456Y601731D01*
X232467Y601810D01*
X232483Y601887D01*
X232501Y601964D01*
X232524Y602040D01*
X232550Y602114D01*
X232580Y602188D01*
X232614Y602260D01*
X232650Y602330D01*
X232690Y602398D01*
X232734Y602464D01*
X232780Y602528D01*
X232830Y602590D01*
X232882Y602649D01*
X232938Y602705D01*
X232995Y602759D01*
X233056Y602810D01*
X233119Y602858D01*
X233184Y602903D01*
X233251Y602945D01*
X233320Y602983D01*
X233391Y603019D01*
X233464Y603050D01*
X233538Y603078D01*
X233613Y603103D01*
X233689Y603123D01*
X233766Y603141D01*
X233844Y603154D01*
X233923Y603163D01*
X234002Y603169D01*
X234081Y603171D01*
X234160Y603169D01*
X234239Y603163D01*
X234318Y603154D01*
X234396Y603141D01*
X234473Y603123D01*
X234549Y603103D01*
X234624Y603078D01*
X234698Y603050D01*
X234771Y603019D01*
X234842Y602983D01*
X234911Y602945D01*
X234978Y602903D01*
X235043Y602858D01*
X235106Y602810D01*
X235167Y602759D01*
X235224Y602705D01*
X235280Y602649D01*
X235332Y602590D01*
X235382Y602528D01*
X235428Y602464D01*
X235472Y602398D01*
X235512Y602330D01*
X235548Y602260D01*
X235582Y602188D01*
X235612Y602114D01*
X235638Y602040D01*
X235661Y601964D01*
X235679Y601887D01*
X235695Y601810D01*
X235706Y601731D01*
X235714Y601653D01*
X235718Y601574D01*
X235718Y601494D01*
X235714Y601415D01*
X235706Y601337D01*
X235695Y601258D01*
X235679Y601181D01*
X235661Y601104D01*
X235638Y601028D01*
X235612Y600954D01*
X235582Y600880D01*
X235548Y600808D01*
X235512Y600738D01*
X235472Y600670D01*
X235428Y600604D01*
X235382Y600540D01*
X235332Y600478D01*
X235280Y600419D01*
X235224Y600363D01*
X235167Y600309D01*
X235106Y600258D01*
X235043Y600210D01*
X234978Y600165D01*
X234911Y600123D01*
X234842Y600085D01*
X234771Y600049D01*
X234698Y600018D01*
X234624Y599990D01*
X234549Y599965D01*
X234473Y599945D01*
X234396Y599927D01*
X234318Y599914D01*
X234239Y599905D01*
X234160Y599899D01*
X234081Y599897D01*
D30*
X304671Y568983D02*
X312871Y568983D01*
X312871Y581683D02*
X304671Y581683D01*
D32*
X301457Y575318D03*
X316189Y575318D03*
D12*
X291954Y564792D02*
X291954Y557426D01*
X291954Y564792D02*
X294000Y564792D01*
X294089Y564790D01*
X294178Y564784D01*
X294267Y564774D01*
X294355Y564761D01*
X294443Y564744D01*
X294530Y564722D01*
X294615Y564697D01*
X294700Y564669D01*
X294783Y564636D01*
X294865Y564600D01*
X294945Y564561D01*
X295023Y564518D01*
X295099Y564472D01*
X295174Y564422D01*
X295246Y564369D01*
X295315Y564313D01*
X295382Y564254D01*
X295447Y564193D01*
X295508Y564128D01*
X295567Y564061D01*
X295623Y563992D01*
X295676Y563920D01*
X295726Y563845D01*
X295772Y563769D01*
X295815Y563691D01*
X295854Y563611D01*
X295890Y563529D01*
X295923Y563446D01*
X295951Y563361D01*
X295976Y563276D01*
X295998Y563189D01*
X296015Y563101D01*
X296028Y563013D01*
X296038Y562924D01*
X296044Y562835D01*
X296046Y562746D01*
X296044Y562657D01*
X296038Y562568D01*
X296028Y562479D01*
X296015Y562391D01*
X295998Y562303D01*
X295976Y562216D01*
X295951Y562131D01*
X295923Y562046D01*
X295890Y561963D01*
X295854Y561881D01*
X295815Y561801D01*
X295772Y561723D01*
X295726Y561647D01*
X295676Y561572D01*
X295623Y561500D01*
X295567Y561431D01*
X295508Y561364D01*
X295447Y561299D01*
X295382Y561238D01*
X295315Y561179D01*
X295246Y561123D01*
X295174Y561070D01*
X295099Y561020D01*
X295023Y560974D01*
X294945Y560931D01*
X294865Y560892D01*
X294783Y560856D01*
X294700Y560823D01*
X294615Y560795D01*
X294530Y560770D01*
X294443Y560748D01*
X294355Y560731D01*
X294267Y560718D01*
X294178Y560708D01*
X294089Y560702D01*
X294000Y560700D01*
X294000Y560699D02*
X291954Y560699D01*
X294409Y560699D02*
X296046Y557426D01*
X300855Y560699D02*
X303310Y560699D01*
X300855Y560699D02*
X300777Y560701D01*
X300699Y560706D01*
X300622Y560716D01*
X300545Y560729D01*
X300469Y560745D01*
X300394Y560765D01*
X300320Y560789D01*
X300247Y560816D01*
X300175Y560847D01*
X300105Y560881D01*
X300036Y560918D01*
X299970Y560959D01*
X299905Y561003D01*
X299843Y561049D01*
X299783Y561099D01*
X299725Y561151D01*
X299670Y561206D01*
X299618Y561264D01*
X299568Y561324D01*
X299522Y561386D01*
X299478Y561451D01*
X299437Y561518D01*
X299400Y561586D01*
X299366Y561656D01*
X299335Y561728D01*
X299308Y561801D01*
X299284Y561875D01*
X299264Y561950D01*
X299248Y562026D01*
X299235Y562103D01*
X299225Y562180D01*
X299220Y562258D01*
X299218Y562336D01*
X299218Y562746D01*
X299220Y562835D01*
X299226Y562924D01*
X299236Y563013D01*
X299249Y563101D01*
X299266Y563189D01*
X299288Y563276D01*
X299313Y563361D01*
X299341Y563446D01*
X299374Y563529D01*
X299410Y563611D01*
X299449Y563691D01*
X299492Y563769D01*
X299538Y563845D01*
X299588Y563920D01*
X299641Y563992D01*
X299697Y564061D01*
X299756Y564128D01*
X299817Y564193D01*
X299882Y564254D01*
X299949Y564313D01*
X300018Y564369D01*
X300090Y564422D01*
X300165Y564472D01*
X300241Y564518D01*
X300319Y564561D01*
X300399Y564600D01*
X300481Y564636D01*
X300564Y564669D01*
X300649Y564697D01*
X300734Y564722D01*
X300821Y564744D01*
X300909Y564761D01*
X300997Y564774D01*
X301086Y564784D01*
X301175Y564790D01*
X301264Y564792D01*
X301353Y564790D01*
X301442Y564784D01*
X301531Y564774D01*
X301619Y564761D01*
X301707Y564744D01*
X301794Y564722D01*
X301879Y564697D01*
X301964Y564669D01*
X302047Y564636D01*
X302129Y564600D01*
X302209Y564561D01*
X302287Y564518D01*
X302363Y564472D01*
X302438Y564422D01*
X302510Y564369D01*
X302579Y564313D01*
X302646Y564254D01*
X302711Y564193D01*
X302772Y564128D01*
X302831Y564061D01*
X302887Y563992D01*
X302940Y563920D01*
X302990Y563845D01*
X303036Y563769D01*
X303079Y563691D01*
X303118Y563611D01*
X303154Y563529D01*
X303187Y563446D01*
X303215Y563361D01*
X303240Y563276D01*
X303262Y563189D01*
X303279Y563101D01*
X303292Y563013D01*
X303302Y562924D01*
X303308Y562835D01*
X303310Y562746D01*
X303310Y560699D01*
X303308Y560587D01*
X303302Y560476D01*
X303293Y560364D01*
X303280Y560253D01*
X303262Y560143D01*
X303242Y560033D01*
X303217Y559924D01*
X303189Y559816D01*
X303157Y559709D01*
X303121Y559603D01*
X303082Y559498D01*
X303039Y559395D01*
X302993Y559293D01*
X302943Y559193D01*
X302890Y559094D01*
X302833Y558998D01*
X302774Y558903D01*
X302711Y558811D01*
X302645Y558721D01*
X302576Y558633D01*
X302504Y558547D01*
X302429Y558464D01*
X302351Y558384D01*
X302271Y558306D01*
X302188Y558231D01*
X302102Y558159D01*
X302014Y558090D01*
X301924Y558024D01*
X301832Y557961D01*
X301737Y557902D01*
X301641Y557845D01*
X301542Y557792D01*
X301442Y557742D01*
X301340Y557696D01*
X301237Y557653D01*
X301132Y557614D01*
X301026Y557578D01*
X300919Y557546D01*
X300811Y557518D01*
X300702Y557493D01*
X300592Y557473D01*
X300482Y557455D01*
X300371Y557442D01*
X300259Y557433D01*
X300148Y557427D01*
X300036Y557425D01*
D10*
X12250Y605400D02*
X12252Y605464D01*
X12258Y605528D01*
X12268Y605591D01*
X12282Y605654D01*
X12299Y605715D01*
X12321Y605776D01*
X12346Y605834D01*
X12375Y605892D01*
X12407Y605947D01*
X12443Y606000D01*
X12482Y606051D01*
X12524Y606099D01*
X12569Y606145D01*
X12617Y606188D01*
X12667Y606228D01*
X12719Y606264D01*
X12774Y606297D01*
X12831Y606327D01*
X12890Y606353D01*
X12950Y606376D01*
X13011Y606394D01*
X13073Y606409D01*
X13136Y606420D01*
X13200Y606427D01*
X13264Y606430D01*
X13328Y606429D01*
X13392Y606424D01*
X13455Y606415D01*
X13518Y606402D01*
X13580Y606385D01*
X13641Y606365D01*
X13700Y606341D01*
X13758Y606313D01*
X13813Y606281D01*
X13867Y606246D01*
X13919Y606208D01*
X13968Y606167D01*
X14014Y606123D01*
X14057Y606076D01*
X14098Y606026D01*
X14135Y605974D01*
X14169Y605920D01*
X14200Y605863D01*
X14227Y605805D01*
X14250Y605746D01*
X14270Y605685D01*
X14286Y605622D01*
X14298Y605560D01*
X14306Y605496D01*
X14310Y605432D01*
X14310Y605368D01*
X14306Y605304D01*
X14298Y605240D01*
X14286Y605178D01*
X14270Y605115D01*
X14250Y605054D01*
X14227Y604995D01*
X14200Y604937D01*
X14169Y604880D01*
X14135Y604826D01*
X14098Y604774D01*
X14057Y604724D01*
X14014Y604677D01*
X13968Y604633D01*
X13919Y604592D01*
X13867Y604554D01*
X13813Y604519D01*
X13758Y604487D01*
X13700Y604459D01*
X13641Y604435D01*
X13580Y604415D01*
X13518Y604398D01*
X13455Y604385D01*
X13392Y604376D01*
X13328Y604371D01*
X13264Y604370D01*
X13200Y604373D01*
X13136Y604380D01*
X13073Y604391D01*
X13011Y604406D01*
X12950Y604424D01*
X12890Y604447D01*
X12831Y604473D01*
X12774Y604503D01*
X12719Y604536D01*
X12667Y604572D01*
X12617Y604612D01*
X12569Y604655D01*
X12524Y604701D01*
X12482Y604749D01*
X12443Y604800D01*
X12407Y604853D01*
X12375Y604908D01*
X12346Y604966D01*
X12321Y605024D01*
X12299Y605085D01*
X12282Y605146D01*
X12268Y605209D01*
X12258Y605272D01*
X12252Y605336D01*
X12250Y605400D01*
X14280Y606150D02*
X14300Y606034D01*
X14324Y605918D01*
X14351Y605803D01*
X14383Y605689D01*
X14418Y605577D01*
X14457Y605465D01*
X14500Y605355D01*
X14546Y605246D01*
X14596Y605139D01*
X14650Y605034D01*
X14707Y604931D01*
X14767Y604829D01*
X14831Y604730D01*
X14898Y604633D01*
X14968Y604538D01*
X15042Y604445D01*
X15118Y604355D01*
X15198Y604268D01*
X15280Y604183D01*
X15365Y604101D01*
X15453Y604022D01*
X15543Y603946D01*
X15636Y603873D01*
X15731Y603803D01*
X15828Y603736D01*
X15928Y603673D01*
X16030Y603613D01*
X16133Y603556D01*
X16239Y603503D01*
X16346Y603453D01*
X16455Y603407D01*
X16565Y603365D01*
X16677Y603326D01*
X16789Y603291D01*
X16903Y603260D01*
X17018Y603233D01*
X17134Y603209D01*
X17251Y603190D01*
X17368Y603174D01*
X17485Y603162D01*
X17603Y603154D01*
X17721Y603150D01*
X17839Y603150D01*
X17957Y603154D01*
X18075Y603162D01*
X18192Y603174D01*
X18309Y603190D01*
X18426Y603209D01*
X18542Y603233D01*
X18657Y603260D01*
X18771Y603291D01*
X18883Y603326D01*
X18995Y603365D01*
X19105Y603407D01*
X19214Y603453D01*
X19321Y603503D01*
X19427Y603556D01*
X19530Y603613D01*
X19632Y603673D01*
X19732Y603736D01*
X19829Y603803D01*
X19924Y603873D01*
X20017Y603946D01*
X20107Y604022D01*
X20195Y604101D01*
X20280Y604183D01*
X20362Y604268D01*
X20442Y604355D01*
X20518Y604445D01*
X20592Y604538D01*
X20662Y604633D01*
X20729Y604730D01*
X20793Y604829D01*
X20853Y604931D01*
X20910Y605034D01*
X20964Y605139D01*
X21014Y605246D01*
X21060Y605355D01*
X21103Y605465D01*
X21142Y605577D01*
X21177Y605689D01*
X21209Y605803D01*
X21236Y605918D01*
X21260Y606034D01*
X21280Y606150D01*
X21280Y587650D02*
X21260Y587766D01*
X21236Y587882D01*
X21209Y587997D01*
X21177Y588111D01*
X21142Y588223D01*
X21103Y588335D01*
X21060Y588445D01*
X21014Y588554D01*
X20964Y588661D01*
X20910Y588766D01*
X20853Y588869D01*
X20793Y588971D01*
X20729Y589070D01*
X20662Y589167D01*
X20592Y589262D01*
X20518Y589355D01*
X20442Y589445D01*
X20362Y589532D01*
X20280Y589617D01*
X20195Y589699D01*
X20107Y589778D01*
X20017Y589854D01*
X19924Y589927D01*
X19829Y589997D01*
X19732Y590064D01*
X19632Y590127D01*
X19530Y590187D01*
X19427Y590244D01*
X19321Y590297D01*
X19214Y590347D01*
X19105Y590393D01*
X18995Y590435D01*
X18883Y590474D01*
X18771Y590509D01*
X18657Y590540D01*
X18542Y590567D01*
X18426Y590591D01*
X18309Y590610D01*
X18192Y590626D01*
X18075Y590638D01*
X17957Y590646D01*
X17839Y590650D01*
X17721Y590650D01*
X17603Y590646D01*
X17485Y590638D01*
X17368Y590626D01*
X17251Y590610D01*
X17134Y590591D01*
X17018Y590567D01*
X16903Y590540D01*
X16789Y590509D01*
X16677Y590474D01*
X16565Y590435D01*
X16455Y590393D01*
X16346Y590347D01*
X16239Y590297D01*
X16133Y590244D01*
X16030Y590187D01*
X15928Y590127D01*
X15828Y590064D01*
X15731Y589997D01*
X15636Y589927D01*
X15543Y589854D01*
X15453Y589778D01*
X15365Y589699D01*
X15280Y589617D01*
X15198Y589532D01*
X15118Y589445D01*
X15042Y589355D01*
X14968Y589262D01*
X14898Y589167D01*
X14831Y589070D01*
X14767Y588971D01*
X14707Y588869D01*
X14650Y588766D01*
X14596Y588661D01*
X14546Y588554D01*
X14500Y588445D01*
X14457Y588335D01*
X14418Y588223D01*
X14383Y588111D01*
X14351Y587997D01*
X14324Y587882D01*
X14300Y587766D01*
X14280Y587650D01*
X23530Y591650D02*
X23530Y602150D01*
X12030Y606150D02*
X12030Y591900D01*
D19*
X13716Y594868D02*
X17780Y598932D01*
X21844Y594868D01*
X13716Y594868D01*
D20*
X22405Y604400D03*
D21*
X15280Y603150D03*
X20280Y603150D03*
D22*
X17780Y602775D03*
D20*
X22405Y589400D03*
X13155Y589400D03*
D21*
X20280Y590650D03*
X15280Y590650D03*
D22*
X17780Y591025D03*
D23*
X13280Y603400D03*
D24*
X13155Y606525D03*
D10*
X8890Y583565D02*
X1778Y583565D01*
X1778Y585541D01*
X1780Y585628D01*
X1786Y585716D01*
X1795Y585803D01*
X1809Y585889D01*
X1826Y585975D01*
X1847Y586059D01*
X1872Y586143D01*
X1901Y586226D01*
X1933Y586307D01*
X1968Y586387D01*
X2007Y586465D01*
X2050Y586542D01*
X2096Y586616D01*
X2145Y586688D01*
X2197Y586758D01*
X2253Y586826D01*
X2311Y586891D01*
X2372Y586954D01*
X2436Y587013D01*
X2503Y587070D01*
X2571Y587124D01*
X2643Y587175D01*
X2716Y587222D01*
X2791Y587267D01*
X2869Y587308D01*
X2948Y587345D01*
X3028Y587379D01*
X3110Y587409D01*
X3193Y587436D01*
X3278Y587459D01*
X3363Y587478D01*
X3449Y587493D01*
X3536Y587505D01*
X3623Y587513D01*
X3710Y587517D01*
X3798Y587517D01*
X3885Y587513D01*
X3972Y587505D01*
X4059Y587493D01*
X4145Y587478D01*
X4230Y587459D01*
X4315Y587436D01*
X4398Y587409D01*
X4480Y587379D01*
X4560Y587345D01*
X4639Y587308D01*
X4717Y587267D01*
X4792Y587222D01*
X4865Y587175D01*
X4937Y587124D01*
X5005Y587070D01*
X5072Y587013D01*
X5136Y586954D01*
X5197Y586891D01*
X5255Y586826D01*
X5311Y586758D01*
X5363Y586688D01*
X5412Y586616D01*
X5458Y586542D01*
X5501Y586465D01*
X5540Y586387D01*
X5575Y586307D01*
X5607Y586226D01*
X5636Y586143D01*
X5661Y586059D01*
X5682Y585975D01*
X5699Y585889D01*
X5713Y585803D01*
X5722Y585716D01*
X5728Y585628D01*
X5730Y585541D01*
X5729Y585541D02*
X5729Y583565D01*
X5729Y585936D02*
X8890Y587516D01*
X8890Y591083D02*
X1778Y591083D01*
X8890Y591083D02*
X8890Y594243D01*
X8890Y597422D02*
X8890Y600583D01*
X8890Y597422D02*
X1778Y597422D01*
X1778Y600583D01*
X4939Y599793D02*
X4939Y597422D01*
X1778Y603744D02*
X8890Y603744D01*
X1778Y603744D02*
X1778Y605719D01*
X1780Y605805D01*
X1786Y605891D01*
X1795Y605977D01*
X1808Y606062D01*
X1825Y606147D01*
X1845Y606230D01*
X1869Y606313D01*
X1897Y606395D01*
X1928Y606475D01*
X1963Y606554D01*
X2001Y606631D01*
X2043Y606707D01*
X2087Y606781D01*
X2135Y606852D01*
X2186Y606922D01*
X2240Y606989D01*
X2297Y607054D01*
X2357Y607116D01*
X2419Y607176D01*
X2484Y607233D01*
X2551Y607287D01*
X2621Y607338D01*
X2692Y607386D01*
X2766Y607430D01*
X2842Y607472D01*
X2919Y607510D01*
X2998Y607545D01*
X3078Y607576D01*
X3160Y607604D01*
X3243Y607628D01*
X3326Y607648D01*
X3411Y607665D01*
X3496Y607678D01*
X3582Y607687D01*
X3668Y607693D01*
X3754Y607695D01*
X6914Y607695D01*
X7000Y607693D01*
X7086Y607687D01*
X7172Y607678D01*
X7257Y607665D01*
X7342Y607648D01*
X7425Y607628D01*
X7508Y607604D01*
X7590Y607576D01*
X7670Y607545D01*
X7749Y607510D01*
X7826Y607472D01*
X7902Y607430D01*
X7976Y607386D01*
X8047Y607338D01*
X8117Y607287D01*
X8184Y607233D01*
X8249Y607176D01*
X8311Y607116D01*
X8371Y607054D01*
X8428Y606989D01*
X8482Y606922D01*
X8533Y606852D01*
X8581Y606781D01*
X8625Y606707D01*
X8667Y606631D01*
X8705Y606554D01*
X8740Y606475D01*
X8771Y606395D01*
X8799Y606313D01*
X8823Y606230D01*
X8843Y606147D01*
X8860Y606062D01*
X8873Y605977D01*
X8882Y605891D01*
X8888Y605805D01*
X8890Y605719D01*
X8890Y603744D01*
D33*
X417040Y633250D02*
X417040Y573250D01*
X477040Y573250D01*
X477040Y633250D01*
X417040Y633250D01*
X417040Y573250D01*
X477040Y573250D01*
X477040Y633250D01*
X417040Y633250D01*
D18*
X383540Y625750D02*
X383542Y625813D01*
X383548Y625875D01*
X383558Y625937D01*
X383571Y625999D01*
X383589Y626059D01*
X383610Y626118D01*
X383635Y626176D01*
X383664Y626232D01*
X383696Y626286D01*
X383731Y626338D01*
X383769Y626387D01*
X383811Y626435D01*
X383855Y626479D01*
X383903Y626521D01*
X383952Y626559D01*
X384004Y626594D01*
X384058Y626626D01*
X384114Y626655D01*
X384172Y626680D01*
X384231Y626701D01*
X384291Y626719D01*
X384353Y626732D01*
X384415Y626742D01*
X384477Y626748D01*
X384540Y626750D01*
X384603Y626748D01*
X384665Y626742D01*
X384727Y626732D01*
X384789Y626719D01*
X384849Y626701D01*
X384908Y626680D01*
X384966Y626655D01*
X385022Y626626D01*
X385076Y626594D01*
X385128Y626559D01*
X385177Y626521D01*
X385225Y626479D01*
X385269Y626435D01*
X385311Y626387D01*
X385349Y626338D01*
X385384Y626286D01*
X385416Y626232D01*
X385445Y626176D01*
X385470Y626118D01*
X385491Y626059D01*
X385509Y625999D01*
X385522Y625937D01*
X385532Y625875D01*
X385538Y625813D01*
X385540Y625750D01*
X385538Y625687D01*
X385532Y625625D01*
X385522Y625563D01*
X385509Y625501D01*
X385491Y625441D01*
X385470Y625382D01*
X385445Y625324D01*
X385416Y625268D01*
X385384Y625214D01*
X385349Y625162D01*
X385311Y625113D01*
X385269Y625065D01*
X385225Y625021D01*
X385177Y624979D01*
X385128Y624941D01*
X385076Y624906D01*
X385022Y624874D01*
X384966Y624845D01*
X384908Y624820D01*
X384849Y624799D01*
X384789Y624781D01*
X384727Y624768D01*
X384665Y624758D01*
X384603Y624752D01*
X384540Y624750D01*
X384477Y624752D01*
X384415Y624758D01*
X384353Y624768D01*
X384291Y624781D01*
X384231Y624799D01*
X384172Y624820D01*
X384114Y624845D01*
X384058Y624874D01*
X384004Y624906D01*
X383952Y624941D01*
X383903Y624979D01*
X383855Y625021D01*
X383811Y625065D01*
X383769Y625113D01*
X383731Y625162D01*
X383696Y625214D01*
X383664Y625268D01*
X383635Y625324D01*
X383610Y625382D01*
X383589Y625441D01*
X383571Y625501D01*
X383558Y625563D01*
X383548Y625625D01*
X383542Y625687D01*
X383540Y625750D01*
X383542Y625813D01*
X383548Y625875D01*
X383558Y625937D01*
X383571Y625999D01*
X383589Y626059D01*
X383610Y626118D01*
X383635Y626176D01*
X383664Y626232D01*
X383696Y626286D01*
X383731Y626338D01*
X383769Y626387D01*
X383811Y626435D01*
X383855Y626479D01*
X383903Y626521D01*
X383952Y626559D01*
X384004Y626594D01*
X384058Y626626D01*
X384114Y626655D01*
X384172Y626680D01*
X384231Y626701D01*
X384291Y626719D01*
X384353Y626732D01*
X384415Y626742D01*
X384477Y626748D01*
X384540Y626750D01*
X384603Y626748D01*
X384665Y626742D01*
X384727Y626732D01*
X384789Y626719D01*
X384849Y626701D01*
X384908Y626680D01*
X384966Y626655D01*
X385022Y626626D01*
X385076Y626594D01*
X385128Y626559D01*
X385177Y626521D01*
X385225Y626479D01*
X385269Y626435D01*
X385311Y626387D01*
X385349Y626338D01*
X385384Y626286D01*
X385416Y626232D01*
X385445Y626176D01*
X385470Y626118D01*
X385491Y626059D01*
X385509Y625999D01*
X385522Y625937D01*
X385532Y625875D01*
X385538Y625813D01*
X385540Y625750D01*
X385538Y625687D01*
X385532Y625625D01*
X385522Y625563D01*
X385509Y625501D01*
X385491Y625441D01*
X385470Y625382D01*
X385445Y625324D01*
X385416Y625268D01*
X385384Y625214D01*
X385349Y625162D01*
X385311Y625113D01*
X385269Y625065D01*
X385225Y625021D01*
X385177Y624979D01*
X385128Y624941D01*
X385076Y624906D01*
X385022Y624874D01*
X384966Y624845D01*
X384908Y624820D01*
X384849Y624799D01*
X384789Y624781D01*
X384727Y624768D01*
X384665Y624758D01*
X384603Y624752D01*
X384540Y624750D01*
X384477Y624752D01*
X384415Y624758D01*
X384353Y624768D01*
X384291Y624781D01*
X384231Y624799D01*
X384172Y624820D01*
X384114Y624845D01*
X384058Y624874D01*
X384004Y624906D01*
X383952Y624941D01*
X383903Y624979D01*
X383855Y625021D01*
X383811Y625065D01*
X383769Y625113D01*
X383731Y625162D01*
X383696Y625214D01*
X383664Y625268D01*
X383635Y625324D01*
X383610Y625382D01*
X383589Y625441D01*
X383571Y625501D01*
X383558Y625563D01*
X383548Y625625D01*
X383542Y625687D01*
X383540Y625750D01*
D27*
X119395Y632949D03*
D28*
X127869Y628509D02*
X128671Y628509D01*
X128671Y590691D02*
X127869Y590691D01*
X143679Y607699D02*
X143679Y611501D01*
X112861Y611501D02*
X112861Y607699D01*
X115020Y592850D02*
X115020Y626350D01*
X141520Y626350D01*
X141520Y592850D01*
X115020Y592850D01*
D12*
X104690Y615122D02*
X108168Y617577D01*
X104690Y620032D01*
X108168Y617577D02*
X112056Y617577D01*
X106327Y622846D02*
X104690Y624892D01*
X112056Y624892D01*
X112056Y622846D02*
X112056Y626938D01*
M02*
