G04 EAGLE Gerber RS-274X export*
G75*
%MOMM*%
%FSLAX34Y34*%
%LPD*%
%INBottom Copper*%
%IPPOS*%
%AMOC8*
5,1,8,0,0,1.08239X$1,22.5*%
G01*
%ADD10R,1.875000X1.875000*%
%ADD11C,1.875000*%
%ADD12C,1.524000*%
%ADD13C,0.457200*%
%ADD14C,0.127000*%

G36*
X514626Y510036D02*
X514626Y510036D01*
X514645Y510034D01*
X514747Y510056D01*
X514849Y510072D01*
X514866Y510082D01*
X514886Y510086D01*
X514975Y510139D01*
X515066Y510188D01*
X515080Y510202D01*
X515097Y510212D01*
X515164Y510291D01*
X515236Y510366D01*
X515244Y510384D01*
X515257Y510399D01*
X515296Y510495D01*
X515339Y510589D01*
X515341Y510609D01*
X515349Y510627D01*
X515367Y510794D01*
X515367Y848006D01*
X515364Y848026D01*
X515366Y848045D01*
X515344Y848147D01*
X515328Y848249D01*
X515318Y848266D01*
X515314Y848286D01*
X515261Y848375D01*
X515212Y848466D01*
X515198Y848480D01*
X515188Y848497D01*
X515109Y848564D01*
X515034Y848636D01*
X515016Y848644D01*
X515001Y848657D01*
X514905Y848696D01*
X514811Y848739D01*
X514791Y848741D01*
X514773Y848749D01*
X514606Y848767D01*
X2794Y848767D01*
X2774Y848764D01*
X2755Y848766D01*
X2653Y848744D01*
X2551Y848728D01*
X2534Y848718D01*
X2514Y848714D01*
X2425Y848661D01*
X2334Y848612D01*
X2320Y848598D01*
X2303Y848588D01*
X2236Y848509D01*
X2164Y848434D01*
X2156Y848416D01*
X2143Y848401D01*
X2104Y848305D01*
X2061Y848211D01*
X2059Y848191D01*
X2051Y848173D01*
X2033Y848006D01*
X2033Y510794D01*
X2036Y510774D01*
X2034Y510755D01*
X2056Y510653D01*
X2072Y510551D01*
X2082Y510534D01*
X2086Y510514D01*
X2139Y510425D01*
X2188Y510334D01*
X2202Y510320D01*
X2212Y510303D01*
X2291Y510236D01*
X2366Y510164D01*
X2384Y510156D01*
X2399Y510143D01*
X2495Y510104D01*
X2589Y510061D01*
X2609Y510059D01*
X2627Y510051D01*
X2794Y510033D01*
X514606Y510033D01*
X514626Y510036D01*
G37*
%LPC*%
G36*
X74432Y516889D02*
X74432Y516889D01*
X71164Y518243D01*
X68663Y520744D01*
X67309Y524012D01*
X67309Y542814D01*
X67322Y542869D01*
X67351Y542982D01*
X67350Y542988D01*
X67352Y542994D01*
X67341Y543111D01*
X67331Y543227D01*
X67329Y543233D01*
X67328Y543239D01*
X67280Y543347D01*
X67235Y543454D01*
X67231Y543459D01*
X67229Y543464D01*
X67216Y543478D01*
X67130Y543585D01*
X60394Y550321D01*
X60320Y550374D01*
X60250Y550434D01*
X60220Y550446D01*
X60194Y550465D01*
X60107Y550492D01*
X60022Y550526D01*
X59981Y550530D01*
X59959Y550537D01*
X59927Y550536D01*
X59855Y550544D01*
X55091Y550544D01*
X53751Y551884D01*
X24764Y580871D01*
X24764Y593206D01*
X24753Y593277D01*
X24751Y593349D01*
X24733Y593398D01*
X24725Y593449D01*
X24691Y593513D01*
X24666Y593580D01*
X24634Y593621D01*
X24609Y593667D01*
X24558Y593716D01*
X24513Y593772D01*
X24469Y593800D01*
X24431Y593836D01*
X24366Y593866D01*
X24306Y593905D01*
X24255Y593918D01*
X24208Y593940D01*
X24137Y593948D01*
X24067Y593965D01*
X24015Y593961D01*
X23964Y593967D01*
X23893Y593951D01*
X23822Y593946D01*
X23774Y593926D01*
X23723Y593914D01*
X23662Y593878D01*
X23596Y593850D01*
X23540Y593805D01*
X23512Y593788D01*
X23497Y593771D01*
X23465Y593745D01*
X23063Y593343D01*
X20117Y593343D01*
X18033Y595427D01*
X18033Y598373D01*
X19461Y599801D01*
X19514Y599875D01*
X19574Y599945D01*
X19586Y599975D01*
X19605Y600001D01*
X19632Y600088D01*
X19666Y600173D01*
X19670Y600214D01*
X19677Y600236D01*
X19676Y600268D01*
X19684Y600340D01*
X19684Y784379D01*
X75411Y840106D01*
X113400Y840106D01*
X113491Y840120D01*
X113581Y840128D01*
X113611Y840140D01*
X113643Y840145D01*
X113724Y840188D01*
X113808Y840224D01*
X113840Y840250D01*
X113861Y840261D01*
X113883Y840284D01*
X113939Y840329D01*
X115367Y841757D01*
X118313Y841757D01*
X120397Y839673D01*
X120397Y836727D01*
X118313Y834643D01*
X115367Y834643D01*
X113939Y836071D01*
X113865Y836124D01*
X113795Y836184D01*
X113765Y836196D01*
X113739Y836215D01*
X113652Y836242D01*
X113567Y836276D01*
X113526Y836280D01*
X113504Y836287D01*
X113472Y836286D01*
X113400Y836294D01*
X77305Y836294D01*
X77215Y836280D01*
X77124Y836272D01*
X77094Y836260D01*
X77062Y836255D01*
X76981Y836212D01*
X76897Y836176D01*
X76865Y836150D01*
X76845Y836139D01*
X76822Y836116D01*
X76766Y836071D01*
X50731Y810036D01*
X50690Y809978D01*
X50640Y809926D01*
X50618Y809879D01*
X50588Y809837D01*
X50567Y809768D01*
X50537Y809703D01*
X50531Y809651D01*
X50515Y809601D01*
X50517Y809530D01*
X50509Y809459D01*
X50520Y809408D01*
X50522Y809356D01*
X50546Y809288D01*
X50562Y809218D01*
X50588Y809173D01*
X50606Y809125D01*
X50651Y809069D01*
X50688Y809007D01*
X50727Y808973D01*
X50760Y808933D01*
X50820Y808894D01*
X50875Y808847D01*
X50905Y808835D01*
X53087Y806653D01*
X53087Y803707D01*
X51659Y802279D01*
X51606Y802205D01*
X51546Y802135D01*
X51534Y802105D01*
X51515Y802079D01*
X51488Y801992D01*
X51454Y801907D01*
X51450Y801866D01*
X51443Y801844D01*
X51444Y801812D01*
X51436Y801740D01*
X51436Y789775D01*
X51450Y789685D01*
X51458Y789594D01*
X51470Y789564D01*
X51475Y789532D01*
X51518Y789451D01*
X51554Y789367D01*
X51580Y789335D01*
X51591Y789315D01*
X51614Y789292D01*
X51659Y789236D01*
X86584Y754311D01*
X86642Y754270D01*
X86694Y754220D01*
X86741Y754198D01*
X86783Y754168D01*
X86852Y754147D01*
X86917Y754117D01*
X86969Y754111D01*
X87019Y754095D01*
X87090Y754097D01*
X87161Y754089D01*
X87212Y754100D01*
X87264Y754102D01*
X87332Y754126D01*
X87402Y754142D01*
X87447Y754168D01*
X87495Y754186D01*
X87551Y754231D01*
X87613Y754268D01*
X87647Y754307D01*
X87687Y754340D01*
X87726Y754400D01*
X87773Y754455D01*
X87785Y754485D01*
X89967Y756667D01*
X91986Y756667D01*
X92076Y756681D01*
X92167Y756689D01*
X92197Y756701D01*
X92229Y756706D01*
X92310Y756749D01*
X92394Y756785D01*
X92426Y756811D01*
X92446Y756822D01*
X92456Y756832D01*
X92457Y756833D01*
X92471Y756847D01*
X92525Y756890D01*
X127481Y791846D01*
X129910Y791846D01*
X130001Y791860D01*
X130091Y791868D01*
X130121Y791880D01*
X130153Y791885D01*
X130234Y791928D01*
X130318Y791964D01*
X130350Y791990D01*
X130371Y792001D01*
X130393Y792024D01*
X130449Y792069D01*
X131877Y793497D01*
X134150Y793497D01*
X134221Y793508D01*
X134293Y793510D01*
X134342Y793528D01*
X134393Y793536D01*
X134456Y793570D01*
X134524Y793595D01*
X134564Y793627D01*
X134610Y793652D01*
X134660Y793704D01*
X134716Y793748D01*
X134744Y793792D01*
X134780Y793830D01*
X134810Y793895D01*
X134849Y793955D01*
X134862Y794006D01*
X134883Y794053D01*
X134891Y794124D01*
X134909Y794194D01*
X134905Y794246D01*
X134911Y794297D01*
X134895Y794368D01*
X134890Y794439D01*
X134869Y794487D01*
X134858Y794538D01*
X134821Y794599D01*
X134793Y794665D01*
X134749Y794721D01*
X134732Y794749D01*
X134714Y794764D01*
X134689Y794796D01*
X119195Y810290D01*
X119121Y810343D01*
X119051Y810403D01*
X119021Y810415D01*
X118995Y810434D01*
X118908Y810461D01*
X118823Y810495D01*
X118782Y810499D01*
X118760Y810506D01*
X118728Y810505D01*
X118656Y810513D01*
X116637Y810513D01*
X114553Y812597D01*
X114553Y815543D01*
X116637Y817627D01*
X119583Y817627D01*
X121667Y815543D01*
X121667Y813524D01*
X121681Y813434D01*
X121689Y813343D01*
X121701Y813313D01*
X121706Y813281D01*
X121749Y813200D01*
X121785Y813116D01*
X121811Y813084D01*
X121822Y813064D01*
X121845Y813041D01*
X121890Y812985D01*
X151315Y783560D01*
X151389Y783507D01*
X151459Y783447D01*
X151489Y783435D01*
X151515Y783416D01*
X151602Y783389D01*
X151687Y783355D01*
X151728Y783351D01*
X151750Y783344D01*
X151782Y783345D01*
X151854Y783337D01*
X153873Y783337D01*
X155957Y781253D01*
X155957Y778307D01*
X153873Y776223D01*
X150927Y776223D01*
X148843Y778307D01*
X148843Y780326D01*
X148829Y780416D01*
X148821Y780507D01*
X148809Y780537D01*
X148804Y780569D01*
X148761Y780650D01*
X148725Y780734D01*
X148699Y780766D01*
X148688Y780786D01*
X148665Y780809D01*
X148620Y780865D01*
X138206Y791279D01*
X138148Y791320D01*
X138096Y791370D01*
X138049Y791392D01*
X138007Y791422D01*
X137938Y791443D01*
X137873Y791473D01*
X137821Y791479D01*
X137771Y791495D01*
X137700Y791493D01*
X137629Y791501D01*
X137578Y791490D01*
X137526Y791488D01*
X137458Y791464D01*
X137388Y791448D01*
X137343Y791422D01*
X137295Y791404D01*
X137239Y791359D01*
X137177Y791322D01*
X137143Y791283D01*
X137103Y791250D01*
X137064Y791190D01*
X137017Y791135D01*
X136998Y791087D01*
X136970Y791043D01*
X136952Y790974D01*
X136925Y790907D01*
X136917Y790836D01*
X136909Y790805D01*
X136911Y790781D01*
X136907Y790740D01*
X136907Y788467D01*
X134823Y786383D01*
X132345Y786383D01*
X132274Y786372D01*
X132202Y786370D01*
X132153Y786352D01*
X132102Y786344D01*
X132038Y786310D01*
X131971Y786285D01*
X131930Y786253D01*
X131884Y786228D01*
X131835Y786177D01*
X131779Y786132D01*
X131751Y786088D01*
X131715Y786050D01*
X131685Y785985D01*
X131646Y785925D01*
X131633Y785874D01*
X131611Y785827D01*
X131603Y785756D01*
X131586Y785686D01*
X131590Y785634D01*
X131584Y785583D01*
X131600Y785512D01*
X131605Y785441D01*
X131625Y785393D01*
X131637Y785342D01*
X131673Y785281D01*
X131701Y785215D01*
X131746Y785159D01*
X131763Y785131D01*
X131777Y785119D01*
X131780Y785114D01*
X131787Y785108D01*
X131806Y785084D01*
X131827Y785063D01*
X131827Y782117D01*
X130399Y780689D01*
X130346Y780615D01*
X130286Y780545D01*
X130274Y780515D01*
X130255Y780489D01*
X130228Y780402D01*
X130194Y780317D01*
X130190Y780276D01*
X130183Y780254D01*
X130184Y780222D01*
X130176Y780150D01*
X130176Y742785D01*
X130190Y742695D01*
X130198Y742604D01*
X130210Y742574D01*
X130215Y742542D01*
X130258Y742461D01*
X130294Y742377D01*
X130320Y742345D01*
X130331Y742325D01*
X130354Y742302D01*
X130399Y742246D01*
X132265Y740380D01*
X132339Y740327D01*
X132409Y740267D01*
X132439Y740255D01*
X132465Y740236D01*
X132552Y740209D01*
X132637Y740175D01*
X132678Y740171D01*
X132700Y740164D01*
X132732Y740165D01*
X132804Y740157D01*
X134823Y740157D01*
X136907Y738073D01*
X136907Y735127D01*
X134823Y733043D01*
X131877Y733043D01*
X129793Y735127D01*
X129793Y737146D01*
X129779Y737236D01*
X129771Y737327D01*
X129759Y737357D01*
X129754Y737389D01*
X129711Y737470D01*
X129675Y737554D01*
X129649Y737586D01*
X129638Y737606D01*
X129615Y737629D01*
X129570Y737685D01*
X126364Y740891D01*
X126364Y780150D01*
X126350Y780241D01*
X126342Y780331D01*
X126330Y780361D01*
X126325Y780393D01*
X126282Y780474D01*
X126246Y780558D01*
X126220Y780590D01*
X126209Y780611D01*
X126186Y780633D01*
X126141Y780689D01*
X124621Y782209D01*
X124615Y782224D01*
X124583Y782264D01*
X124558Y782310D01*
X124506Y782360D01*
X124462Y782416D01*
X124418Y782444D01*
X124380Y782480D01*
X124315Y782510D01*
X124255Y782549D01*
X124204Y782562D01*
X124157Y782583D01*
X124086Y782591D01*
X124016Y782609D01*
X123964Y782605D01*
X123913Y782611D01*
X123842Y782595D01*
X123771Y782590D01*
X123723Y782569D01*
X123672Y782558D01*
X123611Y782521D01*
X123545Y782493D01*
X123489Y782449D01*
X123461Y782432D01*
X123446Y782414D01*
X123414Y782389D01*
X95220Y754195D01*
X95167Y754121D01*
X95107Y754051D01*
X95095Y754021D01*
X95076Y753995D01*
X95049Y753908D01*
X95015Y753823D01*
X95011Y753782D01*
X95004Y753760D01*
X95005Y753728D01*
X94997Y753656D01*
X94997Y751637D01*
X92821Y749461D01*
X92806Y749455D01*
X92766Y749423D01*
X92720Y749398D01*
X92670Y749346D01*
X92614Y749302D01*
X92586Y749258D01*
X92550Y749220D01*
X92520Y749155D01*
X92481Y749095D01*
X92468Y749044D01*
X92447Y748997D01*
X92439Y748926D01*
X92421Y748856D01*
X92425Y748804D01*
X92419Y748753D01*
X92435Y748682D01*
X92440Y748611D01*
X92461Y748563D01*
X92472Y748512D01*
X92509Y748451D01*
X92537Y748385D01*
X92581Y748329D01*
X92598Y748301D01*
X92616Y748286D01*
X92641Y748254D01*
X108135Y732760D01*
X108209Y732707D01*
X108279Y732647D01*
X108309Y732635D01*
X108335Y732616D01*
X108422Y732589D01*
X108507Y732555D01*
X108548Y732551D01*
X108570Y732544D01*
X108602Y732545D01*
X108674Y732537D01*
X110693Y732537D01*
X112777Y730453D01*
X112777Y727507D01*
X112375Y727105D01*
X112333Y727047D01*
X112284Y726995D01*
X112262Y726948D01*
X112232Y726906D01*
X112211Y726837D01*
X112180Y726772D01*
X112175Y726720D01*
X112159Y726670D01*
X112161Y726599D01*
X112153Y726528D01*
X112164Y726477D01*
X112166Y726425D01*
X112190Y726357D01*
X112206Y726287D01*
X112232Y726242D01*
X112250Y726194D01*
X112295Y726138D01*
X112332Y726076D01*
X112371Y726042D01*
X112404Y726002D01*
X112464Y725963D01*
X112519Y725916D01*
X112567Y725897D01*
X112611Y725869D01*
X112680Y725851D01*
X112747Y725824D01*
X112818Y725816D01*
X112849Y725808D01*
X112873Y725810D01*
X112914Y725806D01*
X125249Y725806D01*
X126589Y724466D01*
X162784Y688271D01*
X162842Y688230D01*
X162894Y688180D01*
X162941Y688158D01*
X162983Y688128D01*
X163052Y688107D01*
X163117Y688077D01*
X163169Y688071D01*
X163219Y688055D01*
X163290Y688057D01*
X163361Y688049D01*
X163412Y688060D01*
X163464Y688062D01*
X163532Y688086D01*
X163602Y688102D01*
X163647Y688128D01*
X163695Y688146D01*
X163751Y688191D01*
X163813Y688228D01*
X163847Y688267D01*
X163887Y688300D01*
X163926Y688360D01*
X163973Y688415D01*
X163985Y688445D01*
X166167Y690627D01*
X168186Y690627D01*
X168276Y690641D01*
X168367Y690649D01*
X168397Y690661D01*
X168429Y690666D01*
X168510Y690709D01*
X168594Y690745D01*
X168626Y690771D01*
X168646Y690782D01*
X168669Y690805D01*
X168725Y690850D01*
X195991Y718116D01*
X196039Y718183D01*
X196043Y718187D01*
X196045Y718191D01*
X196104Y718260D01*
X196116Y718290D01*
X196135Y718316D01*
X196162Y718403D01*
X196196Y718488D01*
X196200Y718529D01*
X196207Y718551D01*
X196206Y718583D01*
X196214Y718655D01*
X196214Y787770D01*
X196200Y787861D01*
X196192Y787951D01*
X196180Y787981D01*
X196175Y788013D01*
X196132Y788094D01*
X196096Y788178D01*
X196070Y788210D01*
X196059Y788231D01*
X196036Y788253D01*
X195991Y788309D01*
X194563Y789737D01*
X194563Y792683D01*
X196647Y794767D01*
X199593Y794767D01*
X201677Y792683D01*
X201677Y789737D01*
X200249Y788309D01*
X200196Y788235D01*
X200136Y788165D01*
X200124Y788135D01*
X200105Y788109D01*
X200078Y788022D01*
X200044Y787937D01*
X200040Y787896D01*
X200033Y787874D01*
X200034Y787842D01*
X200026Y787770D01*
X200026Y716761D01*
X171420Y688155D01*
X171367Y688081D01*
X171307Y688011D01*
X171295Y687981D01*
X171276Y687955D01*
X171249Y687868D01*
X171215Y687783D01*
X171211Y687742D01*
X171204Y687720D01*
X171205Y687688D01*
X171197Y687616D01*
X171197Y685597D01*
X169021Y683421D01*
X169006Y683415D01*
X168965Y683383D01*
X168920Y683358D01*
X168870Y683307D01*
X168814Y683262D01*
X168786Y683218D01*
X168750Y683180D01*
X168720Y683115D01*
X168681Y683055D01*
X168668Y683004D01*
X168647Y682957D01*
X168639Y682886D01*
X168621Y682816D01*
X168625Y682764D01*
X168619Y682713D01*
X168635Y682642D01*
X168640Y682571D01*
X168661Y682523D01*
X168672Y682472D01*
X168709Y682411D01*
X168737Y682345D01*
X168781Y682289D01*
X168798Y682261D01*
X168816Y682246D01*
X168841Y682214D01*
X175445Y675610D01*
X175519Y675557D01*
X175589Y675497D01*
X175619Y675485D01*
X175645Y675466D01*
X175732Y675439D01*
X175817Y675405D01*
X175858Y675401D01*
X175880Y675394D01*
X175912Y675395D01*
X175984Y675387D01*
X178003Y675387D01*
X180179Y673211D01*
X180185Y673196D01*
X180217Y673156D01*
X180242Y673110D01*
X180294Y673060D01*
X180338Y673004D01*
X180382Y672976D01*
X180420Y672940D01*
X180485Y672910D01*
X180545Y672871D01*
X180596Y672858D01*
X180643Y672837D01*
X180714Y672829D01*
X180784Y672811D01*
X180836Y672815D01*
X180887Y672809D01*
X180958Y672825D01*
X181029Y672830D01*
X181077Y672851D01*
X181128Y672862D01*
X181189Y672899D01*
X181255Y672927D01*
X181311Y672971D01*
X181339Y672988D01*
X181354Y673006D01*
X181386Y673031D01*
X240511Y732156D01*
X248439Y732156D01*
X249779Y730817D01*
X249779Y730816D01*
X303715Y676880D01*
X303789Y676827D01*
X303859Y676767D01*
X303889Y676755D01*
X303915Y676736D01*
X304002Y676709D01*
X304087Y676675D01*
X304128Y676671D01*
X304150Y676664D01*
X304182Y676665D01*
X304254Y676657D01*
X306273Y676657D01*
X308357Y674573D01*
X308357Y671627D01*
X306273Y669543D01*
X303327Y669543D01*
X301243Y671627D01*
X301243Y673646D01*
X301229Y673736D01*
X301221Y673827D01*
X301209Y673857D01*
X301204Y673889D01*
X301161Y673970D01*
X301125Y674054D01*
X301099Y674086D01*
X301088Y674106D01*
X301065Y674129D01*
X301020Y674185D01*
X251236Y723969D01*
X251178Y724010D01*
X251126Y724060D01*
X251079Y724082D01*
X251037Y724112D01*
X250968Y724133D01*
X250903Y724163D01*
X250851Y724169D01*
X250801Y724185D01*
X250730Y724183D01*
X250659Y724191D01*
X250608Y724180D01*
X250556Y724178D01*
X250488Y724154D01*
X250418Y724138D01*
X250374Y724112D01*
X250325Y724094D01*
X250269Y724049D01*
X250207Y724012D01*
X250173Y723973D01*
X250133Y723940D01*
X250094Y723880D01*
X250047Y723825D01*
X250035Y723795D01*
X248509Y722269D01*
X248456Y722195D01*
X248396Y722125D01*
X248384Y722095D01*
X248365Y722069D01*
X248338Y721982D01*
X248304Y721897D01*
X248300Y721856D01*
X248293Y721834D01*
X248294Y721802D01*
X248286Y721730D01*
X248286Y664045D01*
X248300Y663955D01*
X248308Y663864D01*
X248320Y663834D01*
X248325Y663802D01*
X248368Y663721D01*
X248404Y663637D01*
X248430Y663605D01*
X248441Y663585D01*
X248464Y663562D01*
X248509Y663506D01*
X282164Y629851D01*
X282222Y629810D01*
X282274Y629760D01*
X282321Y629738D01*
X282363Y629708D01*
X282432Y629687D01*
X282497Y629657D01*
X282549Y629651D01*
X282599Y629635D01*
X282670Y629637D01*
X282741Y629629D01*
X282792Y629640D01*
X282844Y629642D01*
X282912Y629666D01*
X282982Y629682D01*
X283027Y629708D01*
X283075Y629726D01*
X283131Y629771D01*
X283193Y629808D01*
X283227Y629847D01*
X283267Y629880D01*
X283306Y629940D01*
X283353Y629995D01*
X283365Y630025D01*
X284891Y631551D01*
X284944Y631625D01*
X285004Y631695D01*
X285016Y631725D01*
X285035Y631751D01*
X285062Y631838D01*
X285096Y631923D01*
X285100Y631964D01*
X285101Y631966D01*
X286453Y633319D01*
X286454Y633319D01*
X345851Y692716D01*
X345904Y692790D01*
X345964Y692860D01*
X345976Y692890D01*
X345995Y692916D01*
X346022Y693003D01*
X346056Y693088D01*
X346060Y693129D01*
X346067Y693151D01*
X346066Y693183D01*
X346074Y693255D01*
X346074Y745860D01*
X346060Y745951D01*
X346052Y746041D01*
X346040Y746071D01*
X346035Y746103D01*
X345992Y746184D01*
X345956Y746268D01*
X345930Y746300D01*
X345919Y746321D01*
X345896Y746343D01*
X345851Y746399D01*
X344423Y747827D01*
X344423Y750773D01*
X346507Y752857D01*
X349453Y752857D01*
X351537Y750773D01*
X351537Y747827D01*
X350109Y746399D01*
X350056Y746325D01*
X349996Y746255D01*
X349984Y746225D01*
X349965Y746199D01*
X349938Y746112D01*
X349904Y746027D01*
X349900Y745986D01*
X349893Y745964D01*
X349894Y745932D01*
X349886Y745860D01*
X349886Y694779D01*
X349897Y694708D01*
X349899Y694636D01*
X349917Y694587D01*
X349925Y694536D01*
X349959Y694473D01*
X349984Y694405D01*
X350016Y694365D01*
X350041Y694319D01*
X350093Y694269D01*
X350137Y694213D01*
X350181Y694185D01*
X350219Y694149D01*
X350284Y694119D01*
X350344Y694080D01*
X350395Y694067D01*
X350442Y694046D01*
X350513Y694038D01*
X350583Y694020D01*
X350635Y694024D01*
X350686Y694018D01*
X350757Y694034D01*
X350828Y694039D01*
X350876Y694060D01*
X350927Y694071D01*
X350988Y694108D01*
X351054Y694136D01*
X351110Y694180D01*
X351138Y694197D01*
X351153Y694215D01*
X351185Y694240D01*
X368711Y711766D01*
X368764Y711840D01*
X368824Y711910D01*
X368836Y711940D01*
X368855Y711966D01*
X368882Y712053D01*
X368916Y712138D01*
X368920Y712179D01*
X368927Y712201D01*
X368926Y712233D01*
X368934Y712305D01*
X368934Y725540D01*
X368920Y725631D01*
X368912Y725721D01*
X368900Y725751D01*
X368895Y725783D01*
X368852Y725864D01*
X368816Y725948D01*
X368790Y725980D01*
X368779Y726001D01*
X368756Y726023D01*
X368711Y726079D01*
X367283Y727507D01*
X367283Y730453D01*
X369367Y732537D01*
X372313Y732537D01*
X374397Y730453D01*
X374397Y727507D01*
X372969Y726079D01*
X372916Y726005D01*
X372856Y725935D01*
X372844Y725905D01*
X372825Y725879D01*
X372798Y725792D01*
X372764Y725707D01*
X372760Y725666D01*
X372753Y725644D01*
X372754Y725612D01*
X372746Y725540D01*
X372746Y710411D01*
X372041Y709706D01*
X372000Y709648D01*
X371950Y709596D01*
X371928Y709549D01*
X371898Y709507D01*
X371877Y709438D01*
X371847Y709373D01*
X371841Y709321D01*
X371825Y709271D01*
X371827Y709200D01*
X371819Y709129D01*
X371830Y709078D01*
X371832Y709026D01*
X371856Y708958D01*
X371872Y708888D01*
X371898Y708843D01*
X371916Y708795D01*
X371961Y708739D01*
X371998Y708677D01*
X372037Y708643D01*
X372070Y708603D01*
X372130Y708564D01*
X372185Y708517D01*
X372215Y708505D01*
X374397Y706323D01*
X374397Y703377D01*
X372969Y701949D01*
X372916Y701875D01*
X372856Y701805D01*
X372844Y701775D01*
X372825Y701749D01*
X372798Y701662D01*
X372764Y701577D01*
X372760Y701536D01*
X372753Y701514D01*
X372754Y701482D01*
X372746Y701410D01*
X372746Y634211D01*
X369501Y630966D01*
X369460Y630908D01*
X369410Y630856D01*
X369388Y630809D01*
X369358Y630767D01*
X369337Y630698D01*
X369307Y630633D01*
X369301Y630581D01*
X369285Y630531D01*
X369287Y630460D01*
X369279Y630389D01*
X369290Y630338D01*
X369292Y630286D01*
X369316Y630218D01*
X369332Y630148D01*
X369358Y630103D01*
X369376Y630055D01*
X369421Y629999D01*
X369458Y629937D01*
X369497Y629903D01*
X369530Y629863D01*
X369590Y629824D01*
X369645Y629777D01*
X369675Y629765D01*
X371857Y627583D01*
X371857Y624637D01*
X369773Y622553D01*
X367754Y622553D01*
X367664Y622539D01*
X367573Y622531D01*
X367543Y622519D01*
X367511Y622514D01*
X367430Y622471D01*
X367346Y622435D01*
X367314Y622409D01*
X367294Y622398D01*
X367271Y622375D01*
X367215Y622330D01*
X365349Y620464D01*
X365296Y620390D01*
X365236Y620320D01*
X365224Y620290D01*
X365205Y620264D01*
X365178Y620177D01*
X365144Y620092D01*
X365140Y620051D01*
X365133Y620029D01*
X365134Y619997D01*
X365126Y619925D01*
X365126Y592720D01*
X365140Y592629D01*
X365148Y592539D01*
X365160Y592509D01*
X365165Y592477D01*
X365208Y592396D01*
X365244Y592312D01*
X365270Y592280D01*
X365281Y592259D01*
X365304Y592237D01*
X365349Y592181D01*
X366869Y590661D01*
X366875Y590646D01*
X366907Y590606D01*
X366932Y590560D01*
X366984Y590510D01*
X367028Y590454D01*
X367072Y590426D01*
X367110Y590390D01*
X367175Y590360D01*
X367235Y590321D01*
X367286Y590308D01*
X367333Y590287D01*
X367404Y590279D01*
X367474Y590261D01*
X367526Y590265D01*
X367577Y590259D01*
X367648Y590275D01*
X367719Y590280D01*
X367767Y590301D01*
X367818Y590312D01*
X367879Y590349D01*
X367945Y590377D01*
X368001Y590421D01*
X368029Y590438D01*
X368044Y590456D01*
X368076Y590481D01*
X391190Y613595D01*
X391243Y613669D01*
X391303Y613739D01*
X391315Y613769D01*
X391334Y613795D01*
X391361Y613882D01*
X391395Y613967D01*
X391399Y614008D01*
X391406Y614030D01*
X391405Y614062D01*
X391413Y614134D01*
X391413Y616153D01*
X393497Y618237D01*
X396443Y618237D01*
X398527Y616153D01*
X398527Y613207D01*
X396443Y611123D01*
X394424Y611123D01*
X394334Y611109D01*
X394243Y611101D01*
X394213Y611089D01*
X394181Y611084D01*
X394100Y611041D01*
X394016Y611005D01*
X393984Y610979D01*
X393964Y610968D01*
X393941Y610945D01*
X393885Y610900D01*
X362739Y579754D01*
X320521Y579754D01*
X220344Y679931D01*
X220344Y697600D01*
X220330Y697691D01*
X220322Y697781D01*
X220310Y697811D01*
X220305Y697843D01*
X220262Y697924D01*
X220226Y698008D01*
X220200Y698040D01*
X220189Y698061D01*
X220166Y698083D01*
X220121Y698139D01*
X218693Y699567D01*
X218693Y702513D01*
X220777Y704597D01*
X223723Y704597D01*
X225807Y702513D01*
X225807Y699567D01*
X224379Y698139D01*
X224326Y698065D01*
X224266Y697995D01*
X224254Y697965D01*
X224235Y697939D01*
X224208Y697852D01*
X224174Y697767D01*
X224170Y697726D01*
X224163Y697704D01*
X224164Y697672D01*
X224156Y697600D01*
X224156Y681825D01*
X224170Y681735D01*
X224178Y681644D01*
X224190Y681614D01*
X224195Y681582D01*
X224238Y681501D01*
X224274Y681417D01*
X224300Y681385D01*
X224311Y681365D01*
X224334Y681342D01*
X224379Y681286D01*
X243175Y662490D01*
X243233Y662449D01*
X243285Y662399D01*
X243332Y662377D01*
X243374Y662347D01*
X243443Y662326D01*
X243508Y662296D01*
X243560Y662290D01*
X243610Y662274D01*
X243681Y662276D01*
X243752Y662268D01*
X243803Y662279D01*
X243855Y662281D01*
X243923Y662305D01*
X243993Y662321D01*
X244038Y662347D01*
X244086Y662365D01*
X244142Y662410D01*
X244204Y662447D01*
X244238Y662486D01*
X244278Y662519D01*
X244317Y662579D01*
X244364Y662634D01*
X244383Y662682D01*
X244411Y662726D01*
X244429Y662795D01*
X244456Y662862D01*
X244464Y662933D01*
X244472Y662964D01*
X244470Y662988D01*
X244474Y663029D01*
X244474Y721730D01*
X244460Y721821D01*
X244452Y721911D01*
X244440Y721941D01*
X244435Y721973D01*
X244392Y722054D01*
X244356Y722138D01*
X244330Y722170D01*
X244319Y722191D01*
X244296Y722213D01*
X244251Y722269D01*
X242823Y723697D01*
X242823Y726643D01*
X243225Y727045D01*
X243267Y727103D01*
X243316Y727155D01*
X243338Y727202D01*
X243368Y727244D01*
X243389Y727313D01*
X243420Y727378D01*
X243425Y727430D01*
X243441Y727480D01*
X243439Y727551D01*
X243447Y727622D01*
X243436Y727673D01*
X243434Y727725D01*
X243410Y727793D01*
X243394Y727863D01*
X243368Y727908D01*
X243350Y727956D01*
X243305Y728012D01*
X243268Y728074D01*
X243229Y728108D01*
X243196Y728148D01*
X243136Y728187D01*
X243081Y728234D01*
X243033Y728253D01*
X242989Y728281D01*
X242920Y728299D01*
X242853Y728326D01*
X242782Y728334D01*
X242751Y728342D01*
X242727Y728340D01*
X242686Y728344D01*
X242405Y728344D01*
X242315Y728330D01*
X242224Y728322D01*
X242194Y728310D01*
X242162Y728305D01*
X242081Y728262D01*
X241997Y728226D01*
X241965Y728200D01*
X241945Y728189D01*
X241922Y728166D01*
X241866Y728121D01*
X178589Y664844D01*
X161379Y664844D01*
X161308Y664833D01*
X161236Y664831D01*
X161187Y664813D01*
X161136Y664805D01*
X161073Y664771D01*
X161005Y664746D01*
X160965Y664714D01*
X160919Y664689D01*
X160869Y664637D01*
X160813Y664593D01*
X160785Y664549D01*
X160749Y664511D01*
X160719Y664446D01*
X160680Y664386D01*
X160667Y664335D01*
X160646Y664288D01*
X160638Y664217D01*
X160620Y664147D01*
X160624Y664095D01*
X160618Y664044D01*
X160634Y663973D01*
X160639Y663902D01*
X160660Y663854D01*
X160671Y663803D01*
X160708Y663742D01*
X160736Y663676D01*
X160780Y663620D01*
X160797Y663592D01*
X160815Y663577D01*
X160840Y663545D01*
X204655Y619730D01*
X204729Y619677D01*
X204799Y619617D01*
X204829Y619605D01*
X204855Y619586D01*
X204942Y619559D01*
X205027Y619525D01*
X205068Y619521D01*
X205090Y619514D01*
X205122Y619515D01*
X205194Y619507D01*
X207213Y619507D01*
X209297Y617423D01*
X209297Y614477D01*
X207213Y612393D01*
X204267Y612393D01*
X202183Y614477D01*
X202183Y616496D01*
X202169Y616586D01*
X202161Y616677D01*
X202149Y616707D01*
X202144Y616739D01*
X202101Y616820D01*
X202065Y616904D01*
X202039Y616936D01*
X202028Y616956D01*
X202005Y616979D01*
X201960Y617035D01*
X187736Y631259D01*
X187678Y631300D01*
X187626Y631350D01*
X187579Y631372D01*
X187537Y631402D01*
X187468Y631423D01*
X187403Y631453D01*
X187351Y631459D01*
X187301Y631475D01*
X187230Y631473D01*
X187159Y631481D01*
X187108Y631470D01*
X187056Y631468D01*
X186988Y631444D01*
X186918Y631428D01*
X186873Y631402D01*
X186825Y631384D01*
X186769Y631339D01*
X186707Y631302D01*
X186673Y631263D01*
X186633Y631230D01*
X186594Y631170D01*
X186547Y631115D01*
X186535Y631085D01*
X184353Y628903D01*
X181407Y628903D01*
X179979Y630331D01*
X179905Y630384D01*
X179835Y630444D01*
X179805Y630456D01*
X179779Y630475D01*
X179692Y630502D01*
X179607Y630536D01*
X179566Y630540D01*
X179544Y630547D01*
X179512Y630546D01*
X179440Y630554D01*
X155421Y630554D01*
X114076Y671899D01*
X114018Y671940D01*
X113966Y671990D01*
X113919Y672012D01*
X113877Y672042D01*
X113808Y672063D01*
X113743Y672093D01*
X113691Y672099D01*
X113641Y672115D01*
X113570Y672113D01*
X113499Y672121D01*
X113448Y672110D01*
X113396Y672108D01*
X113328Y672084D01*
X113258Y672068D01*
X113213Y672042D01*
X113165Y672024D01*
X113109Y671979D01*
X113047Y671942D01*
X113013Y671903D01*
X112973Y671870D01*
X112934Y671810D01*
X112887Y671755D01*
X112875Y671725D01*
X110693Y669543D01*
X107747Y669543D01*
X105663Y671627D01*
X105663Y673646D01*
X105649Y673736D01*
X105641Y673827D01*
X105629Y673857D01*
X105624Y673889D01*
X105581Y673970D01*
X105545Y674054D01*
X105519Y674086D01*
X105508Y674106D01*
X105485Y674129D01*
X105440Y674185D01*
X102234Y677391D01*
X102234Y687859D01*
X107161Y692786D01*
X107861Y692786D01*
X107932Y692797D01*
X108004Y692799D01*
X108053Y692817D01*
X108104Y692825D01*
X108167Y692859D01*
X108235Y692884D01*
X108275Y692916D01*
X108321Y692941D01*
X108371Y692993D01*
X108427Y693037D01*
X108455Y693081D01*
X108491Y693119D01*
X108521Y693184D01*
X108560Y693244D01*
X108573Y693295D01*
X108594Y693342D01*
X108602Y693413D01*
X108620Y693483D01*
X108616Y693535D01*
X108622Y693586D01*
X108606Y693657D01*
X108601Y693728D01*
X108580Y693776D01*
X108569Y693827D01*
X108532Y693888D01*
X108504Y693954D01*
X108460Y694010D01*
X108443Y694038D01*
X108425Y694053D01*
X108400Y694085D01*
X80714Y721771D01*
X80640Y721824D01*
X80570Y721884D01*
X80540Y721896D01*
X80514Y721915D01*
X80427Y721942D01*
X80342Y721976D01*
X80301Y721980D01*
X80279Y721987D01*
X80247Y721986D01*
X80175Y721994D01*
X77976Y721994D01*
X77880Y721979D01*
X77783Y721969D01*
X77759Y721959D01*
X77733Y721955D01*
X77647Y721909D01*
X77558Y721869D01*
X77539Y721852D01*
X77516Y721839D01*
X77449Y721769D01*
X77377Y721703D01*
X77365Y721680D01*
X77347Y721661D01*
X77305Y721573D01*
X77259Y721487D01*
X77254Y721462D01*
X77243Y721438D01*
X77232Y721341D01*
X77215Y721245D01*
X77219Y721219D01*
X77216Y721194D01*
X77236Y721098D01*
X77251Y721002D01*
X77263Y720979D01*
X77268Y720953D01*
X77318Y720870D01*
X77362Y720783D01*
X77381Y720764D01*
X77394Y720742D01*
X77468Y720679D01*
X77538Y720611D01*
X77566Y720595D01*
X77581Y720582D01*
X77612Y720570D01*
X77685Y720530D01*
X78420Y720225D01*
X81415Y717230D01*
X83036Y713318D01*
X83036Y709082D01*
X81415Y705170D01*
X78420Y702175D01*
X74508Y700554D01*
X70272Y700554D01*
X66360Y702175D01*
X63365Y705170D01*
X61744Y709082D01*
X61744Y713318D01*
X63365Y717230D01*
X66360Y720225D01*
X67095Y720530D01*
X67178Y720581D01*
X67264Y720627D01*
X67282Y720646D01*
X67304Y720659D01*
X67366Y720734D01*
X67433Y720805D01*
X67444Y720829D01*
X67461Y720849D01*
X67496Y720940D01*
X67537Y721028D01*
X67540Y721054D01*
X67549Y721078D01*
X67553Y721176D01*
X67564Y721272D01*
X67559Y721298D01*
X67560Y721324D01*
X67533Y721418D01*
X67512Y721513D01*
X67499Y721535D01*
X67491Y721560D01*
X67436Y721640D01*
X67386Y721724D01*
X67366Y721741D01*
X67351Y721762D01*
X67273Y721821D01*
X67199Y721884D01*
X67175Y721894D01*
X67154Y721909D01*
X67061Y721939D01*
X66971Y721976D01*
X66938Y721979D01*
X66920Y721985D01*
X66887Y721985D01*
X66804Y721994D01*
X63981Y721994D01*
X56248Y729726D01*
X56232Y729738D01*
X56220Y729754D01*
X56133Y729810D01*
X56049Y729870D01*
X56030Y729876D01*
X56013Y729887D01*
X55912Y729912D01*
X55814Y729942D01*
X55794Y729942D01*
X55774Y729947D01*
X55671Y729939D01*
X55568Y729936D01*
X55549Y729929D01*
X55529Y729928D01*
X55434Y729887D01*
X55337Y729852D01*
X55321Y729839D01*
X55303Y729831D01*
X55172Y729726D01*
X53020Y727575D01*
X49108Y725954D01*
X44872Y725954D01*
X40960Y727575D01*
X37965Y730570D01*
X36344Y734482D01*
X36344Y738718D01*
X37965Y742630D01*
X40960Y745625D01*
X44872Y747246D01*
X49108Y747246D01*
X53020Y745625D01*
X56015Y742630D01*
X57636Y738718D01*
X57636Y734482D01*
X57610Y734420D01*
X57583Y734306D01*
X57555Y734193D01*
X57555Y734187D01*
X57554Y734180D01*
X57565Y734064D01*
X57574Y733948D01*
X57576Y733942D01*
X57577Y733936D01*
X57625Y733828D01*
X57670Y733721D01*
X57675Y733715D01*
X57677Y733711D01*
X57689Y733697D01*
X57775Y733590D01*
X64867Y726498D01*
X64883Y726487D01*
X64895Y726471D01*
X64983Y726415D01*
X65066Y726355D01*
X65085Y726349D01*
X65102Y726338D01*
X65203Y726313D01*
X65302Y726282D01*
X65321Y726283D01*
X65341Y726278D01*
X65444Y726286D01*
X65547Y726289D01*
X65566Y726296D01*
X65586Y726297D01*
X65681Y726338D01*
X65778Y726373D01*
X65794Y726386D01*
X65812Y726394D01*
X65943Y726498D01*
X66151Y726707D01*
X66163Y726723D01*
X66179Y726735D01*
X66235Y726823D01*
X66295Y726906D01*
X66301Y726925D01*
X66312Y726942D01*
X66337Y727043D01*
X66367Y727141D01*
X66367Y727161D01*
X66372Y727181D01*
X66364Y727284D01*
X66361Y727387D01*
X66354Y727406D01*
X66353Y727426D01*
X66312Y727521D01*
X66277Y727618D01*
X66264Y727634D01*
X66256Y727652D01*
X66151Y727783D01*
X63365Y730570D01*
X61744Y734482D01*
X61744Y738718D01*
X63365Y742630D01*
X66360Y745625D01*
X70272Y747246D01*
X74508Y747246D01*
X78420Y745625D01*
X81415Y742630D01*
X83036Y738718D01*
X83036Y736585D01*
X83050Y736495D01*
X83058Y736404D01*
X83070Y736374D01*
X83075Y736342D01*
X83118Y736261D01*
X83154Y736177D01*
X83180Y736145D01*
X83191Y736125D01*
X83214Y736102D01*
X83259Y736046D01*
X93276Y726029D01*
X93350Y725976D01*
X93420Y725916D01*
X93450Y725904D01*
X93476Y725885D01*
X93563Y725858D01*
X93648Y725824D01*
X93689Y725820D01*
X93711Y725813D01*
X93743Y725814D01*
X93815Y725806D01*
X105526Y725806D01*
X105597Y725817D01*
X105669Y725819D01*
X105718Y725837D01*
X105769Y725845D01*
X105833Y725879D01*
X105900Y725904D01*
X105941Y725936D01*
X105987Y725961D01*
X106036Y726012D01*
X106092Y726057D01*
X106120Y726101D01*
X106156Y726139D01*
X106186Y726204D01*
X106225Y726264D01*
X106238Y726315D01*
X106260Y726362D01*
X106268Y726433D01*
X106285Y726503D01*
X106281Y726555D01*
X106287Y726606D01*
X106271Y726677D01*
X106266Y726748D01*
X106246Y726796D01*
X106234Y726847D01*
X106198Y726908D01*
X106170Y726974D01*
X106125Y727030D01*
X106108Y727058D01*
X106091Y727073D01*
X106065Y727105D01*
X105663Y727507D01*
X105663Y729526D01*
X105649Y729616D01*
X105641Y729707D01*
X105629Y729737D01*
X105624Y729769D01*
X105581Y729850D01*
X105545Y729934D01*
X105519Y729966D01*
X105508Y729986D01*
X105485Y730009D01*
X105440Y730065D01*
X47624Y787881D01*
X47624Y801740D01*
X47610Y801831D01*
X47602Y801921D01*
X47590Y801951D01*
X47585Y801983D01*
X47542Y802064D01*
X47506Y802148D01*
X47480Y802180D01*
X47469Y802201D01*
X47446Y802223D01*
X47401Y802279D01*
X45881Y803799D01*
X45875Y803814D01*
X45843Y803854D01*
X45818Y803900D01*
X45766Y803950D01*
X45722Y804006D01*
X45678Y804034D01*
X45640Y804070D01*
X45575Y804100D01*
X45515Y804139D01*
X45464Y804152D01*
X45417Y804173D01*
X45346Y804181D01*
X45276Y804199D01*
X45224Y804195D01*
X45173Y804201D01*
X45102Y804185D01*
X45031Y804180D01*
X44983Y804159D01*
X44932Y804148D01*
X44871Y804111D01*
X44805Y804083D01*
X44749Y804039D01*
X44721Y804022D01*
X44706Y804004D01*
X44674Y803979D01*
X23719Y783024D01*
X23666Y782950D01*
X23606Y782880D01*
X23594Y782850D01*
X23575Y782824D01*
X23548Y782737D01*
X23514Y782652D01*
X23510Y782611D01*
X23503Y782589D01*
X23504Y782557D01*
X23496Y782485D01*
X23496Y749184D01*
X23507Y749113D01*
X23509Y749041D01*
X23527Y748992D01*
X23535Y748941D01*
X23569Y748877D01*
X23594Y748810D01*
X23626Y748769D01*
X23651Y748723D01*
X23702Y748674D01*
X23747Y748618D01*
X23791Y748590D01*
X23829Y748554D01*
X23894Y748524D01*
X23954Y748485D01*
X24005Y748472D01*
X24052Y748450D01*
X24123Y748442D01*
X24193Y748425D01*
X24245Y748429D01*
X24296Y748423D01*
X24367Y748439D01*
X24438Y748444D01*
X24486Y748464D01*
X24537Y748476D01*
X24598Y748512D01*
X24664Y748540D01*
X24720Y748585D01*
X24748Y748602D01*
X24763Y748619D01*
X24795Y748645D01*
X25197Y749047D01*
X28143Y749047D01*
X30227Y746963D01*
X30227Y744017D01*
X28799Y742589D01*
X28746Y742515D01*
X28686Y742445D01*
X28674Y742415D01*
X28655Y742389D01*
X28628Y742302D01*
X28594Y742217D01*
X28590Y742176D01*
X28583Y742154D01*
X28584Y742122D01*
X28576Y742050D01*
X28576Y582765D01*
X28590Y582675D01*
X28598Y582584D01*
X28610Y582554D01*
X28615Y582522D01*
X28658Y582441D01*
X28694Y582357D01*
X28720Y582325D01*
X28731Y582305D01*
X28754Y582282D01*
X28799Y582226D01*
X56446Y554579D01*
X56520Y554526D01*
X56590Y554466D01*
X56620Y554454D01*
X56646Y554435D01*
X56733Y554408D01*
X56818Y554374D01*
X56859Y554370D01*
X56881Y554363D01*
X56913Y554364D01*
X56985Y554356D01*
X61749Y554356D01*
X68818Y547288D01*
X68834Y547276D01*
X68846Y547260D01*
X68933Y547204D01*
X69017Y547144D01*
X69036Y547138D01*
X69053Y547127D01*
X69154Y547102D01*
X69252Y547072D01*
X69272Y547072D01*
X69292Y547067D01*
X69395Y547075D01*
X69498Y547078D01*
X69517Y547085D01*
X69537Y547086D01*
X69632Y547127D01*
X69729Y547162D01*
X69745Y547175D01*
X69763Y547183D01*
X69894Y547288D01*
X71164Y548557D01*
X74432Y549911D01*
X77968Y549911D01*
X81236Y548557D01*
X83737Y546056D01*
X85091Y542788D01*
X85091Y524012D01*
X83737Y520744D01*
X81236Y518243D01*
X77968Y516889D01*
X74432Y516889D01*
G37*
%LPD*%
G36*
X345627Y583577D02*
X345627Y583577D01*
X345699Y583579D01*
X345748Y583597D01*
X345799Y583605D01*
X345863Y583639D01*
X345930Y583664D01*
X345971Y583696D01*
X346017Y583721D01*
X346066Y583772D01*
X346122Y583817D01*
X346150Y583861D01*
X346186Y583899D01*
X346216Y583964D01*
X346255Y584024D01*
X346268Y584075D01*
X346290Y584122D01*
X346298Y584193D01*
X346315Y584263D01*
X346311Y584315D01*
X346317Y584366D01*
X346301Y584437D01*
X346296Y584508D01*
X346276Y584556D01*
X346264Y584607D01*
X346228Y584668D01*
X346200Y584734D01*
X346155Y584790D01*
X346138Y584818D01*
X346121Y584833D01*
X346095Y584865D01*
X345693Y585267D01*
X345693Y588213D01*
X347121Y589641D01*
X347174Y589715D01*
X347234Y589785D01*
X347246Y589815D01*
X347265Y589841D01*
X347292Y589928D01*
X347326Y590013D01*
X347330Y590054D01*
X347337Y590076D01*
X347336Y590108D01*
X347344Y590180D01*
X347344Y602096D01*
X347333Y602167D01*
X347331Y602239D01*
X347313Y602288D01*
X347305Y602339D01*
X347271Y602403D01*
X347246Y602470D01*
X347214Y602511D01*
X347189Y602557D01*
X347138Y602606D01*
X347093Y602662D01*
X347049Y602690D01*
X347011Y602726D01*
X346946Y602756D01*
X346886Y602795D01*
X346835Y602808D01*
X346788Y602830D01*
X346717Y602838D01*
X346647Y602855D01*
X346595Y602851D01*
X346544Y602857D01*
X346473Y602841D01*
X346402Y602836D01*
X346354Y602816D01*
X346303Y602804D01*
X346242Y602768D01*
X346176Y602740D01*
X346120Y602695D01*
X346092Y602678D01*
X346077Y602661D01*
X346045Y602635D01*
X345643Y602233D01*
X343624Y602233D01*
X343534Y602219D01*
X343443Y602211D01*
X343413Y602199D01*
X343381Y602194D01*
X343300Y602151D01*
X343216Y602115D01*
X343184Y602089D01*
X343164Y602078D01*
X343141Y602055D01*
X343085Y602010D01*
X340330Y599255D01*
X340277Y599181D01*
X340217Y599111D01*
X340205Y599081D01*
X340186Y599055D01*
X340159Y598968D01*
X340125Y598883D01*
X340121Y598842D01*
X340114Y598820D01*
X340115Y598788D01*
X340107Y598716D01*
X340107Y596697D01*
X338023Y594613D01*
X335077Y594613D01*
X332993Y596697D01*
X332993Y599643D01*
X335077Y601727D01*
X337096Y601727D01*
X337186Y601741D01*
X337277Y601749D01*
X337307Y601761D01*
X337339Y601766D01*
X337420Y601809D01*
X337504Y601845D01*
X337536Y601871D01*
X337556Y601882D01*
X337579Y601905D01*
X337635Y601950D01*
X340390Y604705D01*
X340443Y604779D01*
X340503Y604849D01*
X340515Y604879D01*
X340534Y604905D01*
X340561Y604992D01*
X340595Y605077D01*
X340599Y605118D01*
X340606Y605140D01*
X340605Y605172D01*
X340613Y605244D01*
X340613Y607263D01*
X342697Y609347D01*
X345643Y609347D01*
X346045Y608945D01*
X346103Y608903D01*
X346155Y608854D01*
X346202Y608832D01*
X346244Y608802D01*
X346313Y608781D01*
X346378Y608750D01*
X346430Y608745D01*
X346480Y608729D01*
X346551Y608731D01*
X346622Y608723D01*
X346673Y608734D01*
X346725Y608736D01*
X346793Y608760D01*
X346863Y608776D01*
X346908Y608802D01*
X346956Y608820D01*
X347012Y608865D01*
X347074Y608902D01*
X347108Y608941D01*
X347148Y608974D01*
X347187Y609034D01*
X347234Y609089D01*
X347253Y609137D01*
X347281Y609181D01*
X347299Y609250D01*
X347326Y609317D01*
X347334Y609388D01*
X347342Y609419D01*
X347340Y609443D01*
X347344Y609484D01*
X347344Y614199D01*
X368711Y635566D01*
X368764Y635640D01*
X368824Y635710D01*
X368836Y635740D01*
X368855Y635766D01*
X368882Y635853D01*
X368916Y635938D01*
X368920Y635979D01*
X368927Y636001D01*
X368926Y636033D01*
X368934Y636105D01*
X368934Y701410D01*
X368920Y701501D01*
X368912Y701591D01*
X368900Y701621D01*
X368895Y701653D01*
X368852Y701734D01*
X368816Y701818D01*
X368790Y701850D01*
X368779Y701871D01*
X368756Y701893D01*
X368711Y701949D01*
X367191Y703469D01*
X367185Y703484D01*
X367153Y703524D01*
X367128Y703570D01*
X367076Y703620D01*
X367032Y703676D01*
X366988Y703704D01*
X366950Y703740D01*
X366885Y703770D01*
X366825Y703809D01*
X366774Y703822D01*
X366727Y703843D01*
X366656Y703851D01*
X366586Y703869D01*
X366534Y703865D01*
X366483Y703871D01*
X366412Y703855D01*
X366341Y703850D01*
X366293Y703829D01*
X366242Y703818D01*
X366181Y703781D01*
X366115Y703753D01*
X366059Y703709D01*
X366031Y703692D01*
X366016Y703674D01*
X365984Y703649D01*
X313279Y650944D01*
X313226Y650870D01*
X313166Y650800D01*
X313154Y650770D01*
X313135Y650744D01*
X313108Y650657D01*
X313074Y650572D01*
X313070Y650531D01*
X313063Y650509D01*
X313064Y650477D01*
X313056Y650405D01*
X313056Y613040D01*
X313070Y612949D01*
X313078Y612859D01*
X313090Y612829D01*
X313095Y612797D01*
X313138Y612716D01*
X313174Y612632D01*
X313200Y612600D01*
X313211Y612579D01*
X313234Y612557D01*
X313279Y612501D01*
X314707Y611073D01*
X314707Y608127D01*
X312623Y606043D01*
X309677Y606043D01*
X307593Y608127D01*
X307593Y611073D01*
X309021Y612501D01*
X309074Y612575D01*
X309134Y612645D01*
X309146Y612675D01*
X309165Y612701D01*
X309192Y612788D01*
X309226Y612873D01*
X309230Y612914D01*
X309237Y612936D01*
X309236Y612968D01*
X309244Y613040D01*
X309244Y648881D01*
X309233Y648952D01*
X309231Y649024D01*
X309213Y649073D01*
X309205Y649124D01*
X309171Y649187D01*
X309146Y649255D01*
X309114Y649296D01*
X309089Y649341D01*
X309038Y649391D01*
X308993Y649447D01*
X308949Y649475D01*
X308911Y649511D01*
X308846Y649541D01*
X308786Y649580D01*
X308735Y649593D01*
X308688Y649614D01*
X308617Y649622D01*
X308547Y649640D01*
X308495Y649636D01*
X308444Y649642D01*
X308373Y649626D01*
X308302Y649621D01*
X308254Y649600D01*
X308203Y649589D01*
X308142Y649552D01*
X308076Y649524D01*
X308020Y649480D01*
X307992Y649463D01*
X307977Y649445D01*
X307945Y649420D01*
X290151Y631626D01*
X290139Y631610D01*
X290124Y631597D01*
X290067Y631510D01*
X290007Y631426D01*
X290001Y631407D01*
X289991Y631390D01*
X289965Y631290D01*
X289935Y631191D01*
X289935Y631171D01*
X289931Y631152D01*
X289939Y631049D01*
X289941Y630945D01*
X289948Y630926D01*
X289950Y630906D01*
X289990Y630812D01*
X289997Y630793D01*
X289997Y630792D01*
X289998Y630791D01*
X290026Y630714D01*
X290038Y630698D01*
X290046Y630680D01*
X290116Y630593D01*
X290123Y630581D01*
X290131Y630574D01*
X290151Y630549D01*
X290577Y630123D01*
X290577Y627177D01*
X288401Y625001D01*
X288386Y624995D01*
X288346Y624963D01*
X288300Y624938D01*
X288250Y624886D01*
X288194Y624842D01*
X288166Y624798D01*
X288130Y624760D01*
X288100Y624695D01*
X288061Y624635D01*
X288048Y624584D01*
X288027Y624537D01*
X288019Y624466D01*
X288001Y624396D01*
X288005Y624344D01*
X287999Y624293D01*
X288015Y624222D01*
X288020Y624151D01*
X288041Y624103D01*
X288052Y624052D01*
X288089Y623991D01*
X288117Y623925D01*
X288161Y623869D01*
X288178Y623841D01*
X288196Y623826D01*
X288221Y623794D01*
X315145Y596870D01*
X315219Y596817D01*
X315289Y596757D01*
X315319Y596745D01*
X315345Y596726D01*
X315432Y596699D01*
X315517Y596665D01*
X315558Y596661D01*
X315580Y596654D01*
X315612Y596655D01*
X315684Y596647D01*
X317703Y596647D01*
X319787Y594563D01*
X319787Y591617D01*
X317611Y589441D01*
X317596Y589435D01*
X317556Y589403D01*
X317510Y589378D01*
X317460Y589326D01*
X317404Y589282D01*
X317376Y589238D01*
X317340Y589200D01*
X317310Y589135D01*
X317271Y589075D01*
X317258Y589024D01*
X317237Y588977D01*
X317229Y588906D01*
X317211Y588836D01*
X317215Y588784D01*
X317209Y588733D01*
X317225Y588662D01*
X317230Y588591D01*
X317251Y588543D01*
X317262Y588492D01*
X317299Y588431D01*
X317327Y588365D01*
X317371Y588309D01*
X317388Y588281D01*
X317406Y588266D01*
X317431Y588234D01*
X321876Y583789D01*
X321950Y583736D01*
X322020Y583676D01*
X322050Y583664D01*
X322076Y583645D01*
X322163Y583618D01*
X322248Y583584D01*
X322289Y583580D01*
X322311Y583573D01*
X322343Y583574D01*
X322415Y583566D01*
X345556Y583566D01*
X345627Y583577D01*
G37*
%LPC*%
G36*
X49032Y516889D02*
X49032Y516889D01*
X45764Y518243D01*
X43263Y520744D01*
X41909Y524012D01*
X41909Y542788D01*
X43263Y546056D01*
X45764Y548557D01*
X49032Y549911D01*
X52568Y549911D01*
X54420Y549144D01*
X54473Y549131D01*
X54502Y549120D01*
X54575Y549080D01*
X55836Y548557D01*
X58337Y546056D01*
X59691Y542788D01*
X59691Y524012D01*
X58337Y520744D01*
X55836Y518243D01*
X52568Y516889D01*
X49032Y516889D01*
G37*
%LPD*%
%LPC*%
G36*
X150632Y516889D02*
X150632Y516889D01*
X147364Y518243D01*
X144863Y520744D01*
X143509Y524012D01*
X143509Y542788D01*
X144863Y546056D01*
X147364Y548557D01*
X150632Y549911D01*
X154168Y549911D01*
X157436Y548557D01*
X159937Y546056D01*
X161291Y542788D01*
X161291Y524012D01*
X159937Y520744D01*
X157436Y518243D01*
X154168Y516889D01*
X150632Y516889D01*
G37*
%LPD*%
%LPC*%
G36*
X125232Y516889D02*
X125232Y516889D01*
X121964Y518243D01*
X119463Y520744D01*
X118109Y524012D01*
X118109Y542788D01*
X119463Y546056D01*
X121964Y548557D01*
X125232Y549911D01*
X128768Y549911D01*
X132036Y548557D01*
X134537Y546056D01*
X135891Y542788D01*
X135891Y524012D01*
X134537Y520744D01*
X132036Y518243D01*
X128768Y516889D01*
X125232Y516889D01*
G37*
%LPD*%
%LPC*%
G36*
X23632Y516889D02*
X23632Y516889D01*
X20364Y518243D01*
X17863Y520744D01*
X16509Y524012D01*
X16509Y542788D01*
X17863Y546056D01*
X20364Y548557D01*
X23632Y549911D01*
X27168Y549911D01*
X30436Y548557D01*
X32937Y546056D01*
X34291Y542788D01*
X34291Y524012D01*
X32937Y520744D01*
X30436Y518243D01*
X27168Y516889D01*
X23632Y516889D01*
G37*
%LPD*%
%LPC*%
G36*
X62489Y573554D02*
X62489Y573554D01*
X61744Y574299D01*
X61744Y594101D01*
X62489Y594846D01*
X82291Y594846D01*
X83036Y594101D01*
X83036Y574299D01*
X82291Y573554D01*
X62489Y573554D01*
G37*
%LPD*%
%LPC*%
G36*
X44872Y700554D02*
X44872Y700554D01*
X40960Y702175D01*
X37965Y705170D01*
X36344Y709082D01*
X36344Y713318D01*
X37965Y717230D01*
X40960Y720225D01*
X44872Y721846D01*
X49108Y721846D01*
X53020Y720225D01*
X56015Y717230D01*
X57636Y713318D01*
X57636Y709082D01*
X56015Y705170D01*
X53020Y702175D01*
X49108Y700554D01*
X44872Y700554D01*
G37*
%LPD*%
%LPC*%
G36*
X44872Y675154D02*
X44872Y675154D01*
X40960Y676775D01*
X37965Y679770D01*
X36344Y683682D01*
X36344Y687918D01*
X37965Y691830D01*
X40960Y694825D01*
X44872Y696446D01*
X49108Y696446D01*
X53020Y694825D01*
X56015Y691830D01*
X57636Y687918D01*
X57636Y683682D01*
X56015Y679770D01*
X53020Y676775D01*
X49108Y675154D01*
X44872Y675154D01*
G37*
%LPD*%
%LPC*%
G36*
X70272Y675154D02*
X70272Y675154D01*
X66360Y676775D01*
X63365Y679770D01*
X61744Y683682D01*
X61744Y687918D01*
X63365Y691830D01*
X66360Y694825D01*
X70272Y696446D01*
X74508Y696446D01*
X78420Y694825D01*
X81415Y691830D01*
X83036Y687918D01*
X83036Y683682D01*
X81415Y679770D01*
X78420Y676775D01*
X74508Y675154D01*
X70272Y675154D01*
G37*
%LPD*%
%LPC*%
G36*
X44872Y649754D02*
X44872Y649754D01*
X40960Y651375D01*
X37965Y654370D01*
X36344Y658282D01*
X36344Y662518D01*
X37965Y666430D01*
X40960Y669425D01*
X44872Y671046D01*
X49108Y671046D01*
X53020Y669425D01*
X56015Y666430D01*
X57636Y662518D01*
X57636Y658282D01*
X56015Y654370D01*
X53020Y651375D01*
X49108Y649754D01*
X44872Y649754D01*
G37*
%LPD*%
%LPC*%
G36*
X70272Y649754D02*
X70272Y649754D01*
X66360Y651375D01*
X63365Y654370D01*
X61744Y658282D01*
X61744Y662518D01*
X63365Y666430D01*
X66360Y669425D01*
X70272Y671046D01*
X74508Y671046D01*
X78420Y669425D01*
X81415Y666430D01*
X83036Y662518D01*
X83036Y658282D01*
X81415Y654370D01*
X78420Y651375D01*
X74508Y649754D01*
X70272Y649754D01*
G37*
%LPD*%
%LPC*%
G36*
X44872Y624354D02*
X44872Y624354D01*
X40960Y625975D01*
X37965Y628970D01*
X36344Y632882D01*
X36344Y637118D01*
X37965Y641030D01*
X40960Y644025D01*
X44872Y645646D01*
X49108Y645646D01*
X53020Y644025D01*
X56015Y641030D01*
X57636Y637118D01*
X57636Y632882D01*
X56015Y628970D01*
X53020Y625975D01*
X49108Y624354D01*
X44872Y624354D01*
G37*
%LPD*%
%LPC*%
G36*
X70272Y624354D02*
X70272Y624354D01*
X66360Y625975D01*
X63365Y628970D01*
X61744Y632882D01*
X61744Y637118D01*
X63365Y641030D01*
X66360Y644025D01*
X70272Y645646D01*
X74508Y645646D01*
X78420Y644025D01*
X81415Y641030D01*
X83036Y637118D01*
X83036Y632882D01*
X81415Y628970D01*
X78420Y625975D01*
X74508Y624354D01*
X70272Y624354D01*
G37*
%LPD*%
%LPC*%
G36*
X44872Y598954D02*
X44872Y598954D01*
X40960Y600575D01*
X37965Y603570D01*
X36344Y607482D01*
X36344Y611718D01*
X37965Y615630D01*
X40960Y618625D01*
X44872Y620246D01*
X49108Y620246D01*
X53020Y618625D01*
X56015Y615630D01*
X57636Y611718D01*
X57636Y607482D01*
X56015Y603570D01*
X53020Y600575D01*
X49108Y598954D01*
X44872Y598954D01*
G37*
%LPD*%
%LPC*%
G36*
X70272Y598954D02*
X70272Y598954D01*
X66360Y600575D01*
X63365Y603570D01*
X61744Y607482D01*
X61744Y611718D01*
X63365Y615630D01*
X66360Y618625D01*
X70272Y620246D01*
X74508Y620246D01*
X78420Y618625D01*
X81415Y615630D01*
X83036Y611718D01*
X83036Y607482D01*
X81415Y603570D01*
X78420Y600575D01*
X74508Y598954D01*
X70272Y598954D01*
G37*
%LPD*%
%LPC*%
G36*
X472481Y776751D02*
X472481Y776751D01*
X469988Y777784D01*
X468080Y779692D01*
X467047Y782185D01*
X467047Y784883D01*
X468080Y787376D01*
X469988Y789284D01*
X472481Y790316D01*
X475179Y790316D01*
X477672Y789284D01*
X479580Y787376D01*
X480613Y784883D01*
X480613Y782185D01*
X479580Y779692D01*
X477672Y777784D01*
X475179Y776751D01*
X472481Y776751D01*
G37*
%LPD*%
%LPC*%
G36*
X472481Y708751D02*
X472481Y708751D01*
X469988Y709784D01*
X468080Y711692D01*
X467047Y714185D01*
X467047Y716883D01*
X468080Y719376D01*
X469988Y721284D01*
X472481Y722316D01*
X475179Y722316D01*
X477672Y721284D01*
X479580Y719376D01*
X480613Y716883D01*
X480613Y714185D01*
X479580Y711692D01*
X477672Y709784D01*
X475179Y708751D01*
X472481Y708751D01*
G37*
%LPD*%
%LPC*%
G36*
X103123Y534923D02*
X103123Y534923D01*
X103123Y551066D01*
X103979Y550931D01*
X105500Y550436D01*
X106925Y549710D01*
X108219Y548770D01*
X109350Y547639D01*
X110290Y546345D01*
X111016Y544920D01*
X111511Y543399D01*
X111761Y541820D01*
X111761Y534923D01*
X103123Y534923D01*
G37*
%LPD*%
%LPC*%
G36*
X103123Y531877D02*
X103123Y531877D01*
X111761Y531877D01*
X111761Y524980D01*
X111511Y523401D01*
X111016Y521880D01*
X110290Y520455D01*
X109350Y519161D01*
X108219Y518030D01*
X106925Y517090D01*
X105500Y516364D01*
X103979Y515869D01*
X103123Y515734D01*
X103123Y531877D01*
G37*
%LPD*%
%LPC*%
G36*
X91439Y534923D02*
X91439Y534923D01*
X91439Y541820D01*
X91689Y543399D01*
X92184Y544920D01*
X92910Y546345D01*
X93850Y547639D01*
X94981Y548770D01*
X96275Y549710D01*
X97700Y550436D01*
X99221Y550931D01*
X100077Y551066D01*
X100077Y534923D01*
X91439Y534923D01*
G37*
%LPD*%
%LPC*%
G36*
X99221Y515869D02*
X99221Y515869D01*
X97700Y516364D01*
X96275Y517090D01*
X94981Y518030D01*
X93850Y519161D01*
X92910Y520455D01*
X92184Y521880D01*
X91689Y523401D01*
X91439Y524980D01*
X91439Y531877D01*
X100077Y531877D01*
X100077Y515734D01*
X99221Y515869D01*
G37*
%LPD*%
%LPC*%
G36*
X48513Y585723D02*
X48513Y585723D01*
X48513Y596023D01*
X49780Y595822D01*
X51564Y595243D01*
X53235Y594391D01*
X54753Y593289D01*
X56079Y591963D01*
X57181Y590445D01*
X58033Y588774D01*
X58612Y586990D01*
X58813Y585723D01*
X48513Y585723D01*
G37*
%LPD*%
%LPC*%
G36*
X35167Y585723D02*
X35167Y585723D01*
X35368Y586990D01*
X35947Y588774D01*
X36799Y590445D01*
X37901Y591963D01*
X39227Y593289D01*
X40745Y594391D01*
X42416Y595243D01*
X44200Y595822D01*
X45467Y596023D01*
X45467Y585723D01*
X35167Y585723D01*
G37*
%LPD*%
%LPC*%
G36*
X48513Y582677D02*
X48513Y582677D01*
X58813Y582677D01*
X58612Y581410D01*
X58033Y579626D01*
X57181Y577955D01*
X56079Y576437D01*
X54753Y575111D01*
X53235Y574009D01*
X51564Y573157D01*
X49780Y572578D01*
X48513Y572377D01*
X48513Y582677D01*
G37*
%LPD*%
%LPC*%
G36*
X44200Y572578D02*
X44200Y572578D01*
X42416Y573157D01*
X40745Y574009D01*
X39227Y575111D01*
X37901Y576437D01*
X36799Y577955D01*
X35947Y579626D01*
X35368Y581410D01*
X35167Y582677D01*
X45467Y582677D01*
X45467Y572377D01*
X44200Y572578D01*
G37*
%LPD*%
%LPC*%
G36*
X46989Y584199D02*
X46989Y584199D01*
X46989Y584201D01*
X46991Y584201D01*
X46991Y584199D01*
X46989Y584199D01*
G37*
%LPD*%
%LPC*%
G36*
X101599Y533399D02*
X101599Y533399D01*
X101599Y533401D01*
X101601Y533401D01*
X101601Y533399D01*
X101599Y533399D01*
G37*
%LPD*%
D10*
X72390Y584200D03*
D11*
X46990Y584200D03*
X72390Y609600D03*
X46990Y609600D03*
X72390Y635000D03*
X46990Y635000D03*
X72390Y660400D03*
X46990Y660400D03*
X72390Y685800D03*
X46990Y685800D03*
X72390Y711200D03*
X46990Y711200D03*
X72390Y736600D03*
X46990Y736600D03*
D12*
X25400Y541020D02*
X25400Y525780D01*
X50800Y525780D02*
X50800Y541020D01*
X76200Y541020D02*
X76200Y525780D01*
X101600Y525780D02*
X101600Y541020D01*
X127000Y541020D02*
X127000Y525780D01*
X152400Y525780D02*
X152400Y541020D01*
D13*
X339090Y638810D03*
X330200Y622300D03*
X133350Y727710D03*
X153670Y737870D03*
D14*
X167640Y674370D02*
X130810Y674370D01*
X81280Y723900D01*
X77470Y723900D01*
X76200Y725170D01*
X67310Y725170D01*
X66040Y723900D01*
X64770Y723900D01*
X52070Y736600D01*
X46990Y736600D01*
D13*
X167640Y674370D03*
D14*
X176530Y671830D02*
X124460Y723900D01*
X92710Y723900D01*
X80010Y736600D01*
X72390Y736600D01*
D13*
X176530Y671830D03*
D14*
X152400Y779780D02*
X118110Y814070D01*
D13*
X118110Y814070D03*
X152400Y779780D03*
D14*
X198120Y791210D02*
X198120Y717550D01*
X167640Y687070D01*
D13*
X198120Y791210D03*
X167640Y687070D03*
D14*
X128270Y741680D02*
X128270Y783590D01*
X128270Y741680D02*
X133350Y736600D01*
D13*
X128270Y783590D03*
X133350Y736600D03*
D14*
X49530Y788670D02*
X49530Y805180D01*
X49530Y788670D02*
X109220Y728980D01*
D13*
X49530Y805180D03*
X109220Y728980D03*
D14*
X157480Y664210D02*
X205740Y615950D01*
X157480Y664210D02*
X130810Y664210D01*
X109220Y685800D01*
D13*
X205740Y615950D03*
X109220Y685800D03*
D14*
X156210Y632460D02*
X182880Y632460D01*
X156210Y632460D02*
X109220Y679450D01*
D13*
X182880Y632460D03*
X109220Y679450D03*
D14*
X247650Y730250D02*
X304800Y673100D01*
X247650Y730250D02*
X241300Y730250D01*
X177800Y666750D01*
X134620Y666750D01*
X110490Y690880D01*
X107950Y690880D01*
X104140Y687070D01*
X104140Y678180D01*
X109220Y673100D01*
D13*
X304800Y673100D03*
X109220Y673100D03*
D14*
X246380Y662940D02*
X316230Y593090D01*
X246380Y662940D02*
X246380Y725170D01*
D13*
X316230Y593090D03*
X246380Y725170D03*
D14*
X21590Y783590D02*
X21590Y596900D01*
X21590Y783590D02*
X76200Y838200D01*
X116840Y838200D01*
D13*
X21590Y596900D03*
X116840Y838200D03*
D14*
X222250Y701040D02*
X222250Y680720D01*
X321310Y581660D01*
X361950Y581660D01*
X394970Y614680D01*
D13*
X222250Y701040D03*
X394970Y614680D03*
D14*
X26670Y581660D02*
X26670Y745490D01*
X26670Y581660D02*
X55880Y552450D01*
X60960Y552450D01*
X76200Y537210D01*
X76200Y533400D01*
D13*
X26670Y745490D03*
D14*
X128270Y789940D02*
X133350Y789940D01*
X128270Y789940D02*
X91440Y753110D01*
D13*
X133350Y789940D03*
X91440Y753110D03*
D14*
X347980Y749300D02*
X347980Y692150D01*
X287020Y631190D01*
X287020Y628650D01*
D13*
X347980Y749300D03*
X287020Y628650D03*
D14*
X370840Y711200D02*
X370840Y728980D01*
X370840Y711200D02*
X311150Y651510D01*
X311150Y609600D01*
D13*
X370840Y728980D03*
X311150Y609600D03*
D14*
X336550Y598170D02*
X344170Y605790D01*
D13*
X336550Y598170D03*
X344170Y605790D03*
D14*
X363220Y621030D02*
X363220Y589280D01*
X363220Y621030D02*
X368300Y626110D01*
D13*
X363220Y589280D03*
X368300Y626110D03*
D14*
X370840Y635000D02*
X370840Y704850D01*
X370840Y635000D02*
X349250Y613410D01*
X349250Y586740D01*
D13*
X370840Y704850D03*
X349250Y586740D03*
M02*
