G04 EAGLE Gerber RS-274X export*
G75*
%MOMM*%
%FSLAX34Y34*%
%LPD*%
%INBoard Outline*%
%IPPOS*%
%AMOC8*
5,1,8,0,0,1.08239X$1,22.5*%
G01*
%ADD10C,0.000000*%
%ADD11C,0.254000*%


D10*
X0Y508000D02*
X517400Y508000D01*
X517400Y850800D01*
X0Y850800D01*
X0Y508000D01*
X469080Y715534D02*
X469082Y715672D01*
X469088Y715809D01*
X469098Y715946D01*
X469112Y716083D01*
X469130Y716219D01*
X469152Y716355D01*
X469177Y716490D01*
X469207Y716624D01*
X469240Y716758D01*
X469278Y716890D01*
X469319Y717021D01*
X469364Y717151D01*
X469413Y717280D01*
X469465Y717407D01*
X469521Y717533D01*
X469581Y717657D01*
X469644Y717779D01*
X469711Y717899D01*
X469781Y718017D01*
X469854Y718134D01*
X469931Y718248D01*
X470012Y718359D01*
X470095Y718469D01*
X470181Y718576D01*
X470271Y718680D01*
X470364Y718782D01*
X470459Y718881D01*
X470557Y718977D01*
X470658Y719070D01*
X470762Y719160D01*
X470868Y719248D01*
X470977Y719332D01*
X471088Y719413D01*
X471202Y719491D01*
X471317Y719565D01*
X471435Y719636D01*
X471555Y719704D01*
X471677Y719768D01*
X471800Y719828D01*
X471925Y719885D01*
X472052Y719939D01*
X472180Y719988D01*
X472310Y720034D01*
X472441Y720076D01*
X472573Y720115D01*
X472706Y720149D01*
X472840Y720180D01*
X472975Y720206D01*
X473111Y720229D01*
X473247Y720248D01*
X473384Y720263D01*
X473521Y720274D01*
X473658Y720281D01*
X473796Y720284D01*
X473933Y720283D01*
X474071Y720278D01*
X474208Y720269D01*
X474345Y720256D01*
X474481Y720239D01*
X474617Y720218D01*
X474752Y720194D01*
X474887Y720165D01*
X475021Y720132D01*
X475153Y720096D01*
X475285Y720056D01*
X475415Y720012D01*
X475544Y719964D01*
X475672Y719912D01*
X475798Y719857D01*
X475922Y719799D01*
X476044Y719736D01*
X476165Y719670D01*
X476284Y719601D01*
X476401Y719528D01*
X476515Y719452D01*
X476628Y719373D01*
X476738Y719290D01*
X476845Y719204D01*
X476950Y719116D01*
X477052Y719024D01*
X477152Y718929D01*
X477249Y718831D01*
X477343Y718731D01*
X477434Y718628D01*
X477522Y718522D01*
X477607Y718414D01*
X477689Y718304D01*
X477768Y718191D01*
X477843Y718076D01*
X477915Y717958D01*
X477983Y717839D01*
X478048Y717718D01*
X478110Y717595D01*
X478167Y717470D01*
X478222Y717344D01*
X478272Y717216D01*
X478319Y717087D01*
X478362Y716956D01*
X478401Y716824D01*
X478437Y716691D01*
X478468Y716557D01*
X478496Y716423D01*
X478520Y716287D01*
X478540Y716151D01*
X478556Y716015D01*
X478568Y715878D01*
X478576Y715740D01*
X478580Y715603D01*
X478580Y715465D01*
X478576Y715328D01*
X478568Y715190D01*
X478556Y715053D01*
X478540Y714917D01*
X478520Y714781D01*
X478496Y714645D01*
X478468Y714511D01*
X478437Y714377D01*
X478401Y714244D01*
X478362Y714112D01*
X478319Y713981D01*
X478272Y713852D01*
X478222Y713724D01*
X478167Y713598D01*
X478110Y713473D01*
X478048Y713350D01*
X477983Y713229D01*
X477915Y713110D01*
X477843Y712992D01*
X477768Y712877D01*
X477689Y712764D01*
X477607Y712654D01*
X477522Y712546D01*
X477434Y712440D01*
X477343Y712337D01*
X477249Y712237D01*
X477152Y712139D01*
X477052Y712044D01*
X476950Y711952D01*
X476845Y711864D01*
X476738Y711778D01*
X476628Y711695D01*
X476515Y711616D01*
X476401Y711540D01*
X476284Y711467D01*
X476165Y711398D01*
X476044Y711332D01*
X475922Y711269D01*
X475798Y711211D01*
X475672Y711156D01*
X475544Y711104D01*
X475415Y711056D01*
X475285Y711012D01*
X475153Y710972D01*
X475021Y710936D01*
X474887Y710903D01*
X474752Y710874D01*
X474617Y710850D01*
X474481Y710829D01*
X474345Y710812D01*
X474208Y710799D01*
X474071Y710790D01*
X473933Y710785D01*
X473796Y710784D01*
X473658Y710787D01*
X473521Y710794D01*
X473384Y710805D01*
X473247Y710820D01*
X473111Y710839D01*
X472975Y710862D01*
X472840Y710888D01*
X472706Y710919D01*
X472573Y710953D01*
X472441Y710992D01*
X472310Y711034D01*
X472180Y711080D01*
X472052Y711129D01*
X471925Y711183D01*
X471800Y711240D01*
X471677Y711300D01*
X471555Y711364D01*
X471435Y711432D01*
X471317Y711503D01*
X471202Y711577D01*
X471088Y711655D01*
X470977Y711736D01*
X470868Y711820D01*
X470762Y711908D01*
X470658Y711998D01*
X470557Y712091D01*
X470459Y712187D01*
X470364Y712286D01*
X470271Y712388D01*
X470181Y712492D01*
X470095Y712599D01*
X470012Y712709D01*
X469931Y712820D01*
X469854Y712934D01*
X469781Y713051D01*
X469711Y713169D01*
X469644Y713289D01*
X469581Y713411D01*
X469521Y713535D01*
X469465Y713661D01*
X469413Y713788D01*
X469364Y713917D01*
X469319Y714047D01*
X469278Y714178D01*
X469240Y714310D01*
X469207Y714444D01*
X469177Y714578D01*
X469152Y714713D01*
X469130Y714849D01*
X469112Y714985D01*
X469098Y715122D01*
X469088Y715259D01*
X469082Y715396D01*
X469080Y715534D01*
X469080Y783534D02*
X469082Y783672D01*
X469088Y783809D01*
X469098Y783946D01*
X469112Y784083D01*
X469130Y784219D01*
X469152Y784355D01*
X469177Y784490D01*
X469207Y784624D01*
X469240Y784758D01*
X469278Y784890D01*
X469319Y785021D01*
X469364Y785151D01*
X469413Y785280D01*
X469465Y785407D01*
X469521Y785533D01*
X469581Y785657D01*
X469644Y785779D01*
X469711Y785899D01*
X469781Y786017D01*
X469854Y786134D01*
X469931Y786248D01*
X470012Y786359D01*
X470095Y786469D01*
X470181Y786576D01*
X470271Y786680D01*
X470364Y786782D01*
X470459Y786881D01*
X470557Y786977D01*
X470658Y787070D01*
X470762Y787160D01*
X470868Y787248D01*
X470977Y787332D01*
X471088Y787413D01*
X471202Y787491D01*
X471317Y787565D01*
X471435Y787636D01*
X471555Y787704D01*
X471677Y787768D01*
X471800Y787828D01*
X471925Y787885D01*
X472052Y787939D01*
X472180Y787988D01*
X472310Y788034D01*
X472441Y788076D01*
X472573Y788115D01*
X472706Y788149D01*
X472840Y788180D01*
X472975Y788206D01*
X473111Y788229D01*
X473247Y788248D01*
X473384Y788263D01*
X473521Y788274D01*
X473658Y788281D01*
X473796Y788284D01*
X473933Y788283D01*
X474071Y788278D01*
X474208Y788269D01*
X474345Y788256D01*
X474481Y788239D01*
X474617Y788218D01*
X474752Y788194D01*
X474887Y788165D01*
X475021Y788132D01*
X475153Y788096D01*
X475285Y788056D01*
X475415Y788012D01*
X475544Y787964D01*
X475672Y787912D01*
X475798Y787857D01*
X475922Y787799D01*
X476044Y787736D01*
X476165Y787670D01*
X476284Y787601D01*
X476401Y787528D01*
X476515Y787452D01*
X476628Y787373D01*
X476738Y787290D01*
X476845Y787204D01*
X476950Y787116D01*
X477052Y787024D01*
X477152Y786929D01*
X477249Y786831D01*
X477343Y786731D01*
X477434Y786628D01*
X477522Y786522D01*
X477607Y786414D01*
X477689Y786304D01*
X477768Y786191D01*
X477843Y786076D01*
X477915Y785958D01*
X477983Y785839D01*
X478048Y785718D01*
X478110Y785595D01*
X478167Y785470D01*
X478222Y785344D01*
X478272Y785216D01*
X478319Y785087D01*
X478362Y784956D01*
X478401Y784824D01*
X478437Y784691D01*
X478468Y784557D01*
X478496Y784423D01*
X478520Y784287D01*
X478540Y784151D01*
X478556Y784015D01*
X478568Y783878D01*
X478576Y783740D01*
X478580Y783603D01*
X478580Y783465D01*
X478576Y783328D01*
X478568Y783190D01*
X478556Y783053D01*
X478540Y782917D01*
X478520Y782781D01*
X478496Y782645D01*
X478468Y782511D01*
X478437Y782377D01*
X478401Y782244D01*
X478362Y782112D01*
X478319Y781981D01*
X478272Y781852D01*
X478222Y781724D01*
X478167Y781598D01*
X478110Y781473D01*
X478048Y781350D01*
X477983Y781229D01*
X477915Y781110D01*
X477843Y780992D01*
X477768Y780877D01*
X477689Y780764D01*
X477607Y780654D01*
X477522Y780546D01*
X477434Y780440D01*
X477343Y780337D01*
X477249Y780237D01*
X477152Y780139D01*
X477052Y780044D01*
X476950Y779952D01*
X476845Y779864D01*
X476738Y779778D01*
X476628Y779695D01*
X476515Y779616D01*
X476401Y779540D01*
X476284Y779467D01*
X476165Y779398D01*
X476044Y779332D01*
X475922Y779269D01*
X475798Y779211D01*
X475672Y779156D01*
X475544Y779104D01*
X475415Y779056D01*
X475285Y779012D01*
X475153Y778972D01*
X475021Y778936D01*
X474887Y778903D01*
X474752Y778874D01*
X474617Y778850D01*
X474481Y778829D01*
X474345Y778812D01*
X474208Y778799D01*
X474071Y778790D01*
X473933Y778785D01*
X473796Y778784D01*
X473658Y778787D01*
X473521Y778794D01*
X473384Y778805D01*
X473247Y778820D01*
X473111Y778839D01*
X472975Y778862D01*
X472840Y778888D01*
X472706Y778919D01*
X472573Y778953D01*
X472441Y778992D01*
X472310Y779034D01*
X472180Y779080D01*
X472052Y779129D01*
X471925Y779183D01*
X471800Y779240D01*
X471677Y779300D01*
X471555Y779364D01*
X471435Y779432D01*
X471317Y779503D01*
X471202Y779577D01*
X471088Y779655D01*
X470977Y779736D01*
X470868Y779820D01*
X470762Y779908D01*
X470658Y779998D01*
X470557Y780091D01*
X470459Y780187D01*
X470364Y780286D01*
X470271Y780388D01*
X470181Y780492D01*
X470095Y780599D01*
X470012Y780709D01*
X469931Y780820D01*
X469854Y780934D01*
X469781Y781051D01*
X469711Y781169D01*
X469644Y781289D01*
X469581Y781411D01*
X469521Y781535D01*
X469465Y781661D01*
X469413Y781788D01*
X469364Y781917D01*
X469319Y782047D01*
X469278Y782178D01*
X469240Y782310D01*
X469207Y782444D01*
X469177Y782578D01*
X469152Y782713D01*
X469130Y782849D01*
X469112Y782985D01*
X469098Y783122D01*
X469088Y783259D01*
X469082Y783396D01*
X469080Y783534D01*
D11*
X0Y508000D02*
X517400Y508000D01*
X517400Y850800D01*
X0Y850800D01*
X0Y508000D01*
X474097Y720284D02*
X474627Y720224D01*
X475147Y720105D01*
X475651Y719929D01*
X476131Y719698D01*
X476583Y719414D01*
X477000Y719081D01*
X477377Y718704D01*
X477710Y718287D01*
X477994Y717835D01*
X478225Y717354D01*
X478402Y716851D01*
X478520Y716331D01*
X478580Y715800D01*
X478580Y715267D01*
X478520Y714737D01*
X478402Y714217D01*
X478225Y713713D01*
X477994Y713232D01*
X477710Y712781D01*
X477377Y712364D01*
X477000Y711986D01*
X476583Y711654D01*
X476131Y711370D01*
X475651Y711138D01*
X475147Y710962D01*
X474627Y710843D01*
X474097Y710784D01*
X473563Y710784D01*
X473033Y710843D01*
X472513Y710962D01*
X472009Y711138D01*
X471529Y711370D01*
X471077Y711654D01*
X470660Y711986D01*
X470283Y712364D01*
X469950Y712781D01*
X469666Y713232D01*
X469435Y713713D01*
X469258Y714217D01*
X469140Y714737D01*
X469080Y715267D01*
X469080Y715800D01*
X469140Y716331D01*
X469258Y716851D01*
X469435Y717354D01*
X469666Y717835D01*
X469950Y718287D01*
X470283Y718704D01*
X470660Y719081D01*
X471077Y719414D01*
X471529Y719698D01*
X472009Y719929D01*
X472513Y720105D01*
X473033Y720224D01*
X473563Y720284D01*
X474097Y720284D01*
X474097Y788284D02*
X474627Y788224D01*
X475147Y788105D01*
X475651Y787929D01*
X476131Y787698D01*
X476583Y787414D01*
X477000Y787081D01*
X477377Y786704D01*
X477710Y786287D01*
X477994Y785835D01*
X478225Y785354D01*
X478402Y784851D01*
X478520Y784331D01*
X478580Y783800D01*
X478580Y783267D01*
X478520Y782737D01*
X478402Y782217D01*
X478225Y781713D01*
X477994Y781232D01*
X477710Y780781D01*
X477377Y780364D01*
X477000Y779986D01*
X476583Y779654D01*
X476131Y779370D01*
X475651Y779138D01*
X475147Y778962D01*
X474627Y778843D01*
X474097Y778784D01*
X473563Y778784D01*
X473033Y778843D01*
X472513Y778962D01*
X472009Y779138D01*
X471529Y779370D01*
X471077Y779654D01*
X470660Y779986D01*
X470283Y780364D01*
X469950Y780781D01*
X469666Y781232D01*
X469435Y781713D01*
X469258Y782217D01*
X469140Y782737D01*
X469080Y783267D01*
X469080Y783800D01*
X469140Y784331D01*
X469258Y784851D01*
X469435Y785354D01*
X469666Y785835D01*
X469950Y786287D01*
X470283Y786704D01*
X470660Y787081D01*
X471077Y787414D01*
X471529Y787698D01*
X472009Y787929D01*
X472513Y788105D01*
X473033Y788224D01*
X473563Y788284D01*
X474097Y788284D01*
M02*
